<?xml version="1.0" encoding="UTF-8"?>
<svg xmlns="http://www.w3.org/2000/svg" xmlns:xlink="http://www.w3.org/1999/xlink" width="100px" height="100px" viewBox="0 0 100 100" version="1.1">
<g id="surface1">
<path style=" stroke:none;fill-rule:nonzero;fill:rgb(10.196079%,42.352942%,64.705884%);fill-opacity:1;" d="M 55.800781 46.800781 C 55.917969 46.835938 55.917969 46.835938 56.039062 46.875 C 57.046875 47.199219 58.050781 47.582031 59.003906 48.050781 C 59.714844 48.382812 60.15625 48.46875 60.898438 48.199219 C 61.148438 48.105469 61.390625 48.007812 61.632812 47.90625 C 62.019531 47.75 62.417969 47.636719 62.816406 47.519531 C 63.082031 47.441406 63.339844 47.347656 63.597656 47.25 C 64.691406 46.839844 65.640625 46.714844 66.800781 46.734375 C 66.96875 46.734375 67.132812 46.734375 67.296875 46.734375 C 67.636719 46.738281 67.976562 46.738281 68.316406 46.742188 C 68.753906 46.75 69.191406 46.75 69.625 46.753906 C 70.046875 46.753906 70.464844 46.757812 70.882812 46.757812 C 71.003906 46.761719 71.003906 46.761719 71.125 46.761719 C 71.347656 46.761719 71.570312 46.765625 71.792969 46.769531 C 71.984375 46.769531 71.984375 46.769531 72.179688 46.773438 C 72.484375 46.796875 72.652344 46.828125 72.898438 47 C 73.101562 47.300781 73.101562 47.300781 73.101562 47.601562 C 73.226562 47.605469 73.351562 47.609375 73.484375 47.613281 C 73.652344 47.617188 73.824219 47.625 73.992188 47.632812 C 74.078125 47.632812 74.160156 47.636719 74.246094 47.636719 C 75.242188 47.679688 76.238281 47.996094 77 48.664062 C 77.199219 48.898438 77.199219 48.898438 77.199219 49.101562 C 77.265625 49.101562 77.332031 49.101562 77.398438 49.101562 C 77.671875 49.675781 77.820312 50.242188 77.957031 50.863281 C 77.976562 50.960938 78 51.058594 78.023438 51.15625 C 78.160156 51.785156 78.277344 52.414062 78.355469 53.054688 C 78.386719 53.296875 78.386719 53.296875 78.5 53.484375 C 78.652344 53.8125 78.648438 54.15625 78.664062 54.511719 C 78.667969 54.589844 78.671875 54.667969 78.675781 54.75 C 78.710938 55.597656 78.710938 56.449219 78.699219 57.300781 C 78.550781 57.347656 78.550781 57.347656 78.398438 57.398438 C 78.402344 57.515625 78.402344 57.628906 78.40625 57.746094 C 78.410156 58.167969 78.414062 58.589844 78.417969 59.011719 C 78.417969 59.195312 78.421875 59.378906 78.421875 59.5625 C 78.425781 59.824219 78.429688 60.085938 78.429688 60.347656 C 78.429688 60.429688 78.433594 60.511719 78.433594 60.597656 C 78.433594 60.828125 78.433594 60.828125 78.398438 61.199219 C 78.039062 61.441406 77.75 61.445312 77.332031 61.460938 C 77.261719 61.464844 77.191406 61.46875 77.117188 61.472656 C 76.945312 61.484375 76.773438 61.492188 76.601562 61.5 C 76.601562 61.566406 76.601562 61.632812 76.601562 61.699219 C 76.535156 61.699219 76.46875 61.699219 76.398438 61.699219 C 76.398438 61.765625 76.398438 61.832031 76.398438 61.898438 C 75.851562 62.316406 75.261719 62.277344 74.601562 62.199219 C 74.265625 62.066406 74.054688 61.855469 73.800781 61.601562 C 73.335938 61.5625 72.871094 61.582031 72.410156 61.59375 C 72.113281 61.601562 71.816406 61.601562 71.515625 61.605469 C 71.234375 61.605469 70.957031 61.609375 70.675781 61.617188 C 70.535156 61.617188 70.390625 61.617188 70.25 61.621094 C 70.050781 61.621094 69.847656 61.625 69.648438 61.628906 C 69.472656 61.632812 69.472656 61.632812 69.292969 61.632812 C 68.980469 61.671875 68.980469 61.671875 68.820312 61.941406 C 68.78125 62.027344 68.742188 62.113281 68.699219 62.199219 C 68.375 62.523438 68.027344 62.519531 67.582031 62.53125 C 67.078125 62.523438 66.613281 62.449219 66.125 62.328125 C 66.050781 62.3125 65.976562 62.292969 65.902344 62.273438 C 65.039062 62.0625 64.179688 61.835938 63.320312 61.605469 C 62.984375 61.519531 62.652344 61.429688 62.320312 61.339844 C 62.238281 61.320312 62.160156 61.296875 62.074219 61.277344 C 61.363281 61.089844 60.644531 60.910156 59.925781 60.746094 C 59.75 60.703125 59.574219 60.652344 59.398438 60.601562 C 59.367188 60.535156 59.335938 60.46875 59.300781 60.398438 C 59.886719 60.378906 60.449219 60.398438 61.027344 60.492188 C 61.878906 60.617188 62.734375 60.6875 63.59375 60.757812 C 63.828125 60.773438 64.058594 60.792969 64.292969 60.8125 C 64.4375 60.824219 64.578125 60.835938 64.722656 60.847656 C 65.152344 60.882812 65.574219 60.933594 66 61 C 65.96875 60.933594 65.933594 60.867188 65.898438 60.800781 C 65.804688 60.769531 65.707031 60.738281 65.605469 60.707031 C 65.300781 60.601562 65.300781 60.601562 65.101562 60.300781 C 64.796875 60.226562 64.796875 60.226562 64.429688 60.199219 C 64.363281 60.191406 64.296875 60.183594 64.226562 60.175781 C 64.078125 60.160156 63.933594 60.144531 63.785156 60.128906 C 63.394531 60.089844 63.003906 60.046875 62.613281 60.003906 C 62.496094 59.988281 62.496094 59.988281 62.375 59.976562 C 61.707031 59.902344 61.039062 59.808594 60.375 59.707031 C 59.238281 59.53125 58.097656 59.375 56.957031 59.226562 C 56.871094 59.214844 56.785156 59.203125 56.699219 59.191406 C 56.457031 59.160156 56.21875 59.125 55.976562 59.09375 C 55.902344 59.085938 55.832031 59.074219 55.753906 59.066406 C 55.433594 59.023438 55.125 59 54.800781 59 C 54.601562 59.394531 54.601562 59.394531 54.398438 59.800781 C 53.929688 59.683594 53.757812 59.472656 53.457031 59.125 C 53.363281 59.019531 53.269531 58.914062 53.175781 58.808594 C 53.128906 58.757812 53.085938 58.703125 53.035156 58.652344 C 52.832031 58.425781 52.617188 58.214844 52.398438 58 C 52.265625 57.867188 52.132812 57.734375 52 57.601562 C 52.074219 57.742188 52.074219 57.742188 52.148438 57.886719 C 52.300781 58.199219 52.300781 58.199219 52.300781 58.398438 C 52.367188 58.398438 52.433594 58.398438 52.5 58.398438 C 52.617188 58.535156 52.617188 58.535156 52.746094 58.722656 C 52.792969 58.789062 52.839844 58.859375 52.890625 58.929688 C 52.9375 59.003906 52.988281 59.074219 53.039062 59.148438 C 53.085938 59.21875 53.132812 59.289062 53.183594 59.359375 C 53.652344 60.046875 54.03125 60.660156 54.101562 61.5 C 54.191406 61.507812 54.191406 61.507812 54.28125 61.515625 C 55.621094 61.628906 56.960938 61.753906 58.300781 61.898438 C 58.011719 62.09375 57.863281 62.144531 57.53125 62.207031 C 57.410156 62.230469 57.410156 62.230469 57.285156 62.253906 C 54.398438 62.722656 51.496094 62.066406 48.65625 61.554688 C 46.820312 61.234375 45.246094 61.503906 43.5 62.101562 C 43.242188 62.1875 42.988281 62.269531 42.730469 62.355469 C 42.570312 62.410156 42.414062 62.464844 42.253906 62.515625 C 41.722656 62.699219 41.722656 62.699219 41.5 62.699219 C 41.5 62.601562 41.5 62.503906 41.5 62.398438 C 41.996094 62.101562 42.488281 61.804688 43 61.5 C 40.03125 61.46875 37.058594 61.433594 34 61.398438 C 35.066406 61.710938 35.066406 61.710938 36.136719 61.976562 C 36.300781 62.011719 36.300781 62.011719 36.464844 62.046875 C 36.542969 62.066406 36.621094 62.082031 36.699219 62.101562 C 36.699219 62.164062 36.699219 62.230469 36.699219 62.300781 C 34.140625 62.105469 31.613281 61.660156 29.097656 61.160156 C 28.371094 61.015625 27.648438 60.875 26.921875 60.742188 C 26.722656 60.703125 26.523438 60.664062 26.324219 60.628906 C 25.019531 60.394531 24.019531 60.609375 22.800781 61.101562 C 22.703125 61.136719 22.609375 61.175781 22.507812 61.214844 C 22.441406 61.242188 22.371094 61.269531 22.300781 61.300781 C 22.347656 61.101562 22.347656 61.101562 22.398438 60.898438 C 22.464844 60.898438 22.53125 60.898438 22.601562 60.898438 C 22.601562 60.835938 22.601562 60.769531 22.601562 60.699219 C 22.664062 60.699219 22.730469 60.699219 22.800781 60.699219 C 22.921875 60.523438 22.921875 60.523438 23 60.300781 C 22.921875 60.078125 22.921875 60.078125 22.800781 59.898438 C 22.734375 59.898438 22.667969 59.898438 22.601562 59.898438 C 22.601562 59.800781 22.601562 59.703125 22.601562 59.601562 C 22.5 59.566406 22.402344 59.535156 22.300781 59.5 C 21.714844 58.628906 21.214844 57.570312 21.300781 56.5 C 21.742188 56.261719 22.167969 56.070312 22.648438 55.917969 C 23.308594 55.699219 23.953125 55.457031 24.601562 55.207031 C 25.453125 54.878906 26.308594 54.558594 27.167969 54.257812 C 27.25 54.226562 27.332031 54.199219 27.414062 54.167969 C 28.066406 53.9375 28.066406 53.9375 28.382812 53.832031 C 28.605469 53.753906 28.832031 53.675781 29.054688 53.59375 C 29.121094 53.570312 29.1875 53.550781 29.257812 53.527344 C 30.019531 53.253906 30.425781 52.839844 30.777344 52.121094 C 30.808594 52.058594 30.839844 51.992188 30.871094 51.929688 C 30.972656 51.726562 31.070312 51.527344 31.167969 51.324219 C 31.269531 51.121094 31.367188 50.917969 31.46875 50.71875 C 31.558594 50.535156 31.648438 50.351562 31.738281 50.167969 C 31.898438 49.898438 31.898438 49.898438 32.199219 49.800781 C 32.199219 49.734375 32.199219 49.667969 32.199219 49.601562 C 32.949219 49.171875 33.671875 48.960938 34.511719 48.792969 C 34.753906 48.742188 34.996094 48.691406 35.238281 48.640625 C 35.351562 48.617188 35.46875 48.59375 35.585938 48.566406 C 35.964844 48.488281 36.332031 48.390625 36.707031 48.292969 C 38.328125 47.882812 39.984375 47.613281 41.632812 47.335938 C 41.804688 47.308594 41.804688 47.308594 41.980469 47.277344 C 52.042969 45.617188 52.042969 45.617188 55.800781 46.800781 Z M 37.398438 49.5 C 37.398438 49.664062 37.398438 49.828125 37.398438 50 C 37.992188 49.867188 38.589844 49.734375 39.199219 49.601562 C 39.199219 49.433594 39.199219 49.269531 39.199219 49.101562 C 38.699219 49.058594 37.777344 49.121094 37.398438 49.5 Z M 62.800781 49.1875 C 62.695312 49.203125 62.59375 49.222656 62.484375 49.242188 C 62.386719 49.257812 62.289062 49.273438 62.1875 49.292969 C 62.097656 49.308594 62.003906 49.324219 61.910156 49.339844 C 61.84375 49.359375 61.773438 49.378906 61.699219 49.398438 C 61.546875 49.707031 61.648438 49.96875 61.699219 50.300781 C 61.699219 50.398438 61.699219 50.496094 61.699219 50.601562 C 62.226562 50.535156 62.730469 50.425781 63.242188 50.292969 C 63.316406 50.273438 63.390625 50.257812 63.464844 50.238281 C 63.644531 50.191406 63.820312 50.144531 64 50.101562 C 64 49.738281 64 49.375 64 49 C 63.605469 49 63.1875 49.121094 62.800781 49.1875 Z M 35.539062 49.800781 C 35.46875 49.820312 35.394531 49.839844 35.324219 49.859375 C 35.148438 49.90625 34.972656 49.953125 34.800781 50 C 34.800781 50.199219 34.800781 50.394531 34.800781 50.601562 C 35.066406 50.535156 35.328125 50.472656 35.59375 50.40625 C 35.667969 50.386719 35.746094 50.371094 35.824219 50.351562 C 36.191406 50.285156 36.191406 50.285156 36.5 50.101562 C 36.503906 49.933594 36.503906 49.765625 36.5 49.601562 C 36.167969 49.601562 35.855469 49.714844 35.539062 49.800781 Z M 66.699219 50.199219 C 66.683594 50.558594 66.675781 50.921875 66.667969 51.28125 C 66.664062 51.382812 66.660156 51.484375 66.65625 51.589844 C 66.625 52.144531 66.625 52.144531 66.886719 52.601562 C 66.988281 52.632812 67.09375 52.667969 67.199219 52.699219 C 67.277344 52.726562 67.355469 52.75 67.433594 52.773438 C 67.707031 52.859375 67.984375 52.9375 68.261719 53.011719 C 68.453125 53.066406 68.640625 53.117188 68.828125 53.167969 C 68.914062 53.191406 68.996094 53.214844 69.082031 53.238281 C 69.253906 53.289062 69.429688 53.34375 69.601562 53.398438 C 69.617188 52.296875 69.566406 51.203125 69.5 50.101562 C 69.203125 50.097656 68.902344 50.09375 68.605469 50.09375 C 68.523438 50.09375 68.441406 50.09375 68.355469 50.089844 C 67.792969 50.089844 67.253906 50.128906 66.699219 50.199219 Z M 70.398438 50.101562 C 70.398438 51.378906 70.398438 51.378906 70.5 52.644531 C 70.507812 52.726562 70.519531 52.8125 70.527344 52.898438 C 70.550781 53.097656 70.574219 53.300781 70.601562 53.5 C 71.277344 53.503906 71.949219 53.503906 72.625 53.503906 C 72.855469 53.507812 73.085938 53.507812 73.3125 53.507812 C 74.746094 53.511719 76.171875 53.488281 77.601562 53.398438 C 77.59375 53.339844 77.589844 53.28125 77.582031 53.21875 C 77.578125 53.136719 77.570312 53.054688 77.5625 52.972656 C 77.554688 52.890625 77.546875 52.804688 77.539062 52.71875 C 77.523438 52.546875 77.507812 52.375 77.496094 52.199219 C 77.425781 51.464844 77.269531 50.839844 77.101562 50.101562 C 74.890625 50.101562 72.679688 50.101562 70.398438 50.101562 Z M 62.457031 51.738281 C 62.300781 51.757812 62.300781 51.757812 62.144531 51.777344 C 61.222656 51.863281 61.222656 51.863281 60.464844 52.339844 C 60.367188 52.472656 60.367188 52.472656 60.261719 52.613281 C 60.160156 52.75 60.160156 52.75 60.054688 52.886719 C 60.003906 52.957031 59.953125 53.027344 59.898438 53.101562 C 59.933594 53.164062 59.964844 53.230469 60 53.300781 C 62.050781 52.90625 62.050781 52.90625 64.101562 52.5 C 64.101562 52.203125 64.101562 51.90625 64.101562 51.601562 C 63.542969 51.589844 63.007812 51.664062 62.457031 51.738281 Z M 61.949219 54.335938 C 61.738281 54.34375 61.53125 54.351562 61.320312 54.355469 C 60.914062 54.367188 60.507812 54.382812 60.101562 54.398438 C 59.902344 54.40625 59.902344 54.40625 59.699219 54.414062 C 59.578125 54.421875 59.453125 54.429688 59.324219 54.433594 C 59.160156 54.441406 59.160156 54.441406 58.992188 54.453125 C 58.601562 54.515625 58.378906 54.675781 58.105469 54.953125 C 57.980469 55.097656 57.980469 55.097656 58 55.300781 C 57.914062 55.335938 57.914062 55.335938 57.824219 55.367188 C 57.542969 55.53125 57.398438 55.742188 57.199219 56 C 58.628906 55.953125 60.039062 55.742188 61.453125 55.546875 C 62.027344 55.46875 62.601562 55.402344 63.175781 55.339844 C 63.484375 55.300781 63.792969 55.253906 64.101562 55.199219 C 64.101562 54.902344 64.101562 54.605469 64.101562 54.300781 C 63.382812 54.292969 62.667969 54.316406 61.949219 54.335938 Z M 68.898438 54.800781 C 68.898438 55.164062 68.898438 55.527344 68.898438 55.898438 C 69.03125 55.933594 69.164062 55.964844 69.300781 56 C 69.300781 55.605469 69.300781 55.207031 69.300781 54.800781 C 69.167969 54.800781 69.035156 54.800781 68.898438 54.800781 Z M 72.398438 55.398438 C 72.398438 55.433594 72.398438 55.464844 72.398438 55.5 C 73.226562 55.5 74.050781 55.5 74.898438 55.5 C 74.898438 55.46875 74.898438 55.433594 74.898438 55.398438 C 74.074219 55.398438 73.25 55.398438 72.398438 55.398438 Z M 78.199219 56.101562 C 78.199219 56.398438 78.199219 56.695312 78.199219 57 C 78.234375 57 78.265625 57 78.300781 57 C 78.300781 56.703125 78.300781 56.40625 78.300781 56.101562 C 78.265625 56.101562 78.234375 56.101562 78.199219 56.101562 Z M 71 56.300781 C 71 56.597656 71 56.894531 71 57.199219 C 71.03125 57.199219 71.066406 57.199219 71.101562 57.199219 C 71.101562 56.902344 71.101562 56.605469 71.101562 56.300781 C 71.066406 56.300781 71.035156 56.300781 71 56.300781 Z M 76.601562 56.300781 C 76.601562 56.332031 76.601562 56.367188 76.601562 56.398438 C 76.832031 56.398438 77.0625 56.398438 77.300781 56.398438 C 77.300781 56.367188 77.300781 56.335938 77.300781 56.300781 C 77.070312 56.300781 76.839844 56.300781 76.601562 56.300781 Z M 72.699219 56.398438 C 72.699219 56.433594 72.699219 56.464844 72.699219 56.5 C 73.292969 56.5 73.886719 56.5 74.5 56.5 C 74.5 56.46875 74.5 56.433594 74.5 56.398438 C 73.90625 56.398438 73.3125 56.398438 72.699219 56.398438 Z M 56.199219 56.898438 C 56.132812 57.03125 56.066406 57.164062 56 57.300781 C 55.933594 57.300781 55.867188 57.300781 55.800781 57.300781 C 55.617188 57.515625 55.617188 57.515625 55.4375 57.789062 C 55.34375 57.921875 55.34375 57.921875 55.246094 58.0625 C 55.082031 58.28125 55.082031 58.28125 55.101562 58.5 C 56.394531 58.507812 57.6875 58.488281 58.980469 58.460938 C 59.085938 58.460938 59.1875 58.457031 59.292969 58.457031 C 60.902344 58.421875 62.496094 58.351562 64.101562 58.199219 C 64.101562 57.871094 64.101562 57.539062 64.101562 57.199219 C 63.730469 57.109375 63.433594 57.082031 63.054688 57.070312 C 62.925781 57.066406 62.796875 57.0625 62.667969 57.0625 C 62.53125 57.058594 62.398438 57.054688 62.261719 57.050781 C 61.507812 57.03125 60.757812 57.007812 60.003906 56.949219 C 59.222656 56.886719 58.445312 56.890625 57.664062 56.894531 C 57.519531 56.894531 57.375 56.894531 57.234375 56.894531 C 56.890625 56.894531 56.542969 56.898438 56.199219 56.898438 Z M 66.601562 56.898438 C 66.601562 56.964844 66.601562 57.03125 66.601562 57.101562 C 66.667969 57.113281 66.734375 57.125 66.804688 57.140625 C 66.894531 57.15625 66.984375 57.175781 67.074219 57.195312 C 67.164062 57.210938 67.25 57.230469 67.34375 57.246094 C 67.5625 57.292969 67.78125 57.34375 68 57.398438 C 67.792969 57.085938 67.742188 57.015625 67.398438 56.898438 C 67.132812 56.882812 66.871094 56.890625 66.601562 56.898438 Z M 51.800781 57.101562 C 51.898438 57.300781 51.898438 57.300781 51.898438 57.300781 Z M 76.5 57.199219 C 76.5 57.234375 76.5 57.265625 76.5 57.300781 C 76.730469 57.300781 76.960938 57.300781 77.199219 57.300781 C 77.199219 57.265625 77.199219 57.234375 77.199219 57.199219 C 76.96875 57.199219 76.738281 57.199219 76.5 57.199219 Z M 74.300781 57.300781 C 74.300781 57.332031 74.300781 57.367188 74.300781 57.398438 C 74.859375 57.398438 75.421875 57.398438 76 57.398438 C 76 57.367188 76 57.335938 76 57.300781 C 75.4375 57.300781 74.878906 57.300781 74.300781 57.300781 Z M 65.898438 57.398438 C 65.800781 57.5 65.703125 57.597656 65.601562 57.699219 C 65.632812 57.765625 65.664062 57.832031 65.699219 57.898438 C 65.800781 57.800781 65.898438 57.703125 66 57.601562 C 65.96875 57.535156 65.933594 57.46875 65.898438 57.398438 Z M 65.5 57.898438 C 65.601562 58.101562 65.601562 58.101562 65.601562 58.101562 Z M 65.398438 58.101562 C 65.5 58.398438 65.5 58.398438 65.5 58.398438 Z M 66.300781 58.101562 C 66.398438 58.300781 66.398438 58.300781 66.398438 58.300781 Z M 65.300781 58.398438 C 65.300781 58.566406 65.300781 58.730469 65.300781 58.898438 C 65.332031 58.898438 65.367188 58.898438 65.398438 58.898438 C 65.398438 58.734375 65.398438 58.570312 65.398438 58.398438 C 65.367188 58.398438 65.335938 58.398438 65.300781 58.398438 Z M 77.835938 58.519531 C 77.65625 58.753906 77.675781 58.910156 77.699219 59.199219 C 77.863281 59.199219 78.03125 59.199219 78.199219 59.199219 C 78.199219 58.9375 78.199219 58.671875 78.199219 58.398438 C 77.992188 58.378906 77.992188 58.378906 77.835938 58.519531 Z M 70 58.601562 C 70 58.863281 70 59.128906 70 59.398438 C 70.757812 59.398438 71.519531 59.398438 72.300781 59.398438 C 72.160156 58.828125 72.160156 58.828125 71.898438 58.601562 C 71.695312 58.574219 71.695312 58.574219 71.464844 58.582031 C 71.378906 58.582031 71.292969 58.582031 71.207031 58.582031 C 71.117188 58.585938 71.027344 58.585938 70.9375 58.585938 C 70.804688 58.589844 70.804688 58.589844 70.664062 58.589844 C 70.445312 58.59375 70.222656 58.597656 70 58.601562 Z M 65.199219 59 C 65.199219 59.164062 65.199219 59.328125 65.199219 59.5 C 65.234375 59.5 65.265625 59.5 65.300781 59.5 C 65.300781 59.335938 65.300781 59.171875 65.300781 59 C 65.265625 59 65.234375 59 65.199219 59 Z M 66.898438 59 C 66.585938 59.339844 66.558594 59.585938 66.5625 60.042969 C 66.5625 60.15625 66.5625 60.265625 66.558594 60.382812 C 66.601562 60.726562 66.699219 60.917969 66.898438 61.199219 C 67 61.167969 67.097656 61.132812 67.199219 61.101562 C 67.132812 61.035156 67.066406 60.96875 67 60.898438 C 66.976562 60.648438 66.96875 60.410156 66.96875 60.15625 C 66.96875 60.089844 66.964844 60.019531 66.964844 59.949219 C 66.964844 59.449219 66.964844 59.449219 67.152344 59.203125 C 67.199219 59.167969 67.25 59.136719 67.300781 59.101562 C 67.167969 59.066406 67.035156 59.035156 66.898438 59 Z M 66.898438 59 "/>
<path style=" stroke:none;fill-rule:nonzero;fill:rgb(32.156864%,32.156864%,32.156864%);fill-opacity:1;" d="M 66.800781 46.734375 C 66.96875 46.734375 67.132812 46.734375 67.296875 46.734375 C 67.636719 46.738281 67.976562 46.738281 68.316406 46.742188 C 68.753906 46.75 69.191406 46.75 69.625 46.753906 C 70.046875 46.753906 70.464844 46.757812 70.882812 46.757812 C 71.003906 46.761719 71.003906 46.761719 71.125 46.761719 C 71.347656 46.761719 71.570312 46.765625 71.792969 46.769531 C 71.984375 46.769531 71.984375 46.769531 72.179688 46.773438 C 72.484375 46.796875 72.652344 46.828125 72.898438 47 C 73.101562 47.300781 73.101562 47.300781 73.101562 47.601562 C 73.226562 47.605469 73.351562 47.609375 73.484375 47.609375 C 73.652344 47.617188 73.824219 47.625 73.992188 47.632812 C 74.078125 47.632812 74.160156 47.636719 74.246094 47.636719 C 75.242188 47.679688 76.238281 47.996094 77 48.664062 C 77.199219 48.898438 77.199219 48.898438 77.199219 49.101562 C 77.265625 49.101562 77.332031 49.101562 77.398438 49.101562 C 77.671875 49.675781 77.820312 50.242188 77.957031 50.863281 C 77.976562 50.960938 78 51.058594 78.023438 51.15625 C 78.160156 51.785156 78.277344 52.414062 78.355469 53.054688 C 78.386719 53.296875 78.386719 53.296875 78.5 53.484375 C 78.652344 53.8125 78.648438 54.15625 78.664062 54.511719 C 78.667969 54.589844 78.671875 54.667969 78.675781 54.75 C 78.710938 55.597656 78.710938 56.449219 78.699219 57.300781 C 78.601562 57.332031 78.503906 57.367188 78.398438 57.398438 C 78.402344 57.570312 78.402344 57.570312 78.40625 57.746094 C 78.410156 58.167969 78.414062 58.589844 78.417969 59.011719 C 78.417969 59.195312 78.421875 59.378906 78.421875 59.5625 C 78.425781 59.824219 78.429688 60.085938 78.429688 60.347656 C 78.429688 60.429688 78.433594 60.511719 78.433594 60.597656 C 78.433594 60.828125 78.433594 60.828125 78.398438 61.199219 C 78.039062 61.441406 77.75 61.445312 77.332031 61.460938 C 77.261719 61.464844 77.191406 61.46875 77.117188 61.472656 C 76.945312 61.484375 76.773438 61.492188 76.601562 61.5 C 76.601562 61.566406 76.601562 61.632812 76.601562 61.699219 C 76.535156 61.699219 76.46875 61.699219 76.398438 61.699219 C 76.398438 61.765625 76.398438 61.832031 76.398438 61.898438 C 75.851562 62.316406 75.261719 62.277344 74.601562 62.199219 C 74.265625 62.066406 74.054688 61.855469 73.800781 61.601562 C 73.335938 61.5625 72.871094 61.582031 72.410156 61.59375 C 72.113281 61.601562 71.816406 61.601562 71.515625 61.605469 C 71.234375 61.605469 70.957031 61.609375 70.675781 61.617188 C 70.535156 61.617188 70.390625 61.617188 70.25 61.621094 C 70.050781 61.621094 69.847656 61.625 69.648438 61.628906 C 69.472656 61.632812 69.472656 61.632812 69.292969 61.632812 C 68.980469 61.671875 68.980469 61.671875 68.820312 61.941406 C 68.78125 62.027344 68.742188 62.113281 68.699219 62.199219 C 68.375 62.523438 68.027344 62.519531 67.582031 62.53125 C 67.078125 62.523438 66.613281 62.449219 66.125 62.328125 C 66.050781 62.3125 65.976562 62.292969 65.902344 62.273438 C 65.039062 62.0625 64.179688 61.835938 63.320312 61.605469 C 62.984375 61.519531 62.652344 61.429688 62.320312 61.339844 C 62.238281 61.320312 62.160156 61.296875 62.074219 61.277344 C 61.363281 61.089844 60.644531 60.910156 59.925781 60.746094 C 59.75 60.703125 59.574219 60.652344 59.398438 60.601562 C 59.367188 60.535156 59.335938 60.46875 59.300781 60.398438 C 59.886719 60.378906 60.449219 60.398438 61.027344 60.492188 C 61.878906 60.617188 62.734375 60.6875 63.59375 60.757812 C 63.828125 60.773438 64.058594 60.792969 64.292969 60.8125 C 64.4375 60.824219 64.578125 60.835938 64.722656 60.847656 C 65.152344 60.882812 65.574219 60.933594 66 61 C 65.96875 60.933594 65.933594 60.867188 65.898438 60.800781 C 65.804688 60.769531 65.707031 60.738281 65.605469 60.707031 C 65.300781 60.601562 65.300781 60.601562 65.101562 60.300781 C 64.796875 60.226562 64.796875 60.226562 64.429688 60.195312 C 64.363281 60.191406 64.296875 60.183594 64.226562 60.175781 C 64.078125 60.160156 63.933594 60.144531 63.785156 60.128906 C 63.394531 60.089844 63.003906 60.046875 62.613281 60.003906 C 62.535156 59.996094 62.457031 59.984375 62.375 59.976562 C 61.707031 59.902344 61.039062 59.808594 60.375 59.707031 C 59.070312 59.503906 57.757812 59.335938 56.449219 59.167969 C 56.367188 59.15625 56.289062 59.144531 56.207031 59.136719 C 56.054688 59.117188 55.90625 59.097656 55.753906 59.078125 C 55.429688 59.035156 55.113281 58.988281 54.800781 58.898438 C 54.800781 58.800781 54.800781 58.703125 54.800781 58.601562 C 55.09375 58.453125 55.398438 58.464844 55.71875 58.445312 C 55.832031 58.441406 55.832031 58.441406 55.945312 58.433594 C 56.859375 58.386719 57.769531 58.371094 58.683594 58.355469 C 59.199219 58.347656 59.71875 58.335938 60.234375 58.324219 C 60.335938 58.324219 60.4375 58.320312 60.539062 58.320312 C 61.726562 58.292969 62.914062 58.25 64.101562 58.199219 C 64.101562 57.871094 64.101562 57.539062 64.101562 57.199219 C 64.003906 57.199219 63.910156 57.195312 63.808594 57.191406 C 63.449219 57.183594 63.085938 57.171875 62.722656 57.164062 C 62.570312 57.160156 62.414062 57.15625 62.257812 57.148438 C 61.386719 57.128906 60.519531 57.089844 59.648438 57.023438 C 59.003906 56.980469 58.359375 56.964844 57.710938 56.945312 C 57.574219 56.9375 57.4375 56.933594 57.296875 56.929688 C 56.964844 56.921875 56.632812 56.910156 56.300781 56.898438 C 56.359375 56.609375 56.390625 56.507812 56.605469 56.289062 C 57.382812 55.792969 58.40625 55.804688 59.300781 55.707031 C 59.605469 55.671875 59.910156 55.636719 60.214844 55.601562 C 60.289062 55.59375 60.363281 55.585938 60.441406 55.574219 C 61.21875 55.488281 61.992188 55.390625 62.765625 55.285156 C 63.214844 55.226562 63.648438 55.183594 64.101562 55.199219 C 64.101562 54.902344 64.101562 54.605469 64.101562 54.300781 C 64 54.316406 63.902344 54.332031 63.796875 54.347656 C 63.183594 54.421875 62.566406 54.433594 61.949219 54.449219 C 61.738281 54.457031 61.53125 54.460938 61.320312 54.46875 C 60.449219 54.496094 59.574219 54.503906 58.699219 54.5 C 58.949219 53.988281 59.21875 53.621094 59.699219 53.300781 C 60.203125 53.128906 60.710938 53.035156 61.234375 52.945312 C 61.519531 52.894531 61.804688 52.84375 62.09375 52.789062 C 62.476562 52.714844 62.859375 52.640625 63.242188 52.574219 C 63.359375 52.550781 63.359375 52.550781 63.480469 52.53125 C 63.699219 52.5 63.699219 52.5 64.101562 52.5 C 64.101562 52.203125 64.101562 51.90625 64.101562 51.601562 C 64.039062 51.613281 63.980469 51.625 63.917969 51.636719 C 63.320312 51.753906 62.722656 51.839844 62.117188 51.914062 C 62.046875 51.921875 61.976562 51.929688 61.902344 51.9375 C 61.5 51.984375 61.105469 52.007812 60.699219 52 C 60.859375 51.496094 61.105469 51.050781 61.5 50.699219 C 61.921875 50.511719 62.351562 50.402344 62.800781 50.300781 C 62.882812 50.277344 62.964844 50.253906 63.046875 50.230469 C 63.378906 50.140625 63.652344 50.101562 64 50.101562 C 63.96875 49.769531 63.933594 49.441406 63.898438 49.101562 C 63.832031 49.113281 63.761719 49.128906 63.691406 49.144531 C 63.378906 49.210938 63.066406 49.269531 62.75 49.332031 C 62.640625 49.355469 62.535156 49.378906 62.421875 49.402344 C 61.515625 49.570312 61.515625 49.570312 61.046875 49.273438 C 60.929688 49.183594 60.816406 49.09375 60.699219 49 C 60.566406 48.921875 60.433594 48.84375 60.300781 48.769531 C 60.152344 48.683594 60.152344 48.683594 60 48.601562 C 60.265625 48.335938 60.511719 48.285156 60.867188 48.167969 C 61.007812 48.125 61.144531 48.078125 61.28125 48.035156 C 61.351562 48.011719 61.421875 47.988281 61.492188 47.96875 C 61.804688 47.867188 62.117188 47.761719 62.429688 47.65625 C 62.605469 47.597656 62.605469 47.597656 62.785156 47.539062 C 63.0625 47.449219 63.335938 47.351562 63.605469 47.246094 C 64.695312 46.839844 65.644531 46.714844 66.800781 46.734375 Z M 66.699219 50.199219 C 66.683594 50.558594 66.675781 50.921875 66.667969 51.28125 C 66.664062 51.382812 66.660156 51.484375 66.65625 51.589844 C 66.625 52.144531 66.625 52.144531 66.886719 52.601562 C 66.988281 52.632812 67.09375 52.667969 67.199219 52.699219 C 67.277344 52.726562 67.355469 52.75 67.433594 52.773438 C 67.707031 52.859375 67.984375 52.9375 68.261719 53.011719 C 68.453125 53.066406 68.640625 53.117188 68.828125 53.167969 C 68.914062 53.191406 68.996094 53.214844 69.082031 53.238281 C 69.253906 53.289062 69.429688 53.34375 69.601562 53.398438 C 69.617188 52.296875 69.566406 51.203125 69.5 50.101562 C 69.203125 50.097656 68.902344 50.09375 68.605469 50.09375 C 68.523438 50.09375 68.441406 50.09375 68.355469 50.089844 C 67.792969 50.089844 67.253906 50.128906 66.699219 50.199219 Z M 70.398438 50.101562 C 70.398438 51.378906 70.398438 51.378906 70.5 52.644531 C 70.507812 52.726562 70.519531 52.8125 70.527344 52.898438 C 70.550781 53.097656 70.574219 53.300781 70.601562 53.5 C 71.277344 53.503906 71.949219 53.503906 72.625 53.503906 C 72.855469 53.507812 73.085938 53.507812 73.3125 53.507812 C 74.746094 53.511719 76.171875 53.488281 77.601562 53.398438 C 77.59375 53.339844 77.589844 53.28125 77.582031 53.21875 C 77.578125 53.136719 77.570312 53.054688 77.5625 52.972656 C 77.554688 52.890625 77.546875 52.804688 77.539062 52.71875 C 77.523438 52.546875 77.507812 52.375 77.496094 52.199219 C 77.425781 51.464844 77.269531 50.839844 77.101562 50.101562 C 74.890625 50.101562 72.679688 50.101562 70.398438 50.101562 Z M 68.898438 54.800781 C 68.898438 55.164062 68.898438 55.527344 68.898438 55.898438 C 69.03125 55.933594 69.164062 55.964844 69.300781 56 C 69.300781 55.605469 69.300781 55.207031 69.300781 54.800781 C 69.167969 54.800781 69.035156 54.800781 68.898438 54.800781 Z M 72.398438 55.398438 C 72.398438 55.433594 72.398438 55.464844 72.398438 55.5 C 73.226562 55.5 74.050781 55.5 74.898438 55.5 C 74.898438 55.46875 74.898438 55.433594 74.898438 55.398438 C 74.074219 55.398438 73.25 55.398438 72.398438 55.398438 Z M 78.199219 56.101562 C 78.199219 56.398438 78.199219 56.695312 78.199219 57 C 78.234375 57 78.265625 57 78.300781 57 C 78.300781 56.703125 78.300781 56.40625 78.300781 56.101562 C 78.265625 56.101562 78.234375 56.101562 78.199219 56.101562 Z M 71 56.300781 C 71 56.597656 71 56.894531 71 57.199219 C 71.03125 57.199219 71.066406 57.199219 71.101562 57.199219 C 71.101562 56.902344 71.101562 56.605469 71.101562 56.300781 C 71.066406 56.300781 71.035156 56.300781 71 56.300781 Z M 76.601562 56.300781 C 76.601562 56.332031 76.601562 56.367188 76.601562 56.398438 C 76.832031 56.398438 77.0625 56.398438 77.300781 56.398438 C 77.300781 56.367188 77.300781 56.335938 77.300781 56.300781 C 77.070312 56.300781 76.839844 56.300781 76.601562 56.300781 Z M 72.699219 56.398438 C 72.699219 56.433594 72.699219 56.464844 72.699219 56.5 C 73.292969 56.5 73.886719 56.5 74.5 56.5 C 74.5 56.46875 74.5 56.433594 74.5 56.398438 C 73.90625 56.398438 73.3125 56.398438 72.699219 56.398438 Z M 66.601562 56.898438 C 66.601562 56.964844 66.601562 57.03125 66.601562 57.101562 C 66.667969 57.113281 66.734375 57.125 66.804688 57.140625 C 66.894531 57.15625 66.984375 57.175781 67.074219 57.195312 C 67.164062 57.210938 67.25 57.230469 67.34375 57.246094 C 67.5625 57.292969 67.78125 57.34375 68 57.398438 C 67.792969 57.085938 67.742188 57.015625 67.398438 56.898438 C 67.132812 56.882812 66.871094 56.890625 66.601562 56.898438 Z M 76.5 57.199219 C 76.5 57.234375 76.5 57.265625 76.5 57.300781 C 76.730469 57.300781 76.960938 57.300781 77.199219 57.300781 C 77.199219 57.265625 77.199219 57.234375 77.199219 57.199219 C 76.96875 57.199219 76.738281 57.199219 76.5 57.199219 Z M 74.300781 57.300781 C 74.300781 57.332031 74.300781 57.367188 74.300781 57.398438 C 74.859375 57.398438 75.421875 57.398438 76 57.398438 C 76 57.367188 76 57.335938 76 57.300781 C 75.4375 57.300781 74.878906 57.300781 74.300781 57.300781 Z M 65.898438 57.398438 C 65.800781 57.5 65.703125 57.597656 65.601562 57.699219 C 65.632812 57.765625 65.664062 57.832031 65.699219 57.898438 C 65.800781 57.800781 65.898438 57.703125 66 57.601562 C 65.96875 57.535156 65.933594 57.46875 65.898438 57.398438 Z M 65.5 57.898438 C 65.601562 58.101562 65.601562 58.101562 65.601562 58.101562 Z M 65.398438 58.101562 C 65.5 58.398438 65.5 58.398438 65.5 58.398438 Z M 66.300781 58.101562 C 66.398438 58.300781 66.398438 58.300781 66.398438 58.300781 Z M 65.300781 58.398438 C 65.300781 58.566406 65.300781 58.730469 65.300781 58.898438 C 65.332031 58.898438 65.367188 58.898438 65.398438 58.898438 C 65.398438 58.734375 65.398438 58.570312 65.398438 58.398438 C 65.367188 58.398438 65.335938 58.398438 65.300781 58.398438 Z M 77.835938 58.519531 C 77.65625 58.753906 77.675781 58.910156 77.699219 59.199219 C 77.863281 59.199219 78.03125 59.199219 78.199219 59.199219 C 78.199219 58.9375 78.199219 58.671875 78.199219 58.398438 C 77.992188 58.378906 77.992188 58.378906 77.835938 58.519531 Z M 70 58.601562 C 70 58.863281 70 59.128906 70 59.398438 C 70.757812 59.398438 71.519531 59.398438 72.300781 59.398438 C 72.160156 58.828125 72.160156 58.828125 71.898438 58.601562 C 71.695312 58.574219 71.695312 58.574219 71.464844 58.582031 C 71.378906 58.582031 71.292969 58.582031 71.207031 58.582031 C 71.117188 58.585938 71.027344 58.585938 70.9375 58.585938 C 70.804688 58.589844 70.804688 58.589844 70.664062 58.589844 C 70.445312 58.59375 70.222656 58.597656 70 58.601562 Z M 65.199219 59 C 65.199219 59.164062 65.199219 59.328125 65.199219 59.5 C 65.234375 59.5 65.265625 59.5 65.300781 59.5 C 65.300781 59.335938 65.300781 59.171875 65.300781 59 C 65.265625 59 65.234375 59 65.199219 59 Z M 66.898438 59 C 66.585938 59.339844 66.558594 59.585938 66.5625 60.042969 C 66.5625 60.15625 66.5625 60.265625 66.558594 60.382812 C 66.601562 60.726562 66.699219 60.917969 66.898438 61.199219 C 67 61.167969 67.097656 61.132812 67.199219 61.101562 C 67.132812 61.035156 67.066406 60.96875 67 60.898438 C 66.976562 60.648438 66.96875 60.410156 66.96875 60.15625 C 66.96875 60.089844 66.964844 60.019531 66.964844 59.949219 C 66.964844 59.449219 66.964844 59.449219 67.152344 59.203125 C 67.199219 59.167969 67.25 59.136719 67.300781 59.101562 C 67.167969 59.066406 67.035156 59.035156 66.898438 59 Z M 66.898438 59 "/>
<path style=" stroke:none;fill-rule:nonzero;fill:rgb(10.196079%,42.352942%,64.705884%);fill-opacity:1;" d="M 72.101562 32.300781 C 72.476562 32.335938 72.847656 32.34375 73.222656 32.355469 C 73.628906 32.402344 74 32.5 74.300781 32.800781 C 74.269531 33.394531 74.179688 33.738281 73.800781 34.199219 C 73.734375 34.199219 73.667969 34.199219 73.601562 34.199219 C 73.601562 34.265625 73.601562 34.332031 73.601562 34.398438 C 73.535156 34.398438 73.46875 34.398438 73.398438 34.398438 C 73.398438 34.464844 73.398438 34.53125 73.398438 34.601562 C 72.828125 35.074219 72.144531 35.394531 71.476562 35.707031 C 71.382812 35.75 71.289062 35.792969 71.195312 35.835938 C 70.320312 36.246094 69.441406 36.601562 68.515625 36.878906 C 68.007812 37.035156 67.503906 37.195312 67 37.367188 C 66.929688 37.390625 66.863281 37.410156 66.792969 37.4375 C 66.507812 37.53125 66.226562 37.625 65.945312 37.722656 C 65.101562 38.007812 64.257812 38.277344 63.398438 38.511719 C 63.121094 38.59375 62.863281 38.6875 62.601562 38.800781 C 62.601562 38.898438 62.601562 38.996094 62.601562 39.101562 C 62.5 39.132812 62.402344 39.164062 62.300781 39.199219 C 62.300781 39.265625 62.300781 39.332031 62.300781 39.398438 C 62.128906 39.554688 61.953125 39.707031 61.773438 39.851562 C 61.675781 39.929688 61.582031 40.007812 61.480469 40.089844 C 61.253906 40.257812 61.054688 40.386719 60.800781 40.5 C 60.800781 40.566406 60.800781 40.632812 60.800781 40.699219 C 60.734375 40.699219 60.667969 40.699219 60.601562 40.699219 C 60.566406 40.800781 60.535156 40.898438 60.5 41 C 60.328125 41.15625 60.152344 41.304688 59.96875 41.449219 C 59.871094 41.527344 59.777344 41.605469 59.675781 41.683594 C 59.585938 41.753906 59.492188 41.828125 59.398438 41.898438 C 59.332031 41.957031 59.265625 42.011719 59.195312 42.070312 C 58.964844 42.222656 58.773438 42.269531 58.5 42.320312 C 58.414062 42.335938 58.332031 42.351562 58.242188 42.367188 C 58 42.398438 58 42.398438 57.601562 42.398438 C 57.582031 41.875 57.640625 41.414062 57.75 40.90625 C 57.765625 40.835938 57.777344 40.769531 57.792969 40.699219 C 57.828125 40.53125 57.863281 40.367188 57.898438 40.199219 C 57.476562 40.304688 57.054688 40.410156 56.632812 40.519531 C 56.121094 40.648438 55.613281 40.773438 55.101562 40.898438 C 54.976562 40.929688 54.855469 40.960938 54.730469 40.992188 C 52.277344 41.5625 49.605469 41.542969 47.105469 41.324219 C 47.027344 41.320312 46.945312 41.3125 46.863281 41.304688 C 46.535156 41.269531 46.34375 41.242188 46.101562 41.003906 C 46 40.800781 46 40.800781 46 40.601562 C 45.933594 40.585938 45.871094 40.574219 45.800781 40.558594 C 43.515625 40.082031 43.515625 40.082031 42.472656 39.859375 C 42.214844 39.804688 41.957031 39.75 41.699219 39.699219 C 41.699219 39.632812 41.699219 39.566406 41.699219 39.5 C 42.421875 39.15625 43.042969 39.207031 43.808594 39.304688 C 44.496094 39.394531 45.175781 39.4375 45.867188 39.460938 C 45.972656 39.464844 46.074219 39.46875 46.179688 39.472656 C 46.417969 39.484375 46.660156 39.492188 46.898438 39.5 C 46.835938 39.316406 46.769531 39.132812 46.707031 38.953125 C 46.652344 38.796875 46.597656 38.640625 46.542969 38.484375 C 46.359375 37.960938 46.164062 37.445312 45.957031 36.929688 C 45.890625 36.65625 45.925781 36.46875 46 36.199219 C 46.273438 36.109375 46.417969 36.070312 46.699219 36.101562 C 47.066406 36.292969 47.394531 36.523438 47.699219 36.800781 C 47.699219 36.867188 47.699219 36.933594 47.699219 37 C 47.800781 37 47.898438 37 48 37 C 48 37.066406 48 37.132812 48 37.199219 C 48.070312 37.226562 48.144531 37.25 48.21875 37.273438 C 48.53125 37.414062 48.753906 37.585938 49.019531 37.804688 C 49.339844 38.082031 49.339844 38.082031 49.699219 38.300781 C 49.699219 38.367188 49.699219 38.433594 49.699219 38.5 C 50.144531 38.597656 50.425781 38.59375 50.855469 38.449219 C 50.960938 38.414062 51.0625 38.378906 51.171875 38.34375 C 51.28125 38.308594 51.386719 38.269531 51.5 38.230469 C 51.722656 38.15625 51.949219 38.082031 52.171875 38.007812 C 52.277344 37.972656 52.386719 37.9375 52.496094 37.898438 C 53.058594 37.714844 53.628906 37.554688 54.199219 37.398438 C 53.539062 36.867188 52.835938 36.617188 52.042969 36.351562 C 51.625 36.210938 51.214844 36.054688 50.804688 35.886719 C 50.742188 35.863281 50.679688 35.835938 50.617188 35.8125 C 50.445312 35.742188 50.273438 35.671875 50.101562 35.601562 C 49.9375 35.535156 49.773438 35.46875 49.613281 35.40625 C 49.3125 35.285156 49.015625 35.164062 48.71875 35.042969 C 47.933594 34.714844 47.144531 34.402344 46.347656 34.105469 C 45.855469 33.925781 45.378906 33.722656 44.898438 33.5 C 45 33.199219 45 33.199219 45.167969 33.09375 C 45.410156 32.988281 45.652344 32.882812 45.894531 32.78125 C 45.976562 32.746094 46.058594 32.707031 46.140625 32.667969 C 47.023438 32.296875 47.800781 32.347656 48.71875 32.554688 C 49.734375 32.773438 50.757812 32.957031 51.78125 33.136719 C 53.007812 33.355469 54.230469 33.578125 55.449219 33.820312 C 56.4375 34.011719 57.421875 34.203125 58.414062 34.363281 C 58.832031 34.429688 59.234375 34.503906 59.640625 34.621094 C 60.933594 34.976562 61.988281 34.558594 63.21875 34.128906 C 64.132812 33.816406 65.058594 33.546875 65.984375 33.273438 C 66.285156 33.183594 66.582031 33.09375 66.882812 33.003906 C 67.359375 32.863281 67.835938 32.722656 68.3125 32.585938 C 68.609375 32.496094 68.902344 32.40625 69.199219 32.316406 C 69.394531 32.257812 69.585938 32.203125 69.78125 32.144531 C 69.871094 32.117188 69.957031 32.089844 70.046875 32.0625 C 70.78125 31.851562 71.449219 31.867188 72.101562 32.300781 Z M 71.199219 32.398438 C 71.167969 32.464844 71.132812 32.53125 71.101562 32.601562 C 71.445312 32.550781 71.445312 32.550781 71.800781 32.5 C 71.800781 32.46875 71.800781 32.433594 71.800781 32.398438 C 71.601562 32.398438 71.402344 32.398438 71.199219 32.398438 Z M 68.601562 33.199219 C 68.566406 33.332031 68.535156 33.464844 68.5 33.601562 C 68.566406 33.566406 68.632812 33.535156 68.699219 33.5 C 68.667969 33.402344 68.632812 33.300781 68.601562 33.199219 Z M 67.601562 33.601562 C 67.566406 33.699219 67.535156 33.796875 67.5 33.898438 C 67.566406 33.898438 67.632812 33.898438 67.699219 33.898438 C 67.667969 33.800781 67.632812 33.703125 67.601562 33.601562 Z M 66.601562 33.898438 C 66.699219 34.199219 66.699219 34.199219 66.699219 34.199219 Z M 65.601562 34.199219 C 65.699219 34.5 65.699219 34.5 65.699219 34.5 Z M 64.699219 34.5 C 64.667969 34.632812 64.632812 34.765625 64.601562 34.898438 C 64.664062 34.867188 64.730469 34.835938 64.800781 34.800781 C 64.765625 34.699219 64.734375 34.601562 64.699219 34.5 Z M 63.601562 34.898438 C 63.601562 35 63.601562 35.097656 63.601562 35.199219 C 63.664062 35.199219 63.730469 35.199219 63.800781 35.199219 C 63.800781 35.101562 63.800781 35.003906 63.800781 34.898438 C 63.734375 34.898438 63.667969 34.898438 63.601562 34.898438 Z M 63.601562 34.898438 "/>
<path style=" stroke:none;fill-rule:nonzero;fill:rgb(10.196079%,41.960785%,64.705884%);fill-opacity:1;" d="M 49.003906 13.585938 C 49.257812 13.585938 49.511719 13.585938 49.765625 13.585938 C 51.1875 13.585938 52.566406 13.667969 53.96875 13.925781 C 54.089844 13.945312 54.210938 13.96875 54.335938 13.992188 C 57.136719 14.515625 59.808594 15.414062 62.300781 16.800781 C 62.488281 16.898438 62.675781 17 62.863281 17.101562 C 63.386719 17.386719 63.898438 17.699219 64.40625 18.015625 C 64.597656 18.136719 64.792969 18.25 64.988281 18.359375 C 65.058594 18.40625 65.128906 18.453125 65.199219 18.5 C 65.199219 18.566406 65.199219 18.632812 65.199219 18.699219 C 65.273438 18.726562 65.347656 18.753906 65.421875 18.777344 C 65.914062 18.992188 66.292969 19.359375 66.699219 19.699219 C 66.800781 19.785156 66.902344 19.867188 67.007812 19.953125 C 67.746094 20.5625 68.429688 21.210938 69.105469 21.886719 C 69.1875 21.96875 69.269531 22.050781 69.351562 22.132812 C 70.5 23.292969 70.5 23.292969 70.5 23.601562 C 70.566406 23.601562 70.632812 23.601562 70.699219 23.601562 C 70.894531 23.835938 71.082031 24.078125 71.261719 24.324219 C 71.34375 24.433594 71.34375 24.433594 71.425781 24.546875 C 71.871094 25.152344 72.296875 25.765625 72.699219 26.398438 C 72.765625 26.5 72.828125 26.601562 72.894531 26.703125 C 73.667969 27.933594 74.347656 29.195312 74.867188 30.550781 C 74.988281 30.871094 75.121094 31.1875 75.257812 31.5 C 76.570312 34.648438 77.015625 38.050781 77.019531 41.4375 C 77.019531 41.515625 77.019531 41.589844 77.019531 41.667969 C 77.019531 42.988281 76.996094 44.316406 76.761719 45.617188 C 76.75 45.695312 76.738281 45.769531 76.722656 45.84375 C 76.613281 46.472656 76.46875 47.085938 76.300781 47.699219 C 76.136719 47.699219 75.96875 47.699219 75.800781 47.699219 C 75.785156 47.25 75.820312 46.84375 75.902344 46.394531 C 76.914062 40.804688 75.78125 34.902344 73.199219 29.898438 C 73.167969 29.835938 73.132812 29.769531 73.097656 29.699219 C 72.671875 28.875 72.21875 28.074219 71.699219 27.300781 C 71.644531 27.214844 71.585938 27.132812 71.527344 27.046875 C 71.160156 26.507812 70.765625 26.003906 70.351562 25.503906 C 70.199219 25.300781 70.199219 25.300781 70.199219 25.101562 C 70.132812 25.101562 70.066406 25.101562 70 25.101562 C 69.878906 24.957031 69.761719 24.8125 69.648438 24.664062 C 69.1875 24.082031 68.679688 23.558594 68.15625 23.039062 C 68.074219 22.957031 67.996094 22.875 67.914062 22.792969 C 67.539062 22.402344 67.539062 22.402344 67.101562 22.101562 C 67.101562 22.035156 67.101562 21.96875 67.101562 21.898438 C 67.039062 21.871094 66.980469 21.84375 66.917969 21.8125 C 66.699219 21.699219 66.699219 21.699219 66.398438 21.5 C 66.398438 21.433594 66.398438 21.367188 66.398438 21.300781 C 66.316406 21.261719 66.316406 21.261719 66.230469 21.21875 C 65.980469 21.089844 65.734375 20.957031 65.5 20.800781 C 65.5 20.734375 65.5 20.667969 65.5 20.601562 C 65.445312 20.574219 65.386719 20.546875 65.332031 20.519531 C 65.082031 20.390625 64.847656 20.246094 64.613281 20.089844 C 64.515625 20.03125 64.421875 19.972656 64.328125 19.910156 C 64.132812 19.785156 63.9375 19.65625 63.742188 19.53125 C 57.742188 15.683594 50.347656 14.351562 43.371094 15.855469 C 39.75 16.695312 36.359375 18.230469 33.355469 20.414062 C 33.25 20.488281 33.25 20.488281 33.144531 20.566406 C 33.082031 20.609375 33.023438 20.65625 32.957031 20.703125 C 32.800781 20.800781 32.800781 20.800781 32.601562 20.800781 C 32.601562 20.867188 32.601562 20.933594 32.601562 21 C 32.375 21.1875 32.152344 21.367188 31.917969 21.542969 C 31.789062 21.640625 31.664062 21.738281 31.535156 21.835938 C 31.449219 21.902344 31.449219 21.902344 31.363281 21.96875 C 31.195312 22.097656 31.195312 22.097656 31.042969 22.265625 C 30.898438 22.398438 30.898438 22.398438 30.699219 22.398438 C 30.699219 22.464844 30.699219 22.53125 30.699219 22.601562 C 30.632812 22.601562 30.566406 22.601562 30.5 22.601562 C 30.472656 22.664062 30.445312 22.726562 30.417969 22.792969 C 30.300781 23 30.300781 23 30 23.101562 C 30 23.164062 30 23.230469 30 23.300781 C 29.933594 23.300781 29.867188 23.300781 29.800781 23.300781 C 29.800781 23.367188 29.800781 23.433594 29.800781 23.5 C 29.734375 23.5 29.667969 23.5 29.601562 23.5 C 29.578125 23.554688 29.554688 23.605469 29.53125 23.664062 C 29.355469 23.984375 29.144531 24.230469 28.898438 24.5 C 28.835938 24.5 28.769531 24.5 28.699219 24.5 C 28.675781 24.550781 28.65625 24.601562 28.632812 24.65625 C 28.453125 24.988281 28.25 25.316406 28 25.601562 C 27.933594 25.601562 27.867188 25.601562 27.800781 25.601562 C 27.773438 25.65625 27.746094 25.710938 27.71875 25.769531 C 27.589844 26.019531 27.457031 26.265625 27.300781 26.5 C 27.234375 26.5 27.167969 26.5 27.101562 26.5 C 27.074219 26.570312 27.050781 26.636719 27.023438 26.707031 C 26.878906 27.050781 26.695312 27.363281 26.5 27.679688 C 26.464844 27.742188 26.429688 27.800781 26.390625 27.863281 C 26.300781 28.011719 26.199219 28.15625 26.101562 28.300781 C 26.035156 28.300781 25.96875 28.300781 25.898438 28.300781 C 25.890625 28.355469 25.878906 28.410156 25.867188 28.46875 C 25.789062 28.742188 25.671875 28.972656 25.542969 29.226562 C 25.488281 29.332031 25.4375 29.4375 25.378906 29.546875 C 25.289062 29.726562 25.195312 29.90625 25.105469 30.085938 C 24.207031 31.832031 23.574219 33.546875 23.070312 35.449219 C 23.019531 35.636719 22.957031 35.820312 22.894531 36.003906 C 21.738281 39.675781 22.046875 43.972656 22.699219 47.699219 C 22.503906 47.699219 22.304688 47.699219 22.101562 47.699219 C 21.765625 46.617188 21.65625 45.496094 21.53125 44.375 C 21.511719 44.210938 21.492188 44.046875 21.46875 43.886719 C 21.363281 43.101562 21.378906 42.3125 21.382812 41.523438 C 21.382812 41.410156 21.382812 41.410156 21.382812 41.289062 C 21.382812 40.050781 21.425781 38.828125 21.601562 37.601562 C 21.613281 37.496094 21.613281 37.496094 21.628906 37.390625 C 22.214844 33.339844 23.699219 29.386719 26 26 C 26.046875 25.933594 26.089844 25.867188 26.136719 25.796875 C 26.765625 24.871094 27.429688 24.003906 28.171875 23.164062 C 28.398438 22.925781 28.398438 22.925781 28.5 22.699219 C 28.566406 22.699219 28.632812 22.699219 28.699219 22.699219 C 28.738281 22.609375 28.738281 22.609375 28.78125 22.519531 C 28.898438 22.300781 29.007812 22.160156 29.199219 22 C 29.265625 22 29.332031 22 29.398438 22 C 29.441406 21.910156 29.441406 21.910156 29.480469 21.820312 C 29.601562 21.601562 29.710938 21.457031 29.898438 21.300781 C 29.964844 21.300781 30.03125 21.300781 30.101562 21.300781 C 30.125 21.242188 30.148438 21.183594 30.171875 21.125 C 30.328125 20.851562 30.511719 20.683594 30.75 20.476562 C 30.828125 20.40625 30.910156 20.332031 30.992188 20.261719 C 31.199219 20.101562 31.199219 20.101562 31.398438 20.101562 C 31.398438 20.035156 31.398438 19.96875 31.398438 19.898438 C 31.5 19.898438 31.597656 19.898438 31.699219 19.898438 C 31.699219 19.835938 31.699219 19.769531 31.699219 19.699219 C 31.878906 19.542969 32.054688 19.398438 32.242188 19.257812 C 32.300781 19.210938 32.359375 19.167969 32.417969 19.125 C 33.152344 18.574219 33.921875 18.085938 34.699219 17.601562 C 34.765625 17.558594 34.832031 17.519531 34.898438 17.476562 C 36.160156 16.683594 37.46875 16.078125 38.855469 15.535156 C 39.089844 15.441406 39.324219 15.347656 39.554688 15.246094 C 42.515625 13.988281 45.8125 13.578125 49.003906 13.585938 Z M 49.003906 13.585938 "/>
<path style=" stroke:none;fill-rule:nonzero;fill:rgb(32.156864%,32.156864%,32.156864%);fill-opacity:1;" d="M 40.753906 43.003906 C 40.90625 43.003906 41.058594 43.003906 41.207031 43.003906 C 41.617188 43 42.023438 43.003906 42.429688 43.007812 C 42.855469 43.011719 43.28125 43.011719 43.710938 43.011719 C 44.425781 43.011719 45.140625 43.015625 45.855469 43.023438 C 46.683594 43.03125 47.507812 43.03125 48.335938 43.035156 C 49.21875 43.035156 50.101562 43.039062 50.984375 43.042969 C 51.238281 43.042969 51.492188 43.042969 51.746094 43.042969 C 52.144531 43.042969 52.542969 43.046875 52.941406 43.050781 C 53.085938 43.050781 53.230469 43.054688 53.378906 43.054688 C 53.578125 43.054688 53.777344 43.054688 53.976562 43.058594 C 54.144531 43.058594 54.144531 43.058594 54.3125 43.0625 C 54.636719 43.105469 54.773438 43.171875 55 43.398438 C 55.109375 43.722656 55.113281 43.957031 55.109375 44.296875 C 55.109375 44.414062 55.109375 44.53125 55.109375 44.652344 C 55.109375 44.773438 55.105469 44.894531 55.105469 45.019531 C 55.105469 45.140625 55.105469 45.265625 55.105469 45.390625 C 55.105469 45.695312 55.101562 45.996094 55.101562 46.300781 C 54.414062 46.210938 54.414062 46.210938 54.300781 46.101562 C 54.285156 45.945312 54.273438 45.789062 54.269531 45.632812 C 54.265625 45.535156 54.261719 45.441406 54.253906 45.34375 C 54.25 45.246094 54.246094 45.144531 54.242188 45.042969 C 54.238281 44.945312 54.234375 44.84375 54.230469 44.742188 C 54.21875 44.496094 54.210938 44.246094 54.199219 44 C 52.375 43.996094 50.550781 43.996094 48.730469 43.996094 C 47.882812 43.996094 47.035156 43.992188 46.1875 43.992188 C 45.453125 43.992188 44.714844 43.992188 43.976562 43.992188 C 43.585938 43.992188 43.195312 43.988281 42.804688 43.988281 C 42.4375 43.988281 42.070312 43.988281 41.699219 43.988281 C 41.5 43.988281 41.300781 43.988281 41.101562 43.988281 C 40.984375 43.988281 40.863281 43.988281 40.742188 43.988281 C 40.589844 43.988281 40.589844 43.988281 40.429688 43.988281 C 40.203125 43.972656 40.203125 43.972656 40.101562 44.101562 C 40.085938 44.335938 40.074219 44.570312 40.066406 44.808594 C 40.066406 44.917969 40.066406 44.917969 40.0625 45.023438 C 40.054688 45.25 40.050781 45.480469 40.042969 45.707031 C 40.039062 45.859375 40.035156 46.015625 40.03125 46.167969 C 40.019531 46.542969 40.011719 46.921875 40 47.300781 C 39.875 47.324219 39.746094 47.347656 39.617188 47.371094 C 38.539062 47.570312 37.46875 47.789062 36.402344 48.050781 C 36.269531 48.082031 36.269531 48.082031 36.136719 48.113281 C 36.058594 48.132812 35.980469 48.152344 35.902344 48.171875 C 35.699219 48.199219 35.699219 48.199219 35.398438 48.101562 C 35.398438 48.035156 35.398438 47.96875 35.398438 47.898438 C 34.976562 47.910156 34.554688 47.925781 34.128906 47.9375 C 33.984375 47.941406 33.839844 47.945312 33.695312 47.949219 C 33.488281 47.957031 33.28125 47.960938 33.074219 47.96875 C 32.890625 47.972656 32.890625 47.972656 32.699219 47.980469 C 32.40625 47.980469 32.40625 47.980469 32.199219 48.101562 C 32.167969 48.320312 32.160156 48.535156 32.152344 48.757812 C 32.101562 49 32.101562 49 31.929688 49.210938 C 31.589844 49.636719 31.398438 50.125 31.175781 50.617188 C 30.667969 51.703125 30.179688 52.691406 29.101562 53.300781 C 28.933594 53.300781 28.769531 53.300781 28.601562 53.300781 C 28.601562 52.839844 28.601562 52.375 28.601562 51.898438 C 28.253906 51.914062 27.902344 51.929688 27.554688 51.945312 C 27.457031 51.949219 27.359375 51.953125 27.253906 51.957031 C 27.160156 51.960938 27.066406 51.964844 26.96875 51.96875 C 26.882812 51.972656 26.792969 51.976562 26.703125 51.980469 C 26.5 51.976562 26.5 51.976562 26.398438 52.101562 C 26.382812 52.261719 26.375 52.425781 26.367188 52.589844 C 26.363281 52.738281 26.363281 52.738281 26.355469 52.890625 C 26.351562 52.996094 26.347656 53.097656 26.34375 53.207031 C 26.335938 53.363281 26.335938 53.363281 26.332031 53.523438 C 26.320312 53.78125 26.308594 54.039062 26.300781 54.300781 C 25.902344 54.46875 25.5 54.632812 25.101562 54.800781 C 25.035156 54.828125 24.972656 54.851562 24.910156 54.878906 C 24.714844 54.960938 24.519531 55.039062 24.324219 55.117188 C 24.144531 55.191406 24.144531 55.191406 23.964844 55.265625 C 23.578125 55.40625 23.199219 55.507812 22.800781 55.601562 C 22.78125 55.195312 22.773438 54.789062 22.761719 54.382812 C 22.753906 54.207031 22.753906 54.207031 22.746094 54.03125 C 22.734375 53.199219 22.734375 53.199219 22.921875 52.917969 C 23.078125 52.789062 23.078125 52.789062 23.398438 52.601562 C 23.464844 52.546875 23.53125 52.496094 23.601562 52.441406 C 24.066406 52.101562 24.066406 52.101562 24.398438 52.101562 C 24.398438 52.035156 24.398438 51.96875 24.398438 51.898438 C 25.269531 51.183594 26.089844 51.109375 27.175781 51.15625 C 27.3125 51.160156 27.453125 51.164062 27.59375 51.164062 C 27.929688 51.175781 28.265625 51.183594 28.601562 51.199219 C 28.597656 51.140625 28.59375 51.085938 28.59375 51.023438 C 28.582031 50.761719 28.574219 50.496094 28.570312 50.230469 C 28.566406 50.140625 28.558594 50.050781 28.554688 49.953125 C 28.542969 49.273438 28.542969 49.273438 28.816406 48.910156 C 29.09375 48.703125 29.371094 48.5 29.664062 48.3125 C 29.757812 48.25 29.851562 48.1875 29.949219 48.125 C 30.003906 48.09375 30.058594 48.058594 30.113281 48.023438 C 30.308594 47.898438 30.308594 47.898438 30.511719 47.71875 C 31.421875 47.011719 32.371094 47.121094 33.46875 47.15625 C 33.65625 47.160156 33.84375 47.164062 34.03125 47.164062 C 34.488281 47.171875 34.945312 47.183594 35.398438 47.199219 C 35.398438 47.101562 35.398438 47.007812 35.394531 46.90625 C 35.394531 46.777344 35.394531 46.652344 35.390625 46.523438 C 35.390625 46.394531 35.386719 46.269531 35.386719 46.140625 C 35.402344 45.695312 35.476562 45.507812 35.800781 45.199219 C 36.035156 45.039062 36.273438 44.894531 36.523438 44.757812 C 36.800781 44.601562 37.066406 44.433594 37.332031 44.261719 C 37.417969 44.207031 37.503906 44.152344 37.59375 44.097656 C 37.796875 43.96875 37.992188 43.832031 38.183594 43.691406 C 39.035156 43.105469 39.710938 42.984375 40.753906 43.003906 Z M 40.753906 43.003906 "/>
<path style=" stroke:none;fill-rule:nonzero;fill:rgb(10.980392%,21.568628%,39.215687%);fill-opacity:1;" d="M 14.5 65.300781 C 15.425781 65.300781 16.347656 65.300781 17.300781 65.300781 C 17.636719 66.3125 17.636719 66.3125 17.761719 66.789062 C 17.785156 66.890625 17.8125 66.992188 17.839844 67.097656 C 17.867188 67.199219 17.890625 67.300781 17.917969 67.40625 C 17.960938 67.566406 17.960938 67.566406 18 67.726562 C 18.066406 67.984375 18.132812 68.242188 18.199219 68.5 C 18.230469 68.386719 18.230469 68.386719 18.261719 68.269531 C 18.351562 67.925781 18.445312 67.582031 18.539062 67.238281 C 18.585938 67.058594 18.585938 67.058594 18.632812 66.875 C 18.664062 66.761719 18.695312 66.644531 18.726562 66.527344 C 18.753906 66.421875 18.785156 66.316406 18.8125 66.207031 C 18.898438 65.902344 19 65.601562 19.101562 65.300781 C 19.992188 65.300781 20.882812 65.300781 21.800781 65.300781 C 21.800781 67.347656 21.800781 69.390625 21.800781 71.5 C 21.140625 71.5 20.480469 71.5 19.800781 71.5 C 19.765625 70.574219 19.734375 69.652344 19.699219 68.699219 C 19.472656 69.546875 19.472656 69.546875 19.25 70.394531 C 19.21875 70.5 19.191406 70.601562 19.164062 70.710938 C 19.132812 70.820312 19.105469 70.925781 19.074219 71.039062 C 19 71.300781 19 71.300781 18.898438 71.5 C 18.371094 71.5 17.84375 71.5 17.300781 71.5 C 17.046875 70.859375 16.859375 70.214844 16.679688 69.550781 C 16.589844 69.203125 16.496094 68.855469 16.398438 68.5 C 16.398438 69.488281 16.398438 70.480469 16.398438 71.5 C 15.773438 71.5 15.144531 71.5 14.5 71.5 C 14.5 69.453125 14.5 67.40625 14.5 65.300781 Z M 19.800781 68 C 19.898438 68.398438 19.898438 68.398438 19.898438 68.398438 Z M 19.800781 68 "/>
<path style=" stroke:none;fill-rule:nonzero;fill:rgb(10.980392%,21.568628%,39.215687%);fill-opacity:1;" d="M 55.300781 65.300781 C 57.101562 65.300781 57.101562 65.300781 57.707031 65.882812 C 57.855469 66.074219 57.855469 66.074219 57.960938 66.238281 C 58.1875 66.582031 58.433594 66.890625 58.699219 67.207031 C 58.941406 67.5 59.171875 67.796875 59.398438 68.101562 C 59.433594 67.175781 59.464844 66.253906 59.5 65.300781 C 60.128906 65.300781 60.753906 65.300781 61.398438 65.300781 C 61.398438 67.347656 61.398438 69.390625 61.398438 71.5 C 59.5 71.5 59.5 71.5 59.066406 71.214844 C 58.921875 71.027344 58.921875 71.027344 58.792969 70.824219 C 58.742188 70.757812 58.695312 70.691406 58.640625 70.621094 C 58.539062 70.484375 58.441406 70.34375 58.34375 70.203125 C 58.164062 69.949219 57.96875 69.714844 57.765625 69.476562 C 57.574219 69.253906 57.386719 69.027344 57.199219 68.800781 C 57.167969 69.691406 57.132812 70.582031 57.101562 71.5 C 56.507812 71.5 55.910156 71.5 55.300781 71.5 C 55.300781 69.453125 55.300781 67.40625 55.300781 65.300781 Z M 55.300781 65.300781 "/>
<path style=" stroke:none;fill-rule:nonzero;fill:rgb(10.980392%,21.568628%,39.215687%);fill-opacity:1;" d="M 75.925781 65.273438 C 76.003906 65.273438 76.085938 65.269531 76.171875 65.269531 C 76.992188 65.261719 77.851562 65.457031 78.453125 66.050781 C 79.1875 66.851562 79.332031 67.699219 79.320312 68.765625 C 79.257812 69.761719 78.859375 70.429688 78.175781 71.132812 C 77.144531 71.761719 75.847656 71.714844 74.683594 71.554688 C 73.996094 71.386719 73.449219 70.988281 73.066406 70.390625 C 72.566406 69.433594 72.546875 68.222656 72.769531 67.175781 C 73.0625 66.386719 73.535156 65.832031 74.296875 65.472656 C 74.832031 65.28125 75.363281 65.277344 75.925781 65.273438 Z M 74.917969 67.292969 C 74.605469 67.835938 74.617188 68.535156 74.753906 69.132812 C 74.851562 69.421875 74.96875 69.660156 75.164062 69.894531 C 75.53125 70.058594 75.894531 70.113281 76.300781 70.101562 C 76.675781 69.945312 76.886719 69.742188 77.101562 69.398438 C 77.214844 69.054688 77.21875 68.777344 77.226562 68.414062 C 77.226562 68.292969 77.230469 68.167969 77.234375 68.042969 C 77.199219 67.671875 77.121094 67.496094 76.898438 67.199219 C 76.597656 66.949219 76.390625 66.8125 76 66.757812 C 75.554688 66.820312 75.230469 66.960938 74.917969 67.292969 Z M 74.917969 67.292969 "/>
<path style=" stroke:none;fill-rule:nonzero;fill:rgb(10.980392%,21.568628%,39.215687%);fill-opacity:1;" d="M 85.144531 65.917969 C 85.480469 66.3125 85.601562 66.789062 85.601562 67.300781 C 85.289062 67.316406 84.980469 67.324219 84.667969 67.332031 C 84.582031 67.335938 84.492188 67.339844 84.402344 67.34375 C 84.15625 67.347656 83.9375 67.347656 83.699219 67.300781 C 83.523438 67.050781 83.523438 67.050781 83.398438 66.800781 C 83.148438 66.738281 83.148438 66.738281 82.882812 66.769531 C 82.792969 66.773438 82.699219 66.777344 82.609375 66.78125 C 82.539062 66.789062 82.472656 66.792969 82.398438 66.800781 C 82.367188 66.933594 82.335938 67.0625 82.300781 67.199219 C 82.367188 67.21875 82.4375 67.234375 82.507812 67.253906 C 82.824219 67.339844 83.136719 67.425781 83.449219 67.511719 C 83.558594 67.539062 83.664062 67.570312 83.777344 67.597656 C 84.484375 67.796875 85.222656 68.03125 85.617188 68.699219 C 85.824219 69.210938 85.789062 69.902344 85.632812 70.421875 C 85.355469 70.964844 84.882812 71.277344 84.339844 71.511719 C 83.882812 71.628906 83.449219 71.632812 82.976562 71.632812 C 82.886719 71.632812 82.796875 71.632812 82.703125 71.636719 C 81.953125 71.636719 81.171875 71.539062 80.554688 71.074219 C 80.046875 70.53125 80 70.144531 80 69.398438 C 80.628906 69.398438 81.253906 69.398438 81.898438 69.398438 C 82 69.597656 82.097656 69.796875 82.199219 70 C 82.660156 70.128906 83.039062 70.101562 83.5 70 C 83.5 69.867188 83.5 69.734375 83.5 69.601562 C 83.441406 69.585938 83.382812 69.570312 83.324219 69.554688 C 80.789062 68.894531 80.789062 68.894531 80.1875 68.132812 C 80.011719 67.472656 80.003906 66.820312 80.300781 66.199219 C 80.746094 65.644531 81.320312 65.398438 81.992188 65.226562 C 83.101562 65.132812 84.25 65.175781 85.144531 65.917969 Z M 85.144531 65.917969 "/>
<path style=" stroke:none;fill-rule:nonzero;fill:rgb(10.980392%,21.568628%,39.215687%);fill-opacity:1;" d="M 22.898438 65.398438 C 23.59375 65.398438 24.285156 65.398438 25 65.398438 C 25.003906 65.691406 25.003906 65.984375 25.007812 66.28125 C 25.011719 66.566406 25.015625 66.847656 25.019531 67.128906 C 25.023438 67.324219 25.027344 67.523438 25.027344 67.71875 C 25.027344 68 25.035156 68.28125 25.039062 68.5625 C 25.039062 68.652344 25.039062 68.738281 25.039062 68.828125 C 25.046875 69.328125 25.046875 69.328125 25.292969 69.753906 C 25.648438 70.003906 25.863281 70.027344 26.300781 70 C 26.5625 69.914062 26.667969 69.855469 26.808594 69.617188 C 26.902344 69.390625 26.925781 69.234375 26.933594 68.988281 C 26.933594 68.90625 26.9375 68.828125 26.9375 68.746094 C 26.9375 68.660156 26.941406 68.574219 26.941406 68.484375 C 26.941406 68.398438 26.945312 68.308594 26.949219 68.21875 C 26.953125 67.9375 26.957031 67.65625 26.960938 67.375 C 26.964844 67.183594 26.96875 66.992188 26.972656 66.800781 C 26.984375 66.335938 26.992188 65.867188 27 65.398438 C 27.691406 65.398438 28.386719 65.398438 29.101562 65.398438 C 29.105469 65.9375 29.109375 66.476562 29.109375 67.015625 C 29.113281 67.199219 29.113281 67.382812 29.113281 67.566406 C 29.117188 67.832031 29.117188 68.09375 29.121094 68.359375 C 29.121094 68.441406 29.121094 68.519531 29.121094 68.601562 C 29.121094 69.410156 29.035156 70.164062 28.5 70.800781 C 27.535156 71.679688 26.472656 71.675781 25.230469 71.621094 C 24.464844 71.554688 23.796875 71.179688 23.300781 70.601562 C 22.914062 69.878906 22.886719 69.183594 22.890625 68.386719 C 22.890625 68.300781 22.890625 68.21875 22.890625 68.128906 C 22.890625 67.855469 22.890625 67.585938 22.894531 67.3125 C 22.894531 67.128906 22.894531 66.941406 22.894531 66.757812 C 22.894531 66.304688 22.898438 65.851562 22.898438 65.398438 Z M 22.898438 65.398438 "/>
<path style=" stroke:none;fill-rule:nonzero;fill:rgb(10.980392%,21.568628%,39.215687%);fill-opacity:1;" d="M 48.898438 65.398438 C 50.648438 65.398438 52.398438 65.398438 54.199219 65.398438 C 54.199219 65.894531 54.199219 66.390625 54.199219 66.898438 C 53.109375 66.898438 52.023438 66.898438 50.898438 66.898438 C 50.898438 67.164062 50.898438 67.429688 50.898438 67.699219 C 51.824219 67.699219 52.746094 67.699219 53.699219 67.699219 C 53.699219 68.160156 53.699219 68.625 53.699219 69.101562 C 52.777344 69.101562 51.851562 69.101562 50.898438 69.101562 C 50.898438 69.398438 50.898438 69.695312 50.898438 70 C 52.023438 70 53.144531 70 54.300781 70 C 54.300781 70.496094 54.300781 70.988281 54.300781 71.5 C 52.519531 71.5 50.734375 71.5 48.898438 71.5 C 48.898438 69.488281 48.898438 67.472656 48.898438 65.398438 Z M 48.898438 65.398438 "/>
<path style=" stroke:none;fill-rule:nonzero;fill:rgb(10.196079%,42.352942%,65.098041%);fill-opacity:1;" d="M 28 75.398438 C 28.757812 75.398438 29.519531 75.398438 30.300781 75.398438 C 30.59375 76.492188 30.59375 76.492188 30.6875 76.839844 C 30.710938 76.929688 30.734375 77.015625 30.757812 77.109375 C 30.785156 77.199219 30.808594 77.292969 30.832031 77.386719 C 30.878906 77.597656 30.878906 77.597656 31 77.699219 C 31.296875 76.5625 31.296875 76.5625 31.601562 75.398438 C 32.324219 75.398438 33.050781 75.398438 33.800781 75.398438 C 33.800781 77.015625 33.800781 78.632812 33.800781 80.300781 C 33.273438 80.300781 32.742188 80.300781 32.199219 80.300781 C 32.167969 79.640625 32.132812 78.980469 32.101562 78.300781 C 31.941406 78.921875 31.941406 78.921875 31.78125 79.542969 C 31.761719 79.617188 31.738281 79.695312 31.71875 79.773438 C 31.699219 79.855469 31.679688 79.933594 31.65625 80.015625 C 31.601562 80.199219 31.601562 80.199219 31.5 80.300781 C 31.066406 80.3125 30.632812 80.304688 30.199219 80.300781 C 30.003906 79.605469 29.804688 78.914062 29.601562 78.199219 C 29.566406 78.894531 29.535156 79.585938 29.5 80.300781 C 29.003906 80.300781 28.511719 80.300781 28 80.300781 C 28 78.683594 28 77.066406 28 75.398438 Z M 28 75.398438 "/>
<path style=" stroke:none;fill-rule:nonzero;fill:rgb(10.980392%,21.568628%,39.215687%);fill-opacity:1;" d="M 62.101562 65.398438 C 62.824219 65.398438 63.550781 65.398438 64.300781 65.398438 C 64.425781 65.792969 64.554688 66.1875 64.679688 66.582031 C 64.71875 66.691406 64.753906 66.800781 64.789062 66.914062 C 64.988281 67.539062 65.175781 68.160156 65.339844 68.796875 C 65.382812 68.996094 65.382812 68.996094 65.5 69.101562 C 66.042969 67.269531 66.042969 67.269531 66.601562 65.398438 C 67.292969 65.398438 67.984375 65.398438 68.699219 65.398438 C 68.476562 66.414062 68.476562 66.414062 68.3125 66.867188 C 68.277344 66.96875 68.242188 67.070312 68.207031 67.175781 C 68.148438 67.335938 68.148438 67.335938 68.089844 67.5 C 68.050781 67.613281 68.011719 67.722656 67.972656 67.839844 C 67.886719 68.074219 67.804688 68.308594 67.722656 68.542969 C 67.59375 68.902344 67.464844 69.261719 67.339844 69.621094 C 67.257812 69.851562 67.175781 70.078125 67.097656 70.304688 C 67.058594 70.414062 67.019531 70.523438 66.980469 70.632812 C 66.945312 70.734375 66.910156 70.832031 66.875 70.933594 C 66.84375 71.023438 66.8125 71.109375 66.777344 71.199219 C 66.699219 71.398438 66.699219 71.398438 66.601562 71.5 C 66.421875 71.507812 66.242188 71.511719 66.066406 71.507812 C 65.957031 71.507812 65.847656 71.507812 65.738281 71.507812 C 65.625 71.507812 65.511719 71.507812 65.394531 71.507812 C 65.28125 71.503906 65.164062 71.503906 65.046875 71.503906 C 64.765625 71.503906 64.484375 71.503906 64.199219 71.5 C 63.957031 70.808594 63.710938 70.117188 63.46875 69.425781 C 63.355469 69.101562 63.242188 68.78125 63.125 68.460938 C 62.996094 68.089844 62.867188 67.71875 62.734375 67.351562 C 62.695312 67.234375 62.652344 67.121094 62.613281 67.003906 C 62.574219 66.894531 62.535156 66.785156 62.496094 66.675781 C 62.464844 66.582031 62.429688 66.488281 62.394531 66.390625 C 62.289062 66.0625 62.195312 65.730469 62.101562 65.398438 Z M 62.101562 65.398438 "/>
<path style=" stroke:none;fill-rule:nonzero;fill:rgb(10.980392%,21.568628%,39.215687%);fill-opacity:1;" d="M 35.699219 65.300781 C 37.679688 65.300781 39.660156 65.300781 41.699219 65.300781 C 41.699219 65.828125 41.699219 66.355469 41.699219 66.898438 C 41.039062 66.898438 40.378906 66.898438 39.699219 66.898438 C 39.699219 68.417969 39.699219 69.9375 39.699219 71.5 C 39.039062 71.5 38.378906 71.5 37.699219 71.5 C 37.699219 69.980469 37.699219 68.464844 37.699219 66.898438 C 37.039062 66.898438 36.378906 66.898438 35.699219 66.898438 C 35.699219 66.371094 35.699219 65.84375 35.699219 65.300781 Z M 35.699219 65.300781 "/>
<path style=" stroke:none;fill-rule:nonzero;fill:rgb(10.196079%,42.352942%,65.098041%);fill-opacity:1;" d="M 61.5 75.398438 C 62.082031 75.394531 62.667969 75.386719 63.269531 75.382812 C 63.542969 75.378906 63.542969 75.378906 63.824219 75.371094 C 63.972656 75.371094 64.117188 75.371094 64.265625 75.371094 C 64.339844 75.371094 64.414062 75.367188 64.492188 75.367188 C 64.949219 75.367188 65.238281 75.417969 65.601562 75.699219 C 66.039062 76.199219 66.136719 76.492188 66.128906 77.144531 C 66.085938 77.515625 65.941406 77.722656 65.699219 78 C 65.566406 78.101562 65.433594 78.203125 65.300781 78.300781 C 65.328125 78.351562 65.355469 78.398438 65.382812 78.453125 C 65.503906 78.675781 65.628906 78.90625 65.75 79.132812 C 65.792969 79.210938 65.835938 79.289062 65.878906 79.371094 C 65.921875 79.445312 65.960938 79.519531 66.003906 79.597656 C 66.058594 79.703125 66.058594 79.703125 66.117188 79.808594 C 66.199219 80 66.199219 80 66.199219 80.300781 C 65.605469 80.300781 65.011719 80.300781 64.398438 80.300781 C 64.269531 80.039062 64.136719 79.78125 64 79.511719 C 63.957031 79.429688 63.917969 79.347656 63.875 79.265625 C 63.824219 79.167969 63.824219 79.167969 63.773438 79.070312 C 63.742188 79.003906 63.707031 78.9375 63.671875 78.871094 C 63.601562 78.699219 63.601562 78.699219 63.601562 78.5 C 63.433594 78.5 63.269531 78.5 63.101562 78.5 C 63.101562 79.09375 63.101562 79.6875 63.101562 80.300781 C 62.570312 80.300781 62.042969 80.300781 61.5 80.300781 C 61.5 78.683594 61.5 77.066406 61.5 75.398438 Z M 63.101562 76.5 C 63.101562 76.796875 63.101562 77.09375 63.101562 77.398438 C 63.472656 77.429688 63.832031 77.445312 64.199219 77.398438 C 64.429688 77.167969 64.429688 77.167969 64.5 76.898438 C 64.363281 76.679688 64.363281 76.679688 64.101562 76.5 C 63.765625 76.464844 63.4375 76.476562 63.101562 76.5 Z M 63.101562 76.5 "/>
<path style=" stroke:none;fill-rule:nonzero;fill:rgb(10.196079%,42.352942%,64.705884%);fill-opacity:1;" d="M 55.601562 75.398438 C 56.449219 75.390625 56.449219 75.390625 57.3125 75.382812 C 57.488281 75.378906 57.667969 75.375 57.851562 75.371094 C 57.992188 75.371094 58.132812 75.371094 58.277344 75.371094 C 58.347656 75.371094 58.421875 75.367188 58.496094 75.367188 C 59.09375 75.367188 59.492188 75.507812 59.929688 75.914062 C 60.160156 76.304688 60.21875 76.648438 60.199219 77.101562 C 60.054688 77.566406 59.882812 77.890625 59.5 78.199219 C 59.433594 78.199219 59.367188 78.199219 59.300781 78.199219 C 59.332031 78.257812 59.359375 78.3125 59.390625 78.371094 C 59.527344 78.625 59.664062 78.882812 59.800781 79.136719 C 59.871094 79.269531 59.871094 79.269531 59.945312 79.40625 C 59.988281 79.492188 60.035156 79.578125 60.082031 79.664062 C 60.125 79.742188 60.164062 79.820312 60.207031 79.902344 C 60.300781 80.101562 60.300781 80.101562 60.300781 80.300781 C 59.707031 80.300781 59.113281 80.300781 58.5 80.300781 C 58.367188 80.039062 58.234375 79.78125 58.101562 79.511719 C 58.058594 79.429688 58.015625 79.347656 57.972656 79.265625 C 57.925781 79.167969 57.925781 79.167969 57.875 79.070312 C 57.839844 79.003906 57.808594 78.9375 57.773438 78.871094 C 57.699219 78.699219 57.699219 78.699219 57.699219 78.5 C 57.535156 78.5 57.371094 78.5 57.199219 78.5 C 57.199219 79.09375 57.199219 79.6875 57.199219 80.300781 C 56.671875 80.300781 56.144531 80.300781 55.601562 80.300781 C 55.601562 78.683594 55.601562 77.066406 55.601562 75.398438 Z M 57.199219 76.5 C 57.199219 76.796875 57.199219 77.09375 57.199219 77.398438 C 57.378906 77.40625 57.558594 77.410156 57.738281 77.414062 C 57.835938 77.414062 57.9375 77.417969 58.039062 77.417969 C 58.316406 77.425781 58.316406 77.425781 58.5 77.199219 C 58.542969 76.949219 58.542969 76.949219 58.5 76.699219 C 58.167969 76.480469 58.066406 76.476562 57.679688 76.488281 C 57.546875 76.488281 57.546875 76.488281 57.40625 76.492188 C 57.304688 76.496094 57.304688 76.496094 57.199219 76.5 Z M 57.199219 76.5 "/>
<path style=" stroke:none;fill-rule:nonzero;fill:rgb(10.980392%,21.568628%,39.215687%);fill-opacity:1;" d="M 30.300781 65.398438 C 30.960938 65.398438 31.621094 65.398438 32.300781 65.398438 C 32.300781 66.886719 32.300781 68.371094 32.300781 69.898438 C 33.324219 69.898438 34.347656 69.898438 35.398438 69.898438 C 35.398438 70.429688 35.398438 70.957031 35.398438 71.5 C 33.71875 71.5 32.035156 71.5 30.300781 71.5 C 30.300781 69.488281 30.300781 67.472656 30.300781 65.398438 Z M 30.300781 65.398438 "/>
<path style=" stroke:none;fill-rule:nonzero;fill:rgb(10.196079%,42.352942%,64.705884%);fill-opacity:1;" d="M 50 75.398438 C 51.417969 75.398438 52.839844 75.398438 54.300781 75.398438 C 54.300781 75.796875 54.300781 76.191406 54.300781 76.601562 C 53.441406 76.601562 52.585938 76.601562 51.699219 76.601562 C 51.699219 76.832031 51.699219 77.0625 51.699219 77.300781 C 52.425781 77.300781 53.152344 77.300781 53.898438 77.300781 C 53.898438 77.664062 53.898438 78.027344 53.898438 78.398438 C 53.175781 78.398438 52.449219 78.398438 51.699219 78.398438 C 51.699219 78.632812 51.699219 78.863281 51.699219 79.101562 C 52.558594 79.101562 53.414062 79.101562 54.300781 79.101562 C 54.300781 79.496094 54.300781 79.890625 54.300781 80.300781 C 52.882812 80.300781 51.460938 80.300781 50 80.300781 C 50 78.683594 50 77.066406 50 75.398438 Z M 50 75.398438 "/>
<path style=" stroke:none;fill-rule:nonzero;fill:rgb(10.196079%,42.352942%,65.098041%);fill-opacity:1;" d="M 68.699219 75.398438 C 69.328125 75.398438 69.953125 75.398438 70.601562 75.398438 C 70.902344 76.199219 71.203125 77 71.5 77.800781 C 71.539062 77.90625 71.578125 78.015625 71.621094 78.125 C 71.734375 78.425781 71.84375 78.730469 71.957031 79.03125 C 71.992188 79.125 72.027344 79.21875 72.0625 79.3125 C 72.09375 79.398438 72.125 79.484375 72.15625 79.574219 C 72.183594 79.648438 72.210938 79.722656 72.242188 79.800781 C 72.300781 80 72.300781 80 72.300781 80.300781 C 71.738281 80.300781 71.179688 80.300781 70.601562 80.300781 C 70.535156 80.070312 70.46875 79.839844 70.398438 79.601562 C 69.871094 79.601562 69.34375 79.601562 68.800781 79.601562 C 68.765625 79.832031 68.734375 80.0625 68.699219 80.300781 C 68.140625 80.300781 67.578125 80.300781 67 80.300781 C 67.066406 79.960938 67.132812 79.679688 67.246094 79.359375 C 67.277344 79.277344 67.308594 79.195312 67.335938 79.109375 C 67.371094 79.019531 67.402344 78.929688 67.433594 78.839844 C 67.46875 78.746094 67.5 78.65625 67.535156 78.558594 C 67.605469 78.367188 67.671875 78.171875 67.742188 77.980469 C 67.851562 77.679688 67.957031 77.382812 68.0625 77.085938 C 68.128906 76.898438 68.199219 76.710938 68.265625 76.519531 C 68.296875 76.429688 68.328125 76.34375 68.363281 76.25 C 68.390625 76.167969 68.421875 76.085938 68.453125 76 C 68.492188 75.890625 68.492188 75.890625 68.53125 75.78125 C 68.601562 75.601562 68.601562 75.601562 68.699219 75.398438 Z M 69.601562 77 C 69.53125 77.195312 69.464844 77.386719 69.398438 77.582031 C 69.363281 77.6875 69.324219 77.796875 69.289062 77.90625 C 69.1875 78.195312 69.1875 78.195312 69.199219 78.5 C 69.496094 78.5 69.792969 78.5 70.101562 78.5 C 69.96875 78.003906 69.835938 77.511719 69.699219 77 C 69.667969 77 69.632812 77 69.601562 77 Z M 69.601562 77 "/>
<path style=" stroke:none;fill-rule:nonzero;fill:rgb(10.980392%,21.568628%,39.215687%);fill-opacity:1;" d="M 42.601562 65.300781 C 43.292969 65.300781 43.984375 65.300781 44.699219 65.300781 C 44.699219 67.347656 44.699219 69.390625 44.699219 71.5 C 44.007812 71.5 43.3125 71.5 42.601562 71.5 C 42.601562 69.453125 42.601562 67.40625 42.601562 65.300781 Z M 42.601562 65.300781 "/>
<path style=" stroke:none;fill-rule:nonzero;fill:rgb(10.980392%,21.568628%,39.215687%);fill-opacity:1;" d="M 69.601562 65.300781 C 70.261719 65.300781 70.921875 65.300781 71.601562 65.300781 C 71.601562 67.347656 71.601562 69.390625 71.601562 71.5 C 70.90625 71.5 70.214844 71.5 69.5 71.5 C 69.496094 70.707031 69.496094 69.914062 69.496094 69.121094 C 69.496094 68.75 69.492188 68.382812 69.492188 68.015625 C 69.492188 67.660156 69.492188 67.304688 69.492188 66.949219 C 69.492188 66.8125 69.488281 66.675781 69.488281 66.539062 C 69.488281 66.351562 69.488281 66.160156 69.488281 65.972656 C 69.488281 65.863281 69.488281 65.753906 69.488281 65.644531 C 69.5 65.398438 69.5 65.398438 69.601562 65.300781 Z M 69.601562 65.300781 "/>
<path style=" stroke:none;fill-rule:nonzero;fill:rgb(10.196079%,42.352942%,64.705884%);fill-opacity:1;" d="M 40.898438 75.398438 C 42.484375 75.398438 44.066406 75.398438 45.699219 75.398438 C 45.699219 75.828125 45.699219 76.257812 45.699219 76.699219 C 45.171875 76.699219 44.644531 76.699219 44.101562 76.699219 C 44.101562 77.886719 44.101562 79.074219 44.101562 80.300781 C 43.570312 80.300781 43.042969 80.300781 42.5 80.300781 C 42.5 79.113281 42.5 77.925781 42.5 76.699219 C 41.972656 76.699219 41.445312 76.699219 40.898438 76.699219 C 40.898438 76.269531 40.898438 75.84375 40.898438 75.398438 Z M 40.898438 75.398438 "/>
<path style=" stroke:none;fill-rule:nonzero;fill:rgb(10.196079%,42.352942%,64.705884%);fill-opacity:1;" d="M 46.898438 75.398438 C 47.429688 75.398438 47.957031 75.398438 48.5 75.398438 C 48.5 77.015625 48.5 78.632812 48.5 80.300781 C 47.972656 80.300781 47.445312 80.300781 46.898438 80.300781 C 46.898438 78.683594 46.898438 77.066406 46.898438 75.398438 Z M 46.898438 75.398438 "/>
<path style=" stroke:none;fill-rule:nonzero;fill:rgb(10.196079%,42.352942%,64.705884%);fill-opacity:1;" d="M 35.300781 75.398438 C 35.828125 75.398438 36.355469 75.398438 36.898438 75.398438 C 36.898438 77.015625 36.898438 78.632812 36.898438 80.300781 C 36.371094 80.300781 35.84375 80.300781 35.300781 80.300781 C 35.300781 78.683594 35.300781 77.066406 35.300781 75.398438 Z M 35.300781 75.398438 "/>
<path style=" stroke:none;fill-rule:nonzero;fill:rgb(98.823529%,99.215686%,99.607843%);fill-opacity:1;" d="M 46.101562 52.601562 C 46.132812 52.601562 46.164062 52.601562 46.199219 52.601562 C 46.214844 52.773438 46.214844 52.773438 46.230469 52.945312 C 46.246094 53.101562 46.261719 53.253906 46.273438 53.40625 C 46.28125 53.480469 46.289062 53.558594 46.292969 53.632812 C 46.351562 54.183594 46.476562 54.550781 46.800781 55 C 47.5 55.453125 48.390625 55.472656 49.199219 55.5 C 49.199219 55.53125 49.199219 55.566406 49.199219 55.601562 C 49.078125 55.609375 48.957031 55.621094 48.832031 55.628906 C 48.667969 55.644531 48.507812 55.660156 48.34375 55.675781 C 48.265625 55.679688 48.183594 55.6875 48.101562 55.695312 C 47.539062 55.75 47.160156 55.859375 46.699219 56.199219 C 46.390625 56.652344 46.332031 57.105469 46.28125 57.636719 C 46.273438 57.710938 46.265625 57.785156 46.257812 57.859375 C 46.238281 58.039062 46.21875 58.21875 46.199219 58.398438 C 46.167969 58.398438 46.132812 58.398438 46.101562 58.398438 C 46.089844 58.296875 46.078125 58.199219 46.066406 58.09375 C 46.050781 57.957031 46.035156 57.824219 46.019531 57.6875 C 46.011719 57.621094 46.003906 57.554688 45.996094 57.484375 C 45.929688 56.917969 45.78125 56.484375 45.375 56.074219 C 44.652344 55.613281 43.835938 55.644531 43 55.601562 C 43 55.566406 43 55.535156 43 55.5 C 43.121094 55.488281 43.246094 55.476562 43.371094 55.46875 C 43.535156 55.449219 43.699219 55.433594 43.863281 55.417969 C 43.941406 55.410156 44.023438 55.40625 44.109375 55.398438 C 44.710938 55.335938 45.175781 55.21875 45.625 54.78125 C 46.035156 54.125 46.046875 53.355469 46.101562 52.601562 Z M 46.101562 52.601562 "/>
<path style=" stroke:none;fill-rule:nonzero;fill:rgb(10.980392%,21.568628%,39.215687%);fill-opacity:1;" d="M 46.1875 68.285156 C 46.285156 68.285156 46.382812 68.285156 46.484375 68.285156 C 46.589844 68.285156 46.691406 68.285156 46.800781 68.289062 C 46.957031 68.285156 46.957031 68.285156 47.113281 68.285156 C 47.210938 68.285156 47.3125 68.285156 47.414062 68.285156 C 47.503906 68.285156 47.59375 68.285156 47.6875 68.285156 C 47.898438 68.300781 47.898438 68.300781 48 68.398438 C 48.015625 68.867188 48.003906 69.332031 48 69.800781 C 47.207031 69.800781 46.414062 69.800781 45.601562 69.800781 C 45.589844 68.714844 45.589844 68.714844 45.601562 68.398438 C 45.765625 68.234375 45.960938 68.285156 46.1875 68.285156 Z M 46.1875 68.285156 "/>
<path style=" stroke:none;fill-rule:nonzero;fill:rgb(10.980392%,21.568628%,39.215687%);fill-opacity:1;" d="M 70.921875 63.570312 C 71.003906 63.570312 71.082031 63.574219 71.167969 63.574219 C 71.25 63.574219 71.332031 63.578125 71.417969 63.582031 C 71.546875 63.582031 71.546875 63.582031 71.675781 63.585938 C 71.882812 63.589844 72.089844 63.59375 72.300781 63.601562 C 71.410156 64.746094 71.410156 64.746094 70.652344 64.84375 C 70.332031 64.84375 70.019531 64.832031 69.699219 64.800781 C 69.777344 64.65625 69.855469 64.511719 69.929688 64.367188 C 69.972656 64.289062 70.015625 64.207031 70.0625 64.125 C 70.300781 63.734375 70.453125 63.5625 70.921875 63.570312 Z M 70.921875 63.570312 "/>
<path style=" stroke:none;fill-rule:nonzero;fill:rgb(9.411765%,41.568628%,63.529414%);fill-opacity:1;" d="M 40.601562 62.699219 C 40.601562 62.765625 40.601562 62.832031 40.601562 62.898438 C 40.480469 62.90625 40.363281 62.910156 40.242188 62.914062 C 40.085938 62.921875 39.929688 62.929688 39.773438 62.9375 C 39.699219 62.941406 39.621094 62.945312 39.539062 62.945312 C 39.464844 62.949219 39.386719 62.953125 39.3125 62.957031 C 39.242188 62.960938 39.171875 62.964844 39.101562 62.96875 C 38.894531 62.992188 38.894531 62.992188 38.703125 63.101562 C 38.34375 63.277344 37.957031 63.234375 37.5625 63.230469 C 37.480469 63.234375 37.394531 63.234375 37.308594 63.234375 C 36.796875 63.238281 36.449219 63.175781 36 62.898438 C 36 62.867188 36 62.835938 36 62.800781 C 36.066406 62.792969 36.136719 62.789062 36.203125 62.785156 C 36.511719 62.757812 36.816406 62.730469 37.125 62.707031 C 37.285156 62.691406 37.285156 62.691406 37.445312 62.679688 C 37.550781 62.671875 37.652344 62.664062 37.757812 62.652344 C 37.898438 62.640625 37.898438 62.640625 38.042969 62.628906 C 38.960938 62.523438 39.683594 62.453125 40.601562 62.699219 Z M 40.601562 62.699219 "/>
<path style=" stroke:none;fill-rule:nonzero;fill:rgb(98.823529%,99.215686%,99.215686%);fill-opacity:1;" d="M 43.601562 50.898438 C 43.664062 50.933594 43.730469 50.964844 43.800781 51 C 43.855469 51.167969 43.855469 51.167969 43.914062 51.335938 C 44.007812 51.585938 44.0625 51.679688 44.296875 51.8125 C 44.496094 51.886719 44.699219 51.945312 44.898438 52 C 44.898438 52.03125 44.898438 52.066406 44.898438 52.101562 C 44.808594 52.121094 44.808594 52.121094 44.714844 52.140625 C 44.230469 52.257812 44.230469 52.257812 43.875 52.574219 C 43.78125 52.789062 43.78125 52.789062 43.699219 53.101562 C 43.675781 53.042969 43.65625 52.988281 43.632812 52.929688 C 43.457031 52.625 43.269531 52.425781 43 52.199219 C 42.683594 52.113281 42.683594 52.113281 42.398438 52.101562 C 42.636719 51.980469 42.863281 51.875 43.113281 51.78125 C 43.4375 51.617188 43.4375 51.617188 43.539062 51.230469 C 43.558594 51.121094 43.578125 51.011719 43.601562 50.898438 Z M 43.601562 50.898438 "/>
<path style=" stroke:none;fill-rule:nonzero;fill:rgb(97.254902%,98.039216%,98.823529%);fill-opacity:1;" d="M 48.101562 52.101562 C 48.132812 52.101562 48.164062 52.101562 48.199219 52.101562 C 48.230469 52.195312 48.257812 52.289062 48.289062 52.386719 C 48.375 52.707031 48.375 52.707031 48.601562 52.898438 C 48.5 52.933594 48.402344 52.964844 48.300781 53 C 48.265625 53.199219 48.234375 53.394531 48.199219 53.601562 C 48.175781 53.542969 48.152344 53.484375 48.125 53.425781 C 47.984375 53.171875 47.8125 53 47.601562 52.800781 C 47.695312 52.765625 47.695312 52.765625 47.792969 52.730469 C 48.027344 52.613281 48.027344 52.613281 48.074219 52.335938 C 48.082031 52.257812 48.089844 52.179688 48.101562 52.101562 Z M 48.101562 52.101562 "/>
</g>
</svg>
