<?xml version="1.0" encoding="UTF-8"?>
<svg xmlns="http://www.w3.org/2000/svg" xmlns:xlink="http://www.w3.org/1999/xlink" width="200px" height="200px" viewBox="0 0 200 200" version="1.1">
<g id="surface1">
<path style=" stroke:none;fill-rule:nonzero;fill:rgb(10.196079%,42.352942%,64.705884%);fill-opacity:1;" d="M 111.601562 93.601562 C 111.835938 93.671875 111.835938 93.671875 112.074219 93.75 C 114.097656 94.398438 116.101562 95.164062 118.011719 96.097656 C 119.429688 96.765625 120.316406 96.933594 121.800781 96.398438 C 122.292969 96.214844 122.78125 96.015625 123.265625 95.8125 C 124.042969 95.503906 124.835938 95.273438 125.636719 95.039062 C 126.164062 94.878906 126.679688 94.699219 127.199219 94.5 C 129.382812 93.683594 131.285156 93.429688 133.605469 93.46875 C 133.933594 93.46875 134.261719 93.472656 134.59375 93.472656 C 135.273438 93.472656 135.953125 93.480469 136.636719 93.488281 C 137.507812 93.5 138.382812 93.503906 139.253906 93.503906 C 140.089844 93.507812 140.929688 93.511719 141.765625 93.519531 C 142.003906 93.519531 142.003906 93.519531 142.246094 93.519531 C 142.695312 93.523438 143.140625 93.527344 143.589844 93.535156 C 143.96875 93.539062 143.96875 93.539062 144.359375 93.542969 C 144.96875 93.597656 145.304688 93.65625 145.800781 94 C 146.199219 94.601562 146.199219 94.601562 146.199219 95.199219 C 146.453125 95.207031 146.707031 95.214844 146.96875 95.222656 C 147.308594 95.234375 147.648438 95.25 147.988281 95.261719 C 148.152344 95.265625 148.320312 95.273438 148.492188 95.277344 C 150.488281 95.363281 152.480469 95.996094 154 97.324219 C 154.398438 97.800781 154.398438 97.800781 154.398438 98.199219 C 154.53125 98.199219 154.664062 98.199219 154.800781 98.199219 C 155.34375 99.347656 155.640625 100.488281 155.914062 101.726562 C 155.957031 101.917969 156 102.113281 156.042969 102.3125 C 156.320312 103.574219 156.550781 104.828125 156.707031 106.109375 C 156.773438 106.59375 156.773438 106.59375 157.003906 106.964844 C 157.304688 107.628906 157.296875 108.308594 157.324219 109.023438 C 157.332031 109.179688 157.339844 109.335938 157.347656 109.5 C 157.421875 111.199219 157.417969 112.898438 157.398438 114.601562 C 157.101562 114.699219 157.101562 114.699219 156.800781 114.800781 C 156.804688 115.027344 156.804688 115.257812 156.808594 115.492188 C 156.820312 116.335938 156.828125 117.179688 156.832031 118.023438 C 156.835938 118.390625 156.839844 118.757812 156.84375 119.121094 C 156.851562 119.648438 156.855469 120.171875 156.859375 120.699219 C 156.863281 120.863281 156.863281 121.027344 156.867188 121.195312 C 156.867188 121.65625 156.867188 121.65625 156.800781 122.398438 C 156.078125 122.878906 155.5 122.886719 154.664062 122.925781 C 154.523438 122.933594 154.382812 122.941406 154.238281 122.949219 C 153.890625 122.96875 153.546875 122.984375 153.199219 123 C 153.199219 123.132812 153.199219 123.265625 153.199219 123.398438 C 153.066406 123.398438 152.9375 123.398438 152.800781 123.398438 C 152.800781 123.53125 152.800781 123.664062 152.800781 123.800781 C 151.703125 124.636719 150.523438 124.554688 149.199219 124.398438 C 148.527344 124.136719 148.109375 123.707031 147.601562 123.199219 C 146.675781 123.125 145.746094 123.167969 144.816406 123.1875 C 144.222656 123.199219 143.628906 123.203125 143.035156 123.207031 C 142.472656 123.210938 141.910156 123.222656 141.347656 123.230469 C 141.066406 123.234375 140.785156 123.238281 140.5 123.238281 C 140.097656 123.242188 139.699219 123.25 139.296875 123.257812 C 138.941406 123.261719 138.941406 123.261719 138.582031 123.269531 C 137.960938 123.339844 137.960938 123.339844 137.644531 123.882812 C 137.5625 124.054688 137.484375 124.222656 137.398438 124.398438 C 136.753906 125.046875 136.050781 125.039062 135.164062 125.0625 C 134.152344 125.046875 133.226562 124.898438 132.25 124.65625 C 132.101562 124.621094 131.957031 124.585938 131.804688 124.550781 C 130.078125 124.128906 128.355469 123.671875 126.636719 123.210938 C 125.972656 123.035156 125.304688 122.859375 124.636719 122.683594 C 124.476562 122.640625 124.316406 122.597656 124.152344 122.554688 C 122.722656 122.175781 121.292969 121.820312 119.855469 121.488281 C 119.5 121.40625 119.148438 121.304688 118.800781 121.199219 C 118.734375 121.066406 118.667969 120.9375 118.601562 120.800781 C 119.773438 120.757812 120.894531 120.796875 122.054688 120.980469 C 123.761719 121.234375 125.46875 121.375 127.1875 121.511719 C 127.652344 121.550781 128.121094 121.589844 128.585938 121.625 C 128.871094 121.648438 129.160156 121.671875 129.445312 121.695312 C 130.304688 121.765625 131.148438 121.871094 132 122 C 131.933594 121.867188 131.867188 121.734375 131.800781 121.601562 C 131.605469 121.539062 131.414062 121.476562 131.210938 121.414062 C 130.601562 121.199219 130.601562 121.199219 130.199219 120.601562 C 129.59375 120.453125 129.59375 120.453125 128.863281 120.394531 C 128.726562 120.378906 128.59375 120.363281 128.453125 120.351562 C 128.160156 120.320312 127.867188 120.289062 127.574219 120.257812 C 126.792969 120.179688 126.011719 120.09375 125.230469 120.007812 C 124.992188 119.980469 124.992188 119.980469 124.753906 119.953125 C 123.414062 119.804688 122.082031 119.617188 120.75 119.414062 C 118.472656 119.0625 116.195312 118.75 113.914062 118.449219 C 113.742188 118.425781 113.574219 118.40625 113.398438 118.382812 C 112.917969 118.316406 112.433594 118.253906 111.949219 118.191406 C 111.804688 118.171875 111.660156 118.152344 111.511719 118.132812 C 110.863281 118.046875 110.253906 118 109.601562 118 C 109.203125 118.792969 109.203125 118.792969 108.800781 119.601562 C 107.863281 119.367188 107.515625 118.949219 106.914062 118.25 C 106.726562 118.039062 106.539062 117.828125 106.351562 117.617188 C 106.257812 117.511719 106.167969 117.410156 106.074219 117.300781 C 105.664062 116.851562 105.234375 116.425781 104.800781 116 C 104.535156 115.734375 104.265625 115.464844 104 115.199219 C 104.148438 115.484375 104.148438 115.484375 104.300781 115.773438 C 104.601562 116.398438 104.601562 116.398438 104.601562 116.800781 C 104.730469 116.800781 104.863281 116.800781 105 116.800781 C 105.234375 117.070312 105.234375 117.070312 105.492188 117.445312 C 105.585938 117.582031 105.679688 117.71875 105.777344 117.859375 C 105.875 118.003906 105.972656 118.148438 106.074219 118.300781 C 106.171875 118.4375 106.269531 118.578125 106.367188 118.722656 C 107.300781 120.09375 108.058594 121.320312 108.199219 123 C 108.378906 123.015625 108.378906 123.015625 108.5625 123.03125 C 111.246094 123.257812 113.921875 123.507812 116.601562 123.800781 C 116.019531 124.1875 115.726562 124.289062 115.0625 124.414062 C 114.820312 124.460938 114.820312 124.460938 114.574219 124.507812 C 108.800781 125.445312 102.988281 124.132812 97.3125 123.113281 C 93.636719 122.464844 90.488281 123.003906 87 124.199219 C 86.488281 124.371094 85.972656 124.542969 85.460938 124.714844 C 85.144531 124.820312 84.828125 124.925781 84.511719 125.035156 C 83.441406 125.398438 83.441406 125.398438 83 125.398438 C 83 125.203125 83 125.003906 83 124.800781 C 83.988281 124.207031 84.980469 123.613281 86 123 C 80.058594 122.933594 74.121094 122.867188 68 122.800781 C 70.132812 123.417969 70.132812 123.417969 72.273438 123.949219 C 72.597656 124.023438 72.597656 124.023438 72.929688 124.097656 C 73.085938 124.132812 73.238281 124.164062 73.398438 124.199219 C 73.398438 124.332031 73.398438 124.464844 73.398438 124.601562 C 68.277344 124.214844 63.226562 123.320312 58.195312 122.316406 C 56.746094 122.03125 55.292969 121.75 53.839844 121.480469 C 53.441406 121.40625 53.042969 121.332031 52.648438 121.253906 C 50.042969 120.792969 48.042969 121.222656 45.601562 122.199219 C 45.40625 122.277344 45.214844 122.351562 45.019531 122.433594 C 44.878906 122.488281 44.742188 122.542969 44.601562 122.601562 C 44.699219 122.203125 44.699219 122.203125 44.800781 121.800781 C 44.933594 121.800781 45.0625 121.800781 45.199219 121.800781 C 45.199219 121.667969 45.199219 121.535156 45.199219 121.398438 C 45.332031 121.398438 45.464844 121.398438 45.601562 121.398438 C 45.84375 121.046875 45.84375 121.046875 46 120.601562 C 45.84375 120.152344 45.84375 120.152344 45.601562 119.800781 C 45.46875 119.800781 45.335938 119.800781 45.199219 119.800781 C 45.199219 119.601562 45.199219 119.402344 45.199219 119.199219 C 45.003906 119.132812 44.804688 119.066406 44.601562 119 C 43.429688 117.257812 42.425781 115.144531 42.601562 113 C 43.484375 112.523438 44.339844 112.140625 45.296875 111.832031 C 46.613281 111.402344 47.90625 110.910156 49.199219 110.414062 C 50.90625 109.757812 52.613281 109.121094 54.335938 108.511719 C 54.5 108.457031 54.660156 108.398438 54.828125 108.339844 C 56.136719 107.878906 56.136719 107.878906 56.761719 107.660156 C 57.214844 107.507812 57.664062 107.347656 58.113281 107.1875 C 58.246094 107.144531 58.378906 107.097656 58.515625 107.054688 C 60.042969 106.507812 60.847656 105.679688 61.550781 104.242188 C 61.617188 104.113281 61.679688 103.988281 61.746094 103.855469 C 61.945312 103.457031 62.140625 103.054688 62.335938 102.648438 C 62.535156 102.246094 62.734375 101.839844 62.9375 101.433594 C 63.117188 101.070312 63.296875 100.707031 63.476562 100.339844 C 63.800781 99.800781 63.800781 99.800781 64.398438 99.601562 C 64.398438 99.46875 64.398438 99.335938 64.398438 99.199219 C 65.898438 98.34375 67.34375 97.925781 69.023438 97.585938 C 69.507812 97.484375 69.992188 97.382812 70.476562 97.28125 C 70.707031 97.234375 70.9375 97.183594 71.171875 97.136719 C 71.925781 96.972656 72.667969 96.785156 73.414062 96.585938 C 76.652344 95.761719 79.96875 95.226562 83.261719 94.675781 C 83.609375 94.617188 83.609375 94.617188 83.960938 94.558594 C 104.082031 91.238281 104.082031 91.238281 111.601562 93.601562 Z M 74.800781 99 C 74.800781 99.328125 74.800781 99.660156 74.800781 100 C 75.988281 99.734375 77.175781 99.472656 78.398438 99.199219 C 78.398438 98.871094 78.398438 98.539062 78.398438 98.199219 C 77.398438 98.117188 75.554688 98.246094 74.800781 99 Z M 125.601562 98.375 C 125.394531 98.410156 125.183594 98.445312 124.972656 98.480469 C 124.773438 98.515625 124.578125 98.550781 124.375 98.585938 C 124.191406 98.617188 124.011719 98.648438 123.824219 98.679688 C 123.683594 98.71875 123.542969 98.757812 123.398438 98.800781 C 123.09375 99.414062 123.296875 99.9375 123.398438 100.601562 C 123.398438 100.796875 123.398438 100.996094 123.398438 101.199219 C 124.453125 101.070312 125.460938 100.851562 126.488281 100.585938 C 126.632812 100.550781 126.78125 100.511719 126.929688 100.476562 C 127.289062 100.382812 127.644531 100.292969 128 100.199219 C 128 99.472656 128 98.746094 128 98 C 127.207031 98 126.378906 98.238281 125.601562 98.375 Z M 71.074219 99.601562 C 70.933594 99.636719 70.792969 99.675781 70.648438 99.714844 C 70.296875 99.808594 69.949219 99.90625 69.601562 100 C 69.601562 100.394531 69.601562 100.792969 69.601562 101.199219 C 70.128906 101.070312 70.660156 100.941406 71.1875 100.8125 C 71.339844 100.777344 71.488281 100.738281 71.644531 100.703125 C 72.382812 100.574219 72.382812 100.574219 73 100.199219 C 73.007812 99.867188 73.007812 99.535156 73 99.199219 C 72.335938 99.199219 71.710938 99.425781 71.074219 99.601562 Z M 133.398438 100.398438 C 133.371094 101.121094 133.351562 101.839844 133.335938 102.5625 C 133.328125 102.765625 133.320312 102.972656 133.3125 103.183594 C 133.253906 104.289062 133.253906 104.289062 133.769531 105.199219 C 133.980469 105.265625 134.1875 105.332031 134.398438 105.398438 C 134.554688 105.449219 134.707031 105.5 134.867188 105.550781 C 135.417969 105.71875 135.96875 105.875 136.523438 106.023438 C 136.902344 106.128906 137.28125 106.234375 137.65625 106.339844 C 137.824219 106.382812 137.992188 106.429688 138.164062 106.476562 C 138.511719 106.574219 138.855469 106.683594 139.199219 106.800781 C 139.230469 104.59375 139.132812 102.402344 139 100.199219 C 138.402344 100.195312 137.808594 100.191406 137.210938 100.1875 C 137.046875 100.1875 136.878906 100.183594 136.710938 100.183594 C 135.589844 100.179688 134.511719 100.257812 133.398438 100.398438 Z M 140.800781 100.199219 C 140.796875 102.761719 140.796875 102.761719 141 105.289062 C 141.019531 105.457031 141.039062 105.621094 141.058594 105.796875 C 141.105469 106.199219 141.152344 106.597656 141.199219 107 C 142.550781 107.003906 143.902344 107.007812 145.253906 107.011719 C 145.710938 107.011719 146.167969 107.011719 146.625 107.015625 C 149.492188 107.027344 152.339844 106.980469 155.199219 106.800781 C 155.1875 106.679688 155.179688 106.558594 155.167969 106.433594 C 155.152344 106.273438 155.140625 106.113281 155.125 105.945312 C 155.109375 105.777344 155.09375 105.609375 155.078125 105.4375 C 155.046875 105.089844 155.019531 104.746094 154.992188 104.402344 C 154.851562 102.933594 154.539062 101.675781 154.199219 100.199219 C 149.777344 100.199219 145.355469 100.199219 140.800781 100.199219 Z M 124.914062 103.476562 C 124.605469 103.511719 124.605469 103.511719 124.292969 103.550781 C 122.449219 103.726562 122.449219 103.726562 120.933594 104.675781 C 120.730469 104.949219 120.730469 104.949219 120.523438 105.226562 C 120.320312 105.496094 120.320312 105.496094 120.109375 105.777344 C 120.007812 105.917969 119.90625 106.054688 119.800781 106.199219 C 119.867188 106.332031 119.933594 106.464844 120 106.601562 C 124.101562 105.816406 124.101562 105.816406 128.199219 105 C 128.199219 104.40625 128.199219 103.8125 128.199219 103.199219 C 127.089844 103.179688 126.011719 103.332031 124.914062 103.476562 Z M 123.898438 108.675781 C 123.480469 108.6875 123.0625 108.699219 122.644531 108.710938 C 121.828125 108.734375 121.015625 108.765625 120.199219 108.800781 C 119.804688 108.816406 119.804688 108.816406 119.402344 108.832031 C 119.152344 108.84375 118.90625 108.855469 118.648438 108.871094 C 118.320312 108.886719 118.320312 108.886719 117.984375 108.902344 C 117.203125 109.03125 116.757812 109.351562 116.207031 109.90625 C 115.960938 110.195312 115.960938 110.195312 116 110.601562 C 115.828125 110.667969 115.828125 110.667969 115.648438 110.738281 C 115.085938 111.066406 114.792969 111.488281 114.398438 112 C 117.261719 111.910156 120.074219 111.484375 122.90625 111.09375 C 124.054688 110.9375 125.199219 110.808594 126.351562 110.679688 C 126.96875 110.605469 127.585938 110.507812 128.199219 110.398438 C 128.199219 109.804688 128.199219 109.210938 128.199219 108.601562 C 126.765625 108.585938 125.332031 108.628906 123.898438 108.675781 Z M 137.800781 109.601562 C 137.800781 110.324219 137.800781 111.050781 137.800781 111.800781 C 138.0625 111.867188 138.328125 111.933594 138.601562 112 C 138.601562 111.207031 138.601562 110.414062 138.601562 109.601562 C 138.335938 109.601562 138.070312 109.601562 137.800781 109.601562 Z M 144.800781 110.800781 C 144.800781 110.867188 144.800781 110.933594 144.800781 111 C 146.449219 111 148.101562 111 149.800781 111 C 149.800781 110.933594 149.800781 110.867188 149.800781 110.800781 C 148.148438 110.800781 146.5 110.800781 144.800781 110.800781 Z M 156.398438 112.199219 C 156.398438 112.792969 156.398438 113.386719 156.398438 114 C 156.464844 114 156.53125 114 156.601562 114 C 156.601562 113.40625 156.601562 112.8125 156.601562 112.199219 C 156.535156 112.199219 156.46875 112.199219 156.398438 112.199219 Z M 142 112.601562 C 142 113.195312 142 113.789062 142 114.398438 C 142.066406 114.398438 142.132812 114.398438 142.199219 114.398438 C 142.199219 113.804688 142.199219 113.210938 142.199219 112.601562 C 142.132812 112.601562 142.066406 112.601562 142 112.601562 Z M 153.199219 112.601562 C 153.199219 112.664062 153.199219 112.730469 153.199219 112.800781 C 153.660156 112.800781 154.125 112.800781 154.601562 112.800781 C 154.601562 112.734375 154.601562 112.667969 154.601562 112.601562 C 154.136719 112.601562 153.675781 112.601562 153.199219 112.601562 Z M 145.398438 112.800781 C 145.398438 112.867188 145.398438 112.933594 145.398438 113 C 146.589844 113 147.777344 113 149 113 C 149 112.933594 149 112.867188 149 112.800781 C 147.8125 112.800781 146.625 112.800781 145.398438 112.800781 Z M 112.398438 113.800781 C 112.269531 114.0625 112.136719 114.328125 112 114.601562 C 111.867188 114.601562 111.734375 114.601562 111.601562 114.601562 C 111.234375 115.035156 111.234375 115.035156 110.875 115.574219 C 110.683594 115.847656 110.683594 115.847656 110.492188 116.125 C 110.164062 116.5625 110.164062 116.5625 110.199219 117 C 112.789062 117.011719 115.375 116.976562 117.960938 116.925781 C 118.167969 116.921875 118.375 116.917969 118.585938 116.914062 C 121.804688 116.847656 124.996094 116.703125 128.199219 116.398438 C 128.199219 115.738281 128.199219 115.078125 128.199219 114.398438 C 127.460938 114.214844 126.863281 114.164062 126.109375 114.144531 C 125.851562 114.136719 125.597656 114.128906 125.332031 114.121094 C 125.0625 114.113281 124.792969 114.105469 124.523438 114.101562 C 123.015625 114.058594 121.511719 114.015625 120.007812 113.894531 C 118.445312 113.773438 116.890625 113.777344 115.324219 113.789062 C 115.039062 113.789062 114.753906 113.789062 114.46875 113.789062 C 113.777344 113.792969 113.089844 113.796875 112.398438 113.800781 Z M 133.199219 113.800781 C 133.199219 113.933594 133.199219 114.0625 133.199219 114.199219 C 133.335938 114.226562 133.46875 114.253906 133.609375 114.28125 C 133.789062 114.316406 133.964844 114.351562 134.148438 114.386719 C 134.328125 114.421875 134.503906 114.457031 134.683594 114.492188 C 135.125 114.585938 135.5625 114.6875 136 114.800781 C 135.582031 114.175781 135.484375 114.035156 134.800781 113.800781 C 134.261719 113.769531 133.738281 113.78125 133.199219 113.800781 Z M 103.601562 114.199219 C 103.800781 114.601562 103.800781 114.601562 103.800781 114.601562 Z M 153 114.398438 C 153 114.464844 153 114.53125 153 114.601562 C 153.460938 114.601562 153.925781 114.601562 154.398438 114.601562 C 154.398438 114.535156 154.398438 114.46875 154.398438 114.398438 C 153.9375 114.398438 153.476562 114.398438 153 114.398438 Z M 148.601562 114.601562 C 148.601562 114.664062 148.601562 114.730469 148.601562 114.800781 C 149.722656 114.800781 150.84375 114.800781 152 114.800781 C 152 114.734375 152 114.667969 152 114.601562 C 150.878906 114.601562 149.757812 114.601562 148.601562 114.601562 Z M 131.800781 114.800781 C 131.601562 114.996094 131.402344 115.195312 131.199219 115.398438 C 131.265625 115.53125 131.332031 115.664062 131.398438 115.800781 C 131.597656 115.601562 131.796875 115.402344 132 115.199219 C 131.933594 115.066406 131.867188 114.9375 131.800781 114.800781 Z M 131 115.800781 C 131.199219 116.199219 131.199219 116.199219 131.199219 116.199219 Z M 130.800781 116.199219 C 131 116.800781 131 116.800781 131 116.800781 Z M 132.601562 116.199219 C 132.800781 116.601562 132.800781 116.601562 132.800781 116.601562 Z M 130.601562 116.800781 C 130.601562 117.128906 130.601562 117.460938 130.601562 117.800781 C 130.664062 117.800781 130.730469 117.800781 130.800781 117.800781 C 130.800781 117.46875 130.800781 117.140625 130.800781 116.800781 C 130.734375 116.800781 130.667969 116.800781 130.601562 116.800781 Z M 155.675781 117.039062 C 155.316406 117.511719 155.351562 117.820312 155.398438 118.398438 C 155.730469 118.398438 156.058594 118.398438 156.398438 118.398438 C 156.398438 117.871094 156.398438 117.34375 156.398438 116.800781 C 155.988281 116.761719 155.988281 116.761719 155.675781 117.039062 Z M 140 117.199219 C 140 117.726562 140 118.257812 140 118.800781 C 141.519531 118.800781 143.035156 118.800781 144.601562 118.800781 C 144.320312 117.660156 144.320312 117.660156 143.800781 117.199219 C 143.394531 117.144531 143.394531 117.144531 142.929688 117.160156 C 142.757812 117.164062 142.589844 117.164062 142.414062 117.164062 C 142.234375 117.167969 142.058594 117.171875 141.875 117.175781 C 141.605469 117.175781 141.605469 117.175781 141.332031 117.179688 C 140.886719 117.183594 140.445312 117.191406 140 117.199219 Z M 130.398438 118 C 130.398438 118.328125 130.398438 118.660156 130.398438 119 C 130.464844 119 130.53125 119 130.601562 119 C 130.601562 118.671875 130.601562 118.339844 130.601562 118 C 130.535156 118 130.46875 118 130.398438 118 Z M 133.800781 118 C 133.171875 118.679688 133.117188 119.171875 133.125 120.085938 C 133.125 120.308594 133.121094 120.53125 133.121094 120.761719 C 133.207031 121.453125 133.402344 121.835938 133.800781 122.398438 C 133.996094 122.335938 134.195312 122.269531 134.398438 122.199219 C 134.269531 122.066406 134.136719 121.9375 134 121.800781 C 133.953125 121.292969 133.933594 120.816406 133.9375 120.3125 C 133.933594 120.175781 133.929688 120.039062 133.929688 119.898438 C 133.925781 118.894531 133.925781 118.894531 134.304688 118.40625 C 134.402344 118.335938 134.5 118.269531 134.601562 118.199219 C 134.335938 118.132812 134.070312 118.066406 133.800781 118 Z M 133.800781 118 "/>
<path style=" stroke:none;fill-rule:nonzero;fill:rgb(32.156864%,32.156864%,32.156864%);fill-opacity:1;" d="M 133.605469 93.46875 C 133.933594 93.46875 134.261719 93.472656 134.59375 93.472656 C 135.273438 93.472656 135.953125 93.480469 136.636719 93.488281 C 137.507812 93.5 138.382812 93.503906 139.253906 93.503906 C 140.089844 93.507812 140.929688 93.511719 141.765625 93.519531 C 142.003906 93.519531 142.003906 93.519531 142.246094 93.519531 C 142.695312 93.523438 143.140625 93.527344 143.589844 93.535156 C 143.96875 93.539062 143.96875 93.539062 144.359375 93.542969 C 144.96875 93.597656 145.304688 93.65625 145.800781 94 C 146.199219 94.601562 146.199219 94.601562 146.199219 95.199219 C 146.453125 95.207031 146.707031 95.214844 146.96875 95.222656 C 147.308594 95.234375 147.648438 95.25 147.988281 95.261719 C 148.152344 95.265625 148.320312 95.273438 148.492188 95.277344 C 150.488281 95.363281 152.480469 95.996094 154 97.324219 C 154.398438 97.800781 154.398438 97.800781 154.398438 98.199219 C 154.53125 98.199219 154.664062 98.199219 154.800781 98.199219 C 155.34375 99.347656 155.640625 100.488281 155.914062 101.726562 C 155.957031 101.917969 156 102.113281 156.042969 102.3125 C 156.320312 103.574219 156.550781 104.828125 156.707031 106.109375 C 156.773438 106.59375 156.773438 106.59375 157.003906 106.964844 C 157.304688 107.628906 157.296875 108.308594 157.324219 109.023438 C 157.332031 109.179688 157.339844 109.335938 157.347656 109.5 C 157.421875 111.199219 157.417969 112.898438 157.398438 114.601562 C 157.203125 114.664062 157.003906 114.730469 156.800781 114.800781 C 156.804688 115.140625 156.804688 115.140625 156.808594 115.492188 C 156.820312 116.335938 156.828125 117.179688 156.832031 118.023438 C 156.835938 118.390625 156.839844 118.757812 156.84375 119.121094 C 156.851562 119.648438 156.855469 120.171875 156.859375 120.699219 C 156.863281 120.863281 156.863281 121.027344 156.867188 121.195312 C 156.867188 121.65625 156.867188 121.65625 156.800781 122.398438 C 156.078125 122.878906 155.5 122.886719 154.664062 122.925781 C 154.523438 122.933594 154.382812 122.941406 154.238281 122.949219 C 153.890625 122.96875 153.546875 122.984375 153.199219 123 C 153.199219 123.132812 153.199219 123.265625 153.199219 123.398438 C 153.066406 123.398438 152.9375 123.398438 152.800781 123.398438 C 152.800781 123.53125 152.800781 123.664062 152.800781 123.800781 C 151.703125 124.636719 150.523438 124.554688 149.199219 124.398438 C 148.527344 124.136719 148.109375 123.707031 147.601562 123.199219 C 146.675781 123.125 145.746094 123.167969 144.816406 123.1875 C 144.222656 123.199219 143.628906 123.203125 143.035156 123.207031 C 142.472656 123.210938 141.910156 123.222656 141.347656 123.230469 C 141.066406 123.234375 140.785156 123.238281 140.5 123.238281 C 140.097656 123.242188 139.699219 123.25 139.296875 123.257812 C 138.941406 123.261719 138.941406 123.261719 138.582031 123.269531 C 137.960938 123.339844 137.960938 123.339844 137.644531 123.882812 C 137.5625 124.054688 137.484375 124.222656 137.398438 124.398438 C 136.753906 125.046875 136.050781 125.039062 135.164062 125.0625 C 134.152344 125.046875 133.226562 124.898438 132.25 124.65625 C 132.101562 124.621094 131.957031 124.585938 131.804688 124.550781 C 130.078125 124.128906 128.355469 123.671875 126.636719 123.210938 C 125.972656 123.035156 125.304688 122.859375 124.636719 122.683594 C 124.476562 122.640625 124.316406 122.597656 124.152344 122.554688 C 122.722656 122.175781 121.292969 121.820312 119.855469 121.488281 C 119.5 121.40625 119.148438 121.304688 118.800781 121.199219 C 118.734375 121.066406 118.667969 120.9375 118.601562 120.800781 C 119.773438 120.757812 120.894531 120.796875 122.054688 120.980469 C 123.761719 121.234375 125.46875 121.375 127.1875 121.511719 C 127.652344 121.550781 128.121094 121.589844 128.585938 121.625 C 128.871094 121.648438 129.160156 121.671875 129.445312 121.695312 C 130.304688 121.765625 131.148438 121.871094 132 122 C 131.933594 121.867188 131.867188 121.734375 131.800781 121.601562 C 131.605469 121.539062 131.414062 121.476562 131.210938 121.414062 C 130.601562 121.199219 130.601562 121.199219 130.199219 120.601562 C 129.59375 120.453125 129.59375 120.453125 128.863281 120.394531 C 128.726562 120.378906 128.59375 120.363281 128.453125 120.351562 C 128.160156 120.320312 127.867188 120.289062 127.574219 120.257812 C 126.792969 120.179688 126.011719 120.09375 125.230469 120.007812 C 125.070312 119.988281 124.914062 119.972656 124.753906 119.953125 C 123.414062 119.804688 122.082031 119.617188 120.75 119.414062 C 118.136719 119.011719 115.519531 118.667969 112.898438 118.332031 C 112.738281 118.3125 112.578125 118.292969 112.414062 118.269531 C 112.113281 118.230469 111.8125 118.191406 111.511719 118.15625 C 110.863281 118.070312 110.230469 117.980469 109.601562 117.800781 C 109.601562 117.601562 109.601562 117.402344 109.601562 117.199219 C 110.1875 116.90625 110.792969 116.929688 111.4375 116.894531 C 111.664062 116.882812 111.664062 116.882812 111.890625 116.867188 C 113.714844 116.773438 115.542969 116.742188 117.367188 116.710938 C 118.402344 116.691406 119.433594 116.671875 120.46875 116.652344 C 120.667969 116.648438 120.871094 116.644531 121.078125 116.636719 C 123.453125 116.589844 125.828125 116.503906 128.199219 116.398438 C 128.199219 115.738281 128.199219 115.078125 128.199219 114.398438 C 128.007812 114.394531 127.816406 114.390625 127.621094 114.386719 C 126.894531 114.367188 126.171875 114.347656 125.449219 114.324219 C 125.136719 114.316406 124.828125 114.308594 124.515625 114.300781 C 122.773438 114.253906 121.039062 114.183594 119.296875 114.046875 C 118.007812 113.960938 116.714844 113.925781 115.425781 113.886719 C 115.148438 113.878906 114.871094 113.871094 114.597656 113.859375 C 113.929688 113.839844 113.265625 113.820312 112.601562 113.800781 C 112.714844 113.214844 112.78125 113.019531 113.210938 112.574219 C 114.765625 111.585938 116.808594 111.609375 118.601562 111.414062 C 119.210938 111.34375 119.820312 111.273438 120.429688 111.203125 C 120.578125 111.1875 120.730469 111.167969 120.886719 111.152344 C 122.4375 110.976562 123.984375 110.777344 125.53125 110.574219 C 126.429688 110.457031 127.292969 110.371094 128.199219 110.398438 C 128.199219 109.804688 128.199219 109.210938 128.199219 108.601562 C 128 108.628906 127.800781 108.660156 127.59375 108.691406 C 126.367188 108.847656 125.132812 108.867188 123.898438 108.902344 C 123.480469 108.914062 123.0625 108.925781 122.644531 108.9375 C 120.894531 108.992188 119.148438 109.011719 117.398438 109 C 117.902344 107.976562 118.4375 107.246094 119.398438 106.601562 C 120.410156 106.261719 121.417969 106.066406 122.46875 105.890625 C 123.042969 105.792969 123.613281 105.683594 124.183594 105.574219 C 124.949219 105.429688 125.71875 105.285156 126.484375 105.148438 C 126.722656 105.105469 126.722656 105.105469 126.960938 105.0625 C 127.398438 105 127.398438 105 128.199219 105 C 128.199219 104.40625 128.199219 103.8125 128.199219 103.199219 C 128.082031 103.222656 127.960938 103.25 127.839844 103.273438 C 126.644531 103.503906 125.445312 103.679688 124.238281 103.824219 C 124.09375 103.84375 123.949219 103.859375 123.804688 103.878906 C 122.996094 103.972656 122.210938 104.019531 121.398438 104 C 121.714844 102.992188 122.207031 102.101562 123 101.398438 C 123.84375 101.027344 124.703125 100.808594 125.601562 100.601562 C 125.765625 100.554688 125.925781 100.511719 126.097656 100.464844 C 126.761719 100.28125 127.304688 100.199219 128 100.199219 C 127.933594 99.539062 127.867188 98.878906 127.800781 98.199219 C 127.664062 98.230469 127.527344 98.257812 127.382812 98.289062 C 126.757812 98.421875 126.128906 98.542969 125.5 98.664062 C 125.285156 98.710938 125.070312 98.753906 124.847656 98.804688 C 123.035156 99.140625 123.035156 99.140625 122.09375 98.550781 C 121.859375 98.367188 121.628906 98.1875 121.398438 98 C 121.136719 97.839844 120.871094 97.6875 120.601562 97.539062 C 120.304688 97.371094 120.304688 97.371094 120 97.199219 C 120.53125 96.667969 121.023438 96.566406 121.738281 96.335938 C 122.011719 96.25 122.285156 96.160156 122.5625 96.070312 C 122.699219 96.023438 122.839844 95.980469 122.984375 95.933594 C 123.613281 95.730469 124.238281 95.523438 124.863281 95.3125 C 125.214844 95.199219 125.214844 95.199219 125.570312 95.082031 C 126.125 94.898438 126.667969 94.699219 127.210938 94.492188 C 129.390625 93.675781 131.292969 93.429688 133.605469 93.46875 Z M 133.398438 100.398438 C 133.371094 101.121094 133.351562 101.839844 133.335938 102.5625 C 133.328125 102.765625 133.320312 102.972656 133.3125 103.183594 C 133.253906 104.289062 133.253906 104.289062 133.769531 105.199219 C 133.980469 105.265625 134.1875 105.332031 134.398438 105.398438 C 134.554688 105.449219 134.707031 105.5 134.867188 105.550781 C 135.417969 105.71875 135.96875 105.875 136.523438 106.023438 C 136.902344 106.128906 137.28125 106.234375 137.65625 106.339844 C 137.824219 106.382812 137.992188 106.429688 138.164062 106.476562 C 138.511719 106.574219 138.855469 106.683594 139.199219 106.800781 C 139.230469 104.59375 139.132812 102.402344 139 100.199219 C 138.402344 100.195312 137.808594 100.191406 137.210938 100.1875 C 137.046875 100.1875 136.878906 100.183594 136.710938 100.183594 C 135.589844 100.179688 134.511719 100.257812 133.398438 100.398438 Z M 140.800781 100.199219 C 140.796875 102.761719 140.796875 102.761719 141 105.289062 C 141.019531 105.457031 141.039062 105.621094 141.058594 105.796875 C 141.105469 106.199219 141.152344 106.597656 141.199219 107 C 142.550781 107.003906 143.902344 107.007812 145.253906 107.011719 C 145.710938 107.011719 146.167969 107.011719 146.625 107.015625 C 149.492188 107.027344 152.339844 106.980469 155.199219 106.800781 C 155.1875 106.679688 155.179688 106.558594 155.167969 106.433594 C 155.152344 106.273438 155.140625 106.113281 155.125 105.945312 C 155.109375 105.777344 155.09375 105.609375 155.078125 105.4375 C 155.046875 105.089844 155.019531 104.746094 154.992188 104.402344 C 154.851562 102.933594 154.539062 101.675781 154.199219 100.199219 C 149.777344 100.199219 145.355469 100.199219 140.800781 100.199219 Z M 137.800781 109.601562 C 137.800781 110.324219 137.800781 111.050781 137.800781 111.800781 C 138.0625 111.867188 138.328125 111.933594 138.601562 112 C 138.601562 111.207031 138.601562 110.414062 138.601562 109.601562 C 138.335938 109.601562 138.070312 109.601562 137.800781 109.601562 Z M 144.800781 110.800781 C 144.800781 110.867188 144.800781 110.933594 144.800781 111 C 146.449219 111 148.101562 111 149.800781 111 C 149.800781 110.933594 149.800781 110.867188 149.800781 110.800781 C 148.148438 110.800781 146.5 110.800781 144.800781 110.800781 Z M 156.398438 112.199219 C 156.398438 112.792969 156.398438 113.386719 156.398438 114 C 156.464844 114 156.53125 114 156.601562 114 C 156.601562 113.40625 156.601562 112.8125 156.601562 112.199219 C 156.535156 112.199219 156.46875 112.199219 156.398438 112.199219 Z M 142 112.601562 C 142 113.195312 142 113.789062 142 114.398438 C 142.066406 114.398438 142.132812 114.398438 142.199219 114.398438 C 142.199219 113.804688 142.199219 113.210938 142.199219 112.601562 C 142.132812 112.601562 142.066406 112.601562 142 112.601562 Z M 153.199219 112.601562 C 153.199219 112.664062 153.199219 112.730469 153.199219 112.800781 C 153.660156 112.800781 154.125 112.800781 154.601562 112.800781 C 154.601562 112.734375 154.601562 112.667969 154.601562 112.601562 C 154.136719 112.601562 153.675781 112.601562 153.199219 112.601562 Z M 145.398438 112.800781 C 145.398438 112.867188 145.398438 112.933594 145.398438 113 C 146.589844 113 147.777344 113 149 113 C 149 112.933594 149 112.867188 149 112.800781 C 147.8125 112.800781 146.625 112.800781 145.398438 112.800781 Z M 133.199219 113.800781 C 133.199219 113.933594 133.199219 114.0625 133.199219 114.199219 C 133.335938 114.226562 133.46875 114.253906 133.609375 114.28125 C 133.789062 114.316406 133.964844 114.351562 134.148438 114.386719 C 134.328125 114.421875 134.503906 114.457031 134.683594 114.492188 C 135.125 114.585938 135.5625 114.6875 136 114.800781 C 135.582031 114.175781 135.484375 114.035156 134.800781 113.800781 C 134.261719 113.769531 133.738281 113.78125 133.199219 113.800781 Z M 153 114.398438 C 153 114.464844 153 114.53125 153 114.601562 C 153.460938 114.601562 153.925781 114.601562 154.398438 114.601562 C 154.398438 114.535156 154.398438 114.46875 154.398438 114.398438 C 153.9375 114.398438 153.476562 114.398438 153 114.398438 Z M 148.601562 114.601562 C 148.601562 114.664062 148.601562 114.730469 148.601562 114.800781 C 149.722656 114.800781 150.84375 114.800781 152 114.800781 C 152 114.734375 152 114.667969 152 114.601562 C 150.878906 114.601562 149.757812 114.601562 148.601562 114.601562 Z M 131.800781 114.800781 C 131.601562 114.996094 131.402344 115.195312 131.199219 115.398438 C 131.265625 115.53125 131.332031 115.664062 131.398438 115.800781 C 131.597656 115.601562 131.796875 115.402344 132 115.199219 C 131.933594 115.066406 131.867188 114.9375 131.800781 114.800781 Z M 131 115.800781 C 131.199219 116.199219 131.199219 116.199219 131.199219 116.199219 Z M 130.800781 116.199219 C 131 116.800781 131 116.800781 131 116.800781 Z M 132.601562 116.199219 C 132.800781 116.601562 132.800781 116.601562 132.800781 116.601562 Z M 130.601562 116.800781 C 130.601562 117.128906 130.601562 117.460938 130.601562 117.800781 C 130.664062 117.800781 130.730469 117.800781 130.800781 117.800781 C 130.800781 117.46875 130.800781 117.140625 130.800781 116.800781 C 130.734375 116.800781 130.667969 116.800781 130.601562 116.800781 Z M 155.675781 117.039062 C 155.316406 117.511719 155.351562 117.820312 155.398438 118.398438 C 155.730469 118.398438 156.058594 118.398438 156.398438 118.398438 C 156.398438 117.871094 156.398438 117.34375 156.398438 116.800781 C 155.988281 116.761719 155.988281 116.761719 155.675781 117.039062 Z M 140 117.199219 C 140 117.726562 140 118.257812 140 118.800781 C 141.519531 118.800781 143.035156 118.800781 144.601562 118.800781 C 144.320312 117.660156 144.320312 117.660156 143.800781 117.199219 C 143.394531 117.144531 143.394531 117.144531 142.929688 117.160156 C 142.757812 117.164062 142.589844 117.164062 142.414062 117.164062 C 142.234375 117.167969 142.058594 117.171875 141.875 117.175781 C 141.605469 117.175781 141.605469 117.175781 141.332031 117.179688 C 140.886719 117.183594 140.445312 117.191406 140 117.199219 Z M 130.398438 118 C 130.398438 118.328125 130.398438 118.660156 130.398438 119 C 130.464844 119 130.53125 119 130.601562 119 C 130.601562 118.671875 130.601562 118.339844 130.601562 118 C 130.535156 118 130.46875 118 130.398438 118 Z M 133.800781 118 C 133.171875 118.679688 133.117188 119.171875 133.125 120.085938 C 133.125 120.308594 133.121094 120.53125 133.121094 120.761719 C 133.207031 121.453125 133.402344 121.835938 133.800781 122.398438 C 133.996094 122.335938 134.195312 122.269531 134.398438 122.199219 C 134.269531 122.066406 134.136719 121.9375 134 121.800781 C 133.953125 121.292969 133.933594 120.816406 133.9375 120.3125 C 133.933594 120.175781 133.929688 120.039062 133.929688 119.898438 C 133.925781 118.894531 133.925781 118.894531 134.304688 118.40625 C 134.402344 118.335938 134.5 118.269531 134.601562 118.199219 C 134.335938 118.132812 134.070312 118.066406 133.800781 118 Z M 133.800781 118 "/>
<path style=" stroke:none;fill-rule:nonzero;fill:rgb(10.196079%,42.352942%,64.705884%);fill-opacity:1;" d="M 144.199219 64.601562 C 144.949219 64.667969 145.695312 64.6875 146.449219 64.710938 C 147.261719 64.808594 148.003906 65.003906 148.601562 65.601562 C 148.539062 66.785156 148.359375 67.480469 147.601562 68.398438 C 147.46875 68.398438 147.335938 68.398438 147.199219 68.398438 C 147.199219 68.53125 147.199219 68.664062 147.199219 68.800781 C 147.066406 68.800781 146.9375 68.800781 146.800781 68.800781 C 146.800781 68.933594 146.800781 69.0625 146.800781 69.199219 C 145.65625 70.148438 144.289062 70.789062 142.949219 71.414062 C 142.765625 71.5 142.582031 71.585938 142.390625 71.675781 C 140.640625 72.488281 138.882812 73.203125 137.03125 73.757812 C 136.015625 74.066406 135.007812 74.394531 134 74.730469 C 133.863281 74.777344 133.726562 74.824219 133.582031 74.871094 C 133.019531 75.0625 132.453125 75.253906 131.886719 75.445312 C 130.199219 76.015625 128.511719 76.554688 126.792969 77.023438 C 126.246094 77.1875 125.726562 77.378906 125.199219 77.601562 C 125.199219 77.796875 125.199219 77.996094 125.199219 78.199219 C 125.003906 78.265625 124.804688 78.332031 124.601562 78.398438 C 124.601562 78.53125 124.601562 78.664062 124.601562 78.800781 C 124.261719 79.113281 123.910156 79.410156 123.550781 79.699219 C 123.355469 79.859375 123.160156 80.019531 122.960938 80.179688 C 122.511719 80.515625 122.109375 80.777344 121.601562 81 C 121.601562 81.132812 121.601562 81.265625 121.601562 81.398438 C 121.46875 81.398438 121.335938 81.398438 121.199219 81.398438 C 121.132812 81.597656 121.066406 81.796875 121 82 C 120.65625 82.3125 120.300781 82.609375 119.9375 82.898438 C 119.746094 83.054688 119.550781 83.210938 119.351562 83.367188 C 119.171875 83.511719 118.988281 83.652344 118.800781 83.800781 C 118.664062 83.914062 118.53125 84.023438 118.390625 84.140625 C 117.925781 84.449219 117.546875 84.539062 117 84.636719 C 116.832031 84.667969 116.660156 84.699219 116.488281 84.734375 C 116 84.800781 116 84.800781 115.199219 84.800781 C 115.167969 83.753906 115.277344 82.828125 115.5 81.8125 C 115.527344 81.675781 115.558594 81.539062 115.585938 81.398438 C 115.65625 81.066406 115.726562 80.734375 115.800781 80.398438 C 114.957031 80.609375 114.109375 80.824219 113.265625 81.035156 C 112.246094 81.296875 111.222656 81.546875 110.199219 81.800781 C 109.953125 81.859375 109.710938 81.921875 109.457031 81.984375 C 104.550781 83.125 99.214844 83.085938 94.210938 82.648438 C 94.054688 82.636719 93.894531 82.625 93.730469 82.613281 C 93.066406 82.542969 92.683594 82.480469 92.199219 82.007812 C 92 81.601562 92 81.601562 92 81.199219 C 91.871094 81.171875 91.738281 81.144531 91.605469 81.117188 C 87.03125 80.167969 87.03125 80.167969 84.941406 79.714844 C 84.429688 79.605469 83.914062 79.5 83.398438 79.398438 C 83.398438 79.269531 83.398438 79.136719 83.398438 79 C 84.839844 78.3125 86.085938 78.414062 87.617188 78.613281 C 88.992188 78.789062 90.355469 78.871094 91.738281 78.925781 C 91.941406 78.933594 92.148438 78.941406 92.355469 78.949219 C 92.839844 78.96875 93.320312 78.984375 93.800781 79 C 93.671875 78.632812 93.542969 78.269531 93.414062 77.902344 C 93.304688 77.589844 93.195312 77.28125 93.085938 76.96875 C 92.71875 75.921875 92.332031 74.886719 91.914062 73.859375 C 91.777344 73.308594 91.851562 72.941406 92 72.398438 C 92.546875 72.222656 92.835938 72.140625 93.398438 72.199219 C 94.132812 72.585938 94.789062 73.042969 95.398438 73.601562 C 95.398438 73.730469 95.398438 73.863281 95.398438 74 C 95.597656 74 95.796875 74 96 74 C 96 74.132812 96 74.265625 96 74.398438 C 96.144531 74.449219 96.289062 74.5 96.433594 74.550781 C 97.0625 74.828125 97.511719 75.171875 98.039062 75.613281 C 98.683594 76.160156 98.683594 76.160156 99.398438 76.601562 C 99.398438 76.730469 99.398438 76.863281 99.398438 77 C 100.285156 77.199219 100.855469 77.1875 101.710938 76.898438 C 101.921875 76.828125 102.128906 76.761719 102.34375 76.6875 C 102.558594 76.613281 102.777344 76.539062 103 76.460938 C 103.449219 76.3125 103.894531 76.164062 104.34375 76.015625 C 104.558594 75.945312 104.773438 75.871094 104.996094 75.796875 C 106.121094 75.429688 107.257812 75.109375 108.398438 74.800781 C 107.078125 73.738281 105.667969 73.230469 104.085938 72.703125 C 103.25 72.421875 102.429688 72.105469 101.613281 71.773438 C 101.488281 71.722656 101.363281 71.671875 101.234375 71.621094 C 100.890625 71.480469 100.542969 71.339844 100.199219 71.199219 C 99.875 71.070312 99.550781 70.941406 99.226562 70.8125 C 98.625 70.574219 98.03125 70.328125 97.433594 70.082031 C 95.867188 69.429688 94.292969 68.800781 92.699219 68.214844 C 91.710938 67.847656 90.753906 67.441406 89.800781 67 C 90 66.398438 90 66.398438 90.339844 66.183594 C 90.820312 65.972656 91.300781 65.765625 91.789062 65.5625 C 91.949219 65.488281 92.113281 65.414062 92.28125 65.339844 C 94.050781 64.589844 95.601562 64.695312 97.4375 65.113281 C 99.472656 65.546875 101.515625 65.914062 103.5625 66.273438 C 106.011719 66.710938 108.457031 67.160156 110.898438 67.636719 C 112.871094 68.023438 114.84375 68.410156 116.828125 68.730469 C 117.664062 68.863281 118.46875 69.007812 119.277344 69.246094 C 121.871094 69.953125 123.972656 69.117188 126.433594 68.261719 C 128.261719 67.628906 130.117188 67.09375 131.972656 66.542969 C 132.570312 66.367188 133.167969 66.1875 133.765625 66.011719 C 134.71875 65.726562 135.671875 65.445312 136.625 65.167969 C 137.21875 64.996094 137.808594 64.816406 138.398438 64.632812 C 138.785156 64.519531 139.175781 64.40625 139.5625 64.289062 C 139.738281 64.234375 139.914062 64.179688 140.09375 64.121094 C 141.5625 63.699219 142.902344 63.734375 144.199219 64.601562 Z M 142.398438 64.800781 C 142.335938 64.933594 142.269531 65.0625 142.199219 65.199219 C 142.894531 65.101562 142.894531 65.101562 143.601562 65 C 143.601562 64.933594 143.601562 64.867188 143.601562 64.800781 C 143.203125 64.800781 142.808594 64.800781 142.398438 64.800781 Z M 137.199219 66.398438 C 137.132812 66.664062 137.066406 66.929688 137 67.199219 C 137.132812 67.132812 137.265625 67.066406 137.398438 67 C 137.335938 66.800781 137.269531 66.605469 137.199219 66.398438 Z M 135.199219 67.199219 C 135.132812 67.398438 135.066406 67.597656 135 67.800781 C 135.132812 67.800781 135.265625 67.800781 135.398438 67.800781 C 135.335938 67.601562 135.269531 67.402344 135.199219 67.199219 Z M 133.199219 67.800781 C 133.398438 68.398438 133.398438 68.398438 133.398438 68.398438 Z M 131.199219 68.398438 C 131.398438 69 131.398438 69 131.398438 69 Z M 129.398438 69 C 129.335938 69.265625 129.269531 69.527344 129.199219 69.800781 C 129.332031 69.734375 129.464844 69.667969 129.601562 69.601562 C 129.535156 69.402344 129.46875 69.203125 129.398438 69 Z M 127.199219 69.800781 C 127.199219 69.996094 127.199219 70.195312 127.199219 70.398438 C 127.332031 70.398438 127.464844 70.398438 127.601562 70.398438 C 127.601562 70.203125 127.601562 70.003906 127.601562 69.800781 C 127.46875 69.800781 127.335938 69.800781 127.199219 69.800781 Z M 127.199219 69.800781 "/>
<path style=" stroke:none;fill-rule:nonzero;fill:rgb(10.196079%,41.960785%,64.705884%);fill-opacity:1;" d="M 98.003906 27.175781 C 98.511719 27.175781 99.019531 27.175781 99.527344 27.171875 C 102.375 27.171875 105.132812 27.332031 107.9375 27.851562 C 108.179688 27.894531 108.425781 27.9375 108.675781 27.984375 C 114.273438 29.03125 119.617188 30.832031 124.601562 33.601562 C 124.976562 33.800781 125.351562 34 125.726562 34.199219 C 126.777344 34.773438 127.792969 35.398438 128.8125 36.035156 C 129.195312 36.273438 129.582031 36.503906 129.976562 36.722656 C 130.117188 36.8125 130.257812 36.90625 130.398438 37 C 130.398438 37.132812 130.398438 37.265625 130.398438 37.398438 C 130.546875 37.453125 130.695312 37.503906 130.84375 37.558594 C 131.828125 37.984375 132.582031 38.714844 133.398438 39.398438 C 133.605469 39.566406 133.808594 39.734375 134.019531 39.90625 C 135.488281 41.121094 136.863281 42.425781 138.210938 43.773438 C 138.375 43.9375 138.535156 44.097656 138.703125 44.265625 C 141 46.582031 141 46.582031 141 47.199219 C 141.132812 47.199219 141.265625 47.199219 141.398438 47.199219 C 141.792969 47.675781 142.160156 48.152344 142.523438 48.648438 C 142.6875 48.867188 142.6875 48.867188 142.851562 49.09375 C 143.742188 50.304688 144.589844 51.535156 145.398438 52.800781 C 145.527344 53 145.65625 53.199219 145.789062 53.40625 C 147.339844 55.863281 148.695312 58.390625 149.734375 61.105469 C 149.976562 61.742188 150.242188 62.371094 150.511719 63 C 153.136719 69.292969 154.03125 76.101562 154.039062 82.875 C 154.039062 83.027344 154.039062 83.179688 154.039062 83.335938 C 154.039062 85.980469 153.992188 88.628906 153.523438 91.238281 C 153.5 91.386719 153.472656 91.535156 153.445312 91.691406 C 153.226562 92.941406 152.9375 94.175781 152.601562 95.398438 C 152.269531 95.398438 151.941406 95.398438 151.601562 95.398438 C 151.574219 94.496094 151.640625 93.683594 151.804688 92.789062 C 153.824219 81.613281 151.5625 69.800781 146.398438 59.800781 C 146.332031 59.667969 146.265625 59.535156 146.195312 59.398438 C 145.339844 57.75 144.4375 56.144531 143.398438 54.601562 C 143.285156 54.433594 143.175781 54.265625 143.058594 54.089844 C 142.320312 53.019531 141.535156 52.003906 140.699219 51.007812 C 140.398438 50.601562 140.398438 50.601562 140.398438 50.199219 C 140.269531 50.199219 140.136719 50.199219 140 50.199219 C 139.757812 49.917969 139.527344 49.621094 139.300781 49.324219 C 138.375 48.167969 137.359375 47.121094 136.3125 46.074219 C 136.152344 45.914062 135.988281 45.753906 135.824219 45.585938 C 135.082031 44.800781 135.082031 44.800781 134.199219 44.199219 C 134.199219 44.066406 134.199219 43.9375 134.199219 43.800781 C 134.082031 43.742188 133.960938 43.683594 133.835938 43.625 C 133.398438 43.398438 133.398438 43.398438 132.800781 43 C 132.800781 42.867188 132.800781 42.734375 132.800781 42.601562 C 132.632812 42.519531 132.632812 42.519531 132.460938 42.4375 C 131.957031 42.179688 131.472656 41.914062 131 41.601562 C 131 41.46875 131 41.335938 131 41.199219 C 130.886719 41.148438 130.777344 41.09375 130.660156 41.039062 C 130.160156 40.78125 129.695312 40.488281 129.222656 40.183594 C 129.035156 40.0625 128.847656 39.941406 128.652344 39.820312 C 128.261719 39.566406 127.875 39.316406 127.484375 39.0625 C 115.480469 31.367188 100.695312 28.703125 86.738281 31.710938 C 79.5 33.390625 72.71875 36.457031 66.710938 40.828125 C 66.503906 40.976562 66.503906 40.976562 66.292969 41.132812 C 66.167969 41.222656 66.042969 41.3125 65.917969 41.40625 C 65.601562 41.601562 65.601562 41.601562 65.199219 41.601562 C 65.199219 41.730469 65.199219 41.863281 65.199219 42 C 64.753906 42.378906 64.304688 42.734375 63.835938 43.085938 C 63.582031 43.28125 63.328125 43.476562 63.070312 43.675781 C 62.898438 43.804688 62.898438 43.804688 62.726562 43.9375 C 62.386719 44.199219 62.386719 44.199219 62.082031 44.53125 C 61.800781 44.800781 61.800781 44.800781 61.398438 44.800781 C 61.398438 44.933594 61.398438 45.0625 61.398438 45.199219 C 61.269531 45.199219 61.136719 45.199219 61 45.199219 C 60.945312 45.328125 60.894531 45.457031 60.835938 45.585938 C 60.601562 46 60.601562 46 60 46.199219 C 60 46.332031 60 46.464844 60 46.601562 C 59.867188 46.601562 59.734375 46.601562 59.601562 46.601562 C 59.601562 46.730469 59.601562 46.863281 59.601562 47 C 59.46875 47 59.335938 47 59.199219 47 C 59.15625 47.105469 59.109375 47.214844 59.0625 47.324219 C 58.707031 47.964844 58.292969 48.457031 57.800781 49 C 57.667969 49 57.535156 49 57.398438 49 C 57.355469 49.101562 57.308594 49.207031 57.261719 49.3125 C 56.902344 49.980469 56.5 50.628906 56 51.199219 C 55.867188 51.199219 55.734375 51.199219 55.601562 51.199219 C 55.546875 51.3125 55.492188 51.421875 55.4375 51.539062 C 55.179688 52.042969 54.914062 52.527344 54.601562 53 C 54.46875 53 54.335938 53 54.199219 53 C 54.152344 53.136719 54.101562 53.273438 54.050781 53.414062 C 53.757812 54.101562 53.390625 54.726562 53 55.363281 C 52.929688 55.480469 52.859375 55.601562 52.785156 55.726562 C 52.601562 56.023438 52.402344 56.3125 52.199219 56.601562 C 52.066406 56.601562 51.9375 56.601562 51.800781 56.601562 C 51.777344 56.710938 51.753906 56.820312 51.730469 56.933594 C 51.578125 57.480469 51.347656 57.945312 51.085938 58.449219 C 50.980469 58.664062 50.871094 58.875 50.761719 59.09375 C 50.578125 59.453125 50.394531 59.8125 50.210938 60.167969 C 48.414062 63.660156 47.148438 67.09375 46.140625 70.894531 C 46.035156 71.273438 45.914062 71.644531 45.785156 72.011719 C 43.476562 79.351562 44.09375 87.945312 45.398438 95.398438 C 45.003906 95.398438 44.609375 95.398438 44.199219 95.398438 C 43.53125 93.234375 43.316406 90.992188 43.0625 88.746094 C 43.027344 88.421875 42.984375 88.09375 42.941406 87.769531 C 42.730469 86.207031 42.761719 84.625 42.761719 83.050781 C 42.761719 82.816406 42.761719 82.816406 42.761719 82.578125 C 42.765625 80.101562 42.851562 77.65625 43.199219 75.199219 C 43.230469 74.992188 43.230469 74.992188 43.257812 74.777344 C 44.429688 66.679688 47.394531 58.769531 52 52 C 52.089844 51.867188 52.179688 51.730469 52.273438 51.59375 C 53.527344 49.742188 54.855469 48.003906 56.339844 46.332031 C 56.796875 45.847656 56.796875 45.847656 57 45.398438 C 57.132812 45.398438 57.265625 45.398438 57.398438 45.398438 C 57.480469 45.21875 57.480469 45.21875 57.5625 45.039062 C 57.800781 44.601562 58.019531 44.316406 58.398438 44 C 58.53125 44 58.664062 44 58.800781 44 C 58.878906 43.820312 58.878906 43.820312 58.960938 43.636719 C 59.199219 43.199219 59.417969 42.917969 59.800781 42.601562 C 59.933594 42.601562 60.0625 42.601562 60.199219 42.601562 C 60.246094 42.484375 60.292969 42.371094 60.34375 42.253906 C 60.65625 41.703125 61.023438 41.367188 61.5 40.949219 C 61.660156 40.808594 61.816406 40.667969 61.980469 40.523438 C 62.398438 40.199219 62.398438 40.199219 62.800781 40.199219 C 62.800781 40.066406 62.800781 39.9375 62.800781 39.800781 C 62.996094 39.800781 63.195312 39.800781 63.398438 39.800781 C 63.398438 39.667969 63.398438 39.535156 63.398438 39.398438 C 63.753906 39.085938 64.109375 38.796875 64.488281 38.511719 C 64.601562 38.425781 64.71875 38.335938 64.835938 38.246094 C 66.304688 37.148438 67.847656 36.171875 69.398438 35.199219 C 69.53125 35.117188 69.660156 35.035156 69.796875 34.949219 C 72.320312 33.363281 74.941406 32.152344 77.710938 31.070312 C 78.179688 30.886719 78.644531 30.695312 79.109375 30.496094 C 85.027344 27.972656 91.625 27.15625 98.003906 27.175781 Z M 98.003906 27.175781 "/>
<path style=" stroke:none;fill-rule:nonzero;fill:rgb(32.156864%,32.156864%,32.156864%);fill-opacity:1;" d="M 81.511719 86.007812 C 81.8125 86.007812 82.113281 86.007812 82.417969 86.003906 C 83.230469 86.003906 84.042969 86.007812 84.855469 86.019531 C 85.710938 86.027344 86.5625 86.023438 87.417969 86.023438 C 88.847656 86.027344 90.28125 86.035156 91.710938 86.046875 C 93.367188 86.058594 95.019531 86.066406 96.671875 86.066406 C 98.4375 86.070312 100.203125 86.074219 101.96875 86.082031 C 102.476562 86.085938 102.984375 86.085938 103.492188 86.085938 C 104.289062 86.089844 105.082031 86.09375 105.878906 86.101562 C 106.171875 86.105469 106.464844 86.105469 106.757812 86.105469 C 107.15625 86.109375 107.554688 86.113281 107.953125 86.117188 C 108.285156 86.121094 108.285156 86.121094 108.628906 86.121094 C 109.269531 86.210938 109.542969 86.347656 110 86.800781 C 110.214844 87.449219 110.222656 87.914062 110.21875 88.597656 C 110.21875 88.828125 110.21875 89.0625 110.21875 89.300781 C 110.214844 89.542969 110.214844 89.789062 110.210938 90.039062 C 110.210938 90.28125 110.210938 90.527344 110.210938 90.78125 C 110.207031 91.386719 110.203125 91.992188 110.199219 92.601562 C 108.824219 92.425781 108.824219 92.425781 108.601562 92.199219 C 108.570312 91.886719 108.550781 91.574219 108.535156 91.261719 C 108.527344 91.074219 108.519531 90.882812 108.511719 90.6875 C 108.503906 90.492188 108.496094 90.292969 108.488281 90.085938 C 108.480469 89.886719 108.46875 89.6875 108.460938 89.484375 C 108.441406 88.988281 108.417969 88.496094 108.398438 88 C 104.753906 87.996094 101.105469 87.992188 97.457031 87.988281 C 95.765625 87.988281 94.070312 87.988281 92.378906 87.984375 C 90.902344 87.984375 89.425781 87.980469 87.953125 87.980469 C 87.171875 87.980469 86.386719 87.980469 85.605469 87.980469 C 84.871094 87.976562 84.136719 87.976562 83.402344 87.976562 C 83 87.976562 82.601562 87.976562 82.203125 87.976562 C 81.964844 87.976562 81.730469 87.976562 81.488281 87.976562 C 81.175781 87.976562 81.175781 87.976562 80.863281 87.976562 C 80.40625 87.949219 80.40625 87.949219 80.199219 88.199219 C 80.167969 88.675781 80.148438 89.144531 80.136719 89.621094 C 80.128906 89.832031 80.128906 89.832031 80.125 90.050781 C 80.109375 90.503906 80.097656 90.957031 80.085938 91.414062 C 80.078125 91.71875 80.070312 92.027344 80.0625 92.335938 C 80.039062 93.089844 80.019531 93.84375 80 94.601562 C 79.746094 94.644531 79.496094 94.691406 79.234375 94.738281 C 77.078125 95.140625 74.9375 95.578125 72.804688 96.101562 C 72.542969 96.164062 72.542969 96.164062 72.273438 96.230469 C 72.117188 96.265625 71.964844 96.304688 71.804688 96.34375 C 71.398438 96.398438 71.398438 96.398438 70.800781 96.199219 C 70.800781 96.066406 70.800781 95.9375 70.800781 95.800781 C 69.953125 95.824219 69.105469 95.847656 68.257812 95.875 C 67.96875 95.882812 67.683594 95.890625 67.394531 95.898438 C 66.980469 95.910156 66.566406 95.921875 66.152344 95.9375 C 65.777344 95.949219 65.777344 95.949219 65.394531 95.957031 C 64.816406 95.960938 64.816406 95.960938 64.398438 96.199219 C 64.335938 96.640625 64.324219 97.074219 64.308594 97.515625 C 64.199219 98 64.199219 98 63.859375 98.417969 C 63.183594 99.277344 62.796875 100.246094 62.351562 101.238281 C 61.339844 103.40625 60.355469 105.378906 58.199219 106.601562 C 57.871094 106.601562 57.539062 106.601562 57.199219 106.601562 C 57.199219 105.675781 57.199219 104.753906 57.199219 103.800781 C 56.503906 103.828125 55.808594 103.855469 55.113281 103.886719 C 54.914062 103.894531 54.714844 103.902344 54.511719 103.910156 C 54.320312 103.917969 54.132812 103.929688 53.9375 103.9375 C 53.761719 103.945312 53.589844 103.953125 53.410156 103.957031 C 53 103.957031 53 103.957031 52.800781 104.199219 C 52.769531 104.527344 52.75 104.855469 52.738281 105.183594 C 52.722656 105.480469 52.722656 105.480469 52.710938 105.78125 C 52.703125 105.988281 52.695312 106.199219 52.6875 106.414062 C 52.675781 106.726562 52.675781 106.726562 52.660156 107.046875 C 52.640625 107.5625 52.621094 108.082031 52.601562 108.601562 C 51.800781 108.9375 51 109.269531 50.199219 109.601562 C 50.074219 109.652344 49.949219 109.703125 49.816406 109.757812 C 49.429688 109.917969 49.039062 110.078125 48.648438 110.238281 C 48.292969 110.382812 48.292969 110.382812 47.929688 110.535156 C 47.15625 110.816406 46.402344 111.015625 45.601562 111.199219 C 45.566406 110.386719 45.542969 109.574219 45.523438 108.761719 C 45.511719 108.417969 45.511719 108.417969 45.496094 108.066406 C 45.464844 106.398438 45.464844 106.398438 45.847656 105.835938 C 46.160156 105.574219 46.160156 105.574219 46.800781 105.199219 C 46.933594 105.09375 47.066406 104.992188 47.203125 104.882812 C 48.132812 104.199219 48.132812 104.199219 48.800781 104.199219 C 48.800781 104.066406 48.800781 103.9375 48.800781 103.800781 C 50.535156 102.367188 52.179688 102.214844 54.351562 102.3125 C 54.628906 102.320312 54.90625 102.324219 55.183594 102.332031 C 55.855469 102.347656 56.527344 102.371094 57.199219 102.398438 C 57.195312 102.285156 57.191406 102.167969 57.183594 102.046875 C 57.164062 101.519531 57.148438 100.992188 57.136719 100.460938 C 57.128906 100.28125 57.121094 100.097656 57.113281 99.910156 C 57.085938 98.550781 57.085938 98.550781 57.632812 97.820312 C 58.191406 97.40625 58.742188 97.003906 59.324219 96.625 C 59.511719 96.5 59.703125 96.378906 59.894531 96.25 C 60.003906 96.183594 60.113281 96.117188 60.226562 96.050781 C 60.621094 95.796875 60.621094 95.796875 61.023438 95.441406 C 62.84375 94.023438 64.746094 94.242188 66.9375 94.3125 C 67.3125 94.320312 67.6875 94.324219 68.0625 94.332031 C 68.976562 94.347656 69.886719 94.371094 70.800781 94.398438 C 70.796875 94.207031 70.792969 94.011719 70.789062 93.8125 C 70.789062 93.558594 70.785156 93.304688 70.78125 93.042969 C 70.78125 92.792969 70.777344 92.539062 70.773438 92.28125 C 70.808594 91.390625 70.953125 91.019531 71.601562 90.398438 C 72.070312 90.078125 72.550781 89.792969 73.046875 89.511719 C 73.597656 89.199219 74.128906 88.867188 74.664062 88.523438 C 74.835938 88.414062 75.011719 88.304688 75.191406 88.191406 C 75.589844 87.933594 75.984375 87.664062 76.371094 87.386719 C 78.074219 86.207031 79.425781 85.972656 81.511719 86.007812 Z M 81.511719 86.007812 "/>
<path style=" stroke:none;fill-rule:nonzero;fill:rgb(10.980392%,21.568628%,39.215687%);fill-opacity:1;" d="M 29 130.601562 C 30.847656 130.601562 32.695312 130.601562 34.601562 130.601562 C 35.273438 132.625 35.273438 132.625 35.519531 133.582031 C 35.574219 133.785156 35.625 133.984375 35.679688 134.195312 C 35.730469 134.398438 35.785156 134.601562 35.835938 134.8125 C 35.917969 135.128906 35.917969 135.128906 36.003906 135.453125 C 36.136719 135.96875 36.269531 136.484375 36.398438 137 C 36.460938 136.773438 36.460938 136.773438 36.523438 136.542969 C 36.707031 135.851562 36.890625 135.164062 37.074219 134.476562 C 37.171875 134.117188 37.171875 134.117188 37.265625 133.753906 C 37.328125 133.523438 37.390625 133.292969 37.453125 133.054688 C 37.511719 132.84375 37.566406 132.632812 37.625 132.414062 C 37.800781 131.804688 38 131.203125 38.199219 130.601562 C 39.980469 130.601562 41.765625 130.601562 43.601562 130.601562 C 43.601562 134.691406 43.601562 138.785156 43.601562 143 C 42.28125 143 40.960938 143 39.601562 143 C 39.535156 141.152344 39.46875 139.304688 39.398438 137.398438 C 38.949219 139.09375 38.949219 139.09375 38.496094 140.785156 C 38.441406 140.996094 38.382812 141.207031 38.324219 141.421875 C 38.269531 141.640625 38.210938 141.855469 38.152344 142.078125 C 38 142.601562 38 142.601562 37.800781 143 C 36.742188 143 35.6875 143 34.601562 143 C 34.09375 141.722656 33.714844 140.429688 33.363281 139.101562 C 33.175781 138.40625 32.992188 137.714844 32.800781 137 C 32.800781 138.980469 32.800781 140.960938 32.800781 143 C 31.546875 143 30.292969 143 29 143 C 29 138.90625 29 134.816406 29 130.601562 Z M 39.601562 136 C 39.800781 136.800781 39.800781 136.800781 39.800781 136.800781 Z M 39.601562 136 "/>
<path style=" stroke:none;fill-rule:nonzero;fill:rgb(10.980392%,21.568628%,39.215687%);fill-opacity:1;" d="M 110.601562 130.601562 C 114.199219 130.601562 114.199219 130.601562 115.414062 131.761719 C 115.710938 132.148438 115.710938 132.148438 115.917969 132.476562 C 116.371094 133.167969 116.867188 133.78125 117.398438 134.414062 C 117.882812 135 118.34375 135.59375 118.800781 136.199219 C 118.867188 134.351562 118.933594 132.503906 119 130.601562 C 120.253906 130.601562 121.507812 130.601562 122.800781 130.601562 C 122.800781 134.691406 122.800781 138.785156 122.800781 143 C 119 143 119 143 118.128906 142.429688 C 117.84375 142.054688 117.84375 142.054688 117.585938 141.648438 C 117.488281 141.515625 117.386719 141.378906 117.285156 141.242188 C 117.082031 140.96875 116.882812 140.6875 116.6875 140.40625 C 116.328125 139.898438 115.9375 139.429688 115.53125 138.957031 C 115.148438 138.507812 114.777344 138.054688 114.398438 137.601562 C 114.335938 139.382812 114.269531 141.164062 114.199219 143 C 113.011719 143 111.824219 143 110.601562 143 C 110.601562 138.90625 110.601562 134.816406 110.601562 130.601562 Z M 110.601562 130.601562 "/>
<path style=" stroke:none;fill-rule:nonzero;fill:rgb(10.980392%,21.568628%,39.215687%);fill-opacity:1;" d="M 151.851562 130.550781 C 152.011719 130.546875 152.171875 130.542969 152.339844 130.539062 C 153.980469 130.527344 155.699219 130.914062 156.90625 132.101562 C 158.371094 133.707031 158.667969 135.398438 158.640625 137.53125 C 158.515625 139.519531 157.714844 140.859375 156.351562 142.261719 C 154.289062 143.527344 151.695312 143.433594 149.367188 143.113281 C 147.992188 142.769531 146.898438 141.976562 146.128906 140.78125 C 145.132812 138.863281 145.09375 136.445312 145.535156 134.355469 C 146.125 132.773438 147.066406 131.664062 148.59375 130.945312 C 149.667969 130.5625 150.722656 130.558594 151.851562 130.550781 Z M 149.835938 134.585938 C 149.210938 135.671875 149.234375 137.066406 149.507812 138.265625 C 149.703125 138.839844 149.933594 139.320312 150.324219 139.789062 C 151.066406 140.117188 151.789062 140.226562 152.601562 140.199219 C 153.351562 139.890625 153.769531 139.488281 154.199219 138.800781 C 154.429688 138.109375 154.441406 137.550781 154.449219 136.824219 C 154.457031 136.582031 154.460938 136.339844 154.464844 136.089844 C 154.394531 135.347656 154.246094 134.988281 153.800781 134.398438 C 153.191406 133.898438 152.78125 133.625 152 133.511719 C 151.109375 133.640625 150.457031 133.925781 149.835938 134.585938 Z M 149.835938 134.585938 "/>
<path style=" stroke:none;fill-rule:nonzero;fill:rgb(10.980392%,21.568628%,39.215687%);fill-opacity:1;" d="M 170.289062 131.835938 C 170.964844 132.625 171.199219 133.578125 171.199219 134.601562 C 170.578125 134.628906 169.957031 134.648438 169.335938 134.664062 C 169.160156 134.671875 168.984375 134.679688 168.804688 134.6875 C 168.316406 134.695312 167.878906 134.699219 167.398438 134.601562 C 167.042969 134.101562 167.042969 134.101562 166.800781 133.601562 C 166.300781 133.480469 166.300781 133.480469 165.761719 133.539062 C 165.582031 133.546875 165.402344 133.554688 165.214844 133.566406 C 165.078125 133.578125 164.941406 133.589844 164.800781 133.601562 C 164.734375 133.863281 164.667969 134.128906 164.601562 134.398438 C 164.738281 134.4375 164.875 134.472656 165.015625 134.507812 C 165.644531 134.675781 166.273438 134.851562 166.898438 135.023438 C 167.117188 135.082031 167.332031 135.136719 167.554688 135.195312 C 168.96875 135.59375 170.445312 136.066406 171.238281 137.398438 C 171.652344 138.417969 171.574219 139.800781 171.269531 140.847656 C 170.710938 141.929688 169.769531 142.554688 168.683594 143.023438 C 167.761719 143.261719 166.894531 143.265625 165.949219 143.261719 C 165.773438 143.265625 165.59375 143.269531 165.410156 143.273438 C 163.90625 143.273438 162.347656 143.074219 161.113281 142.148438 C 160.097656 141.058594 160 140.292969 160 138.800781 C 161.253906 138.800781 162.507812 138.800781 163.800781 138.800781 C 163.996094 139.195312 164.195312 139.59375 164.398438 140 C 165.316406 140.257812 166.078125 140.203125 167 140 C 167 139.734375 167 139.472656 167 139.199219 C 166.882812 139.171875 166.765625 139.140625 166.644531 139.109375 C 161.578125 137.785156 161.578125 137.785156 160.375 136.261719 C 160.027344 134.945312 160.007812 133.640625 160.601562 132.398438 C 161.492188 131.292969 162.636719 130.792969 163.988281 130.449219 C 166.199219 130.269531 168.5 130.351562 170.289062 131.835938 Z M 170.289062 131.835938 "/>
<path style=" stroke:none;fill-rule:nonzero;fill:rgb(10.980392%,21.568628%,39.215687%);fill-opacity:1;" d="M 45.800781 130.800781 C 47.1875 130.800781 48.570312 130.800781 50 130.800781 C 50.003906 131.382812 50.011719 131.964844 50.015625 132.566406 C 50.023438 133.128906 50.03125 133.695312 50.042969 134.257812 C 50.046875 134.652344 50.050781 135.042969 50.054688 135.4375 C 50.058594 136 50.066406 136.5625 50.078125 137.128906 C 50.078125 137.304688 50.078125 137.480469 50.078125 137.660156 C 50.097656 138.65625 50.097656 138.65625 50.582031 139.503906 C 51.292969 140.007812 51.726562 140.050781 52.601562 140 C 53.125 139.824219 53.332031 139.710938 53.617188 139.234375 C 53.808594 138.78125 53.855469 138.464844 53.863281 137.976562 C 53.867188 137.816406 53.871094 137.65625 53.875 137.488281 C 53.878906 137.320312 53.878906 137.148438 53.882812 136.972656 C 53.886719 136.796875 53.890625 136.617188 53.894531 136.4375 C 53.90625 135.875 53.914062 135.3125 53.925781 134.75 C 53.933594 134.367188 53.941406 133.988281 53.949219 133.605469 C 53.96875 132.667969 53.984375 131.734375 54 130.800781 C 55.386719 130.800781 56.773438 130.800781 58.199219 130.800781 C 58.210938 131.878906 58.21875 132.957031 58.222656 134.035156 C 58.222656 134.398438 58.226562 134.765625 58.230469 135.132812 C 58.234375 135.660156 58.238281 136.1875 58.238281 136.71875 C 58.242188 136.878906 58.242188 137.039062 58.246094 137.207031 C 58.246094 138.820312 58.070312 140.332031 57 141.601562 C 55.066406 143.355469 52.945312 143.351562 50.457031 143.238281 C 48.933594 143.109375 47.59375 142.359375 46.601562 141.199219 C 45.828125 139.761719 45.769531 138.371094 45.78125 136.777344 C 45.78125 136.605469 45.78125 136.433594 45.78125 136.257812 C 45.78125 135.714844 45.785156 135.167969 45.789062 134.625 C 45.789062 134.253906 45.789062 133.882812 45.789062 133.515625 C 45.792969 132.609375 45.796875 131.703125 45.800781 130.800781 Z M 45.800781 130.800781 "/>
<path style=" stroke:none;fill-rule:nonzero;fill:rgb(10.980392%,21.568628%,39.215687%);fill-opacity:1;" d="M 97.800781 130.800781 C 101.296875 130.800781 104.796875 130.800781 108.398438 130.800781 C 108.398438 131.789062 108.398438 132.78125 108.398438 133.800781 C 106.222656 133.800781 104.042969 133.800781 101.800781 133.800781 C 101.800781 134.328125 101.800781 134.855469 101.800781 135.398438 C 103.648438 135.398438 105.496094 135.398438 107.398438 135.398438 C 107.398438 136.324219 107.398438 137.246094 107.398438 138.199219 C 105.550781 138.199219 103.703125 138.199219 101.800781 138.199219 C 101.800781 138.792969 101.800781 139.386719 101.800781 140 C 104.042969 140 106.289062 140 108.601562 140 C 108.601562 140.988281 108.601562 141.980469 108.601562 143 C 105.035156 143 101.472656 143 97.800781 143 C 97.800781 138.972656 97.800781 134.949219 97.800781 130.800781 Z M 97.800781 130.800781 "/>
<path style=" stroke:none;fill-rule:nonzero;fill:rgb(10.196079%,42.352942%,65.098041%);fill-opacity:1;" d="M 56 150.800781 C 57.519531 150.800781 59.035156 150.800781 60.601562 150.800781 C 61.1875 152.988281 61.1875 152.988281 61.371094 153.679688 C 61.421875 153.855469 61.46875 154.035156 61.519531 154.21875 C 61.566406 154.402344 61.617188 154.585938 61.667969 154.773438 C 61.761719 155.191406 61.761719 155.191406 62 155.398438 C 62.59375 153.121094 62.59375 153.121094 63.199219 150.800781 C 64.652344 150.800781 66.105469 150.800781 67.601562 150.800781 C 67.601562 154.035156 67.601562 157.269531 67.601562 160.601562 C 66.542969 160.601562 65.488281 160.601562 64.398438 160.601562 C 64.335938 159.28125 64.269531 157.960938 64.199219 156.601562 C 63.878906 157.839844 63.878906 157.839844 63.558594 159.082031 C 63.519531 159.238281 63.480469 159.390625 63.4375 159.550781 C 63.398438 159.707031 63.355469 159.867188 63.316406 160.027344 C 63.199219 160.398438 63.199219 160.398438 63 160.601562 C 62.132812 160.628906 61.269531 160.609375 60.398438 160.601562 C 60.003906 159.214844 59.609375 157.828125 59.199219 156.398438 C 59.132812 157.785156 59.066406 159.171875 59 160.601562 C 58.011719 160.601562 57.019531 160.601562 56 160.601562 C 56 157.367188 56 154.132812 56 150.800781 Z M 56 150.800781 "/>
<path style=" stroke:none;fill-rule:nonzero;fill:rgb(10.980392%,21.568628%,39.215687%);fill-opacity:1;" d="M 124.199219 130.800781 C 125.652344 130.800781 127.105469 130.800781 128.601562 130.800781 C 128.855469 131.585938 129.109375 132.375 129.363281 133.164062 C 129.433594 133.382812 129.503906 133.601562 129.578125 133.828125 C 129.980469 135.074219 130.351562 136.324219 130.679688 137.59375 C 130.761719 137.996094 130.761719 137.996094 131 138.199219 C 132.089844 134.535156 132.089844 134.535156 133.199219 130.800781 C 134.585938 130.800781 135.972656 130.800781 137.398438 130.800781 C 136.949219 132.824219 136.949219 132.824219 136.628906 133.738281 C 136.554688 133.941406 136.484375 134.144531 136.410156 134.355469 C 136.296875 134.671875 136.296875 134.671875 136.179688 135 C 136.101562 135.222656 136.023438 135.445312 135.941406 135.675781 C 135.777344 136.144531 135.609375 136.613281 135.441406 137.082031 C 135.1875 137.804688 134.933594 138.523438 134.679688 139.246094 C 134.515625 139.699219 134.355469 140.15625 134.191406 140.613281 C 134.117188 140.828125 134.039062 141.046875 133.960938 141.269531 C 133.890625 141.464844 133.820312 141.664062 133.746094 141.871094 C 133.683594 142.042969 133.621094 142.21875 133.558594 142.402344 C 133.398438 142.800781 133.398438 142.800781 133.199219 143 C 132.84375 143.015625 132.488281 143.019531 132.128906 143.019531 C 131.914062 143.019531 131.699219 143.019531 131.476562 143.015625 C 131.25 143.015625 131.023438 143.015625 130.789062 143.011719 C 130.558594 143.011719 130.332031 143.011719 130.097656 143.007812 C 129.53125 143.007812 128.964844 143.003906 128.398438 143 C 127.910156 141.617188 127.421875 140.230469 126.933594 138.847656 C 126.707031 138.207031 126.480469 137.5625 126.253906 136.917969 C 125.992188 136.179688 125.730469 135.441406 125.46875 134.699219 C 125.390625 134.46875 125.308594 134.242188 125.226562 134.003906 C 125.148438 133.789062 125.074219 133.574219 124.996094 133.351562 C 124.925781 133.160156 124.859375 132.972656 124.792969 132.777344 C 124.574219 132.125 124.390625 131.460938 124.199219 130.800781 Z M 124.199219 130.800781 "/>
<path style=" stroke:none;fill-rule:nonzero;fill:rgb(10.980392%,21.568628%,39.215687%);fill-opacity:1;" d="M 71.398438 130.601562 C 75.359375 130.601562 79.320312 130.601562 83.398438 130.601562 C 83.398438 131.65625 83.398438 132.710938 83.398438 133.800781 C 82.078125 133.800781 80.761719 133.800781 79.398438 133.800781 C 79.398438 136.835938 79.398438 139.871094 79.398438 143 C 78.078125 143 76.761719 143 75.398438 143 C 75.398438 139.964844 75.398438 136.929688 75.398438 133.800781 C 74.078125 133.800781 72.761719 133.800781 71.398438 133.800781 C 71.398438 132.742188 71.398438 131.6875 71.398438 130.601562 Z M 71.398438 130.601562 "/>
<path style=" stroke:none;fill-rule:nonzero;fill:rgb(10.196079%,42.352942%,65.098041%);fill-opacity:1;" d="M 123 150.800781 C 124.167969 150.789062 125.335938 150.773438 126.539062 150.761719 C 127.085938 150.753906 127.085938 150.753906 127.648438 150.746094 C 127.941406 150.746094 128.234375 150.742188 128.527344 150.742188 C 128.675781 150.738281 128.828125 150.734375 128.984375 150.730469 C 129.898438 150.730469 130.472656 150.835938 131.199219 151.398438 C 132.078125 152.398438 132.269531 152.980469 132.257812 154.292969 C 132.175781 155.03125 131.886719 155.449219 131.398438 156 C 131.136719 156.203125 130.871094 156.40625 130.601562 156.601562 C 130.65625 156.699219 130.710938 156.800781 130.765625 156.902344 C 131.011719 157.355469 131.253906 157.808594 131.5 158.261719 C 131.585938 158.417969 131.671875 158.578125 131.761719 158.738281 C 131.839844 158.890625 131.921875 159.042969 132.007812 159.199219 C 132.121094 159.40625 132.121094 159.40625 132.234375 159.621094 C 132.398438 160 132.398438 160 132.398438 160.601562 C 131.210938 160.601562 130.023438 160.601562 128.800781 160.601562 C 128.535156 160.082031 128.273438 159.558594 128 159.023438 C 127.917969 158.863281 127.832031 158.699219 127.746094 158.53125 C 127.648438 158.335938 127.648438 158.335938 127.550781 158.140625 C 127.484375 158.007812 127.414062 157.875 127.347656 157.738281 C 127.199219 157.398438 127.199219 157.398438 127.199219 157 C 126.871094 157 126.539062 157 126.199219 157 C 126.199219 158.1875 126.199219 159.375 126.199219 160.601562 C 125.144531 160.601562 124.089844 160.601562 123 160.601562 C 123 157.367188 123 154.132812 123 150.800781 Z M 126.199219 153 C 126.199219 153.59375 126.199219 154.1875 126.199219 154.800781 C 126.941406 154.855469 127.660156 154.894531 128.398438 154.800781 C 128.859375 154.339844 128.859375 154.339844 129 153.800781 C 128.726562 153.359375 128.726562 153.359375 128.199219 153 C 127.527344 152.929688 126.871094 152.953125 126.199219 153 Z M 126.199219 153 "/>
<path style=" stroke:none;fill-rule:nonzero;fill:rgb(10.196079%,42.352942%,64.705884%);fill-opacity:1;" d="M 111.199219 150.800781 C 112.894531 150.78125 112.894531 150.78125 114.625 150.761719 C 114.980469 150.757812 115.335938 150.75 115.699219 150.746094 C 115.984375 150.746094 116.265625 150.742188 116.550781 150.742188 C 116.695312 150.738281 116.839844 150.734375 116.992188 150.730469 C 118.1875 150.730469 118.984375 151.015625 119.863281 151.824219 C 120.324219 152.609375 120.441406 153.292969 120.398438 154.199219 C 120.109375 155.132812 119.765625 155.785156 119 156.398438 C 118.867188 156.398438 118.734375 156.398438 118.601562 156.398438 C 118.660156 156.511719 118.722656 156.625 118.785156 156.742188 C 119.054688 157.253906 119.328125 157.765625 119.601562 158.273438 C 119.742188 158.542969 119.742188 158.542969 119.890625 158.8125 C 119.980469 158.984375 120.070312 159.15625 120.164062 159.328125 C 120.246094 159.488281 120.328125 159.644531 120.417969 159.804688 C 120.601562 160.199219 120.601562 160.199219 120.601562 160.601562 C 119.410156 160.601562 118.222656 160.601562 117 160.601562 C 116.734375 160.082031 116.472656 159.558594 116.199219 159.023438 C 116.117188 158.863281 116.03125 158.699219 115.945312 158.53125 C 115.847656 158.335938 115.847656 158.335938 115.75 158.140625 C 115.683594 158.007812 115.617188 157.875 115.546875 157.738281 C 115.398438 157.398438 115.398438 157.398438 115.398438 157 C 115.070312 157 114.738281 157 114.398438 157 C 114.398438 158.1875 114.398438 159.375 114.398438 160.601562 C 113.34375 160.601562 112.289062 160.601562 111.199219 160.601562 C 111.199219 157.367188 111.199219 154.132812 111.199219 150.800781 Z M 114.398438 153 C 114.398438 153.59375 114.398438 154.1875 114.398438 154.800781 C 114.757812 154.8125 115.117188 154.820312 115.476562 154.824219 C 115.675781 154.828125 115.875 154.835938 116.078125 154.839844 C 116.632812 154.855469 116.632812 154.855469 117 154.398438 C 117.082031 153.898438 117.082031 153.898438 117 153.398438 C 116.335938 152.957031 116.132812 152.953125 115.363281 152.976562 C 115.09375 152.980469 115.09375 152.980469 114.816406 152.984375 C 114.609375 152.992188 114.609375 152.992188 114.398438 153 Z M 114.398438 153 "/>
<path style=" stroke:none;fill-rule:nonzero;fill:rgb(10.980392%,21.568628%,39.215687%);fill-opacity:1;" d="M 60.601562 130.800781 C 61.921875 130.800781 63.238281 130.800781 64.601562 130.800781 C 64.601562 133.769531 64.601562 136.738281 64.601562 139.800781 C 66.644531 139.800781 68.691406 139.800781 70.800781 139.800781 C 70.800781 140.855469 70.800781 141.910156 70.800781 143 C 67.433594 143 64.066406 143 60.601562 143 C 60.601562 138.972656 60.601562 134.949219 60.601562 130.800781 Z M 60.601562 130.800781 "/>
<path style=" stroke:none;fill-rule:nonzero;fill:rgb(10.196079%,42.352942%,64.705884%);fill-opacity:1;" d="M 100 150.800781 C 102.839844 150.800781 105.675781 150.800781 108.601562 150.800781 C 108.601562 151.59375 108.601562 152.382812 108.601562 153.199219 C 106.882812 153.199219 105.167969 153.199219 103.398438 153.199219 C 103.398438 153.660156 103.398438 154.125 103.398438 154.601562 C 104.851562 154.601562 106.304688 154.601562 107.800781 154.601562 C 107.800781 155.324219 107.800781 156.050781 107.800781 156.800781 C 106.347656 156.800781 104.894531 156.800781 103.398438 156.800781 C 103.398438 157.261719 103.398438 157.722656 103.398438 158.199219 C 105.117188 158.199219 106.832031 158.199219 108.601562 158.199219 C 108.601562 158.992188 108.601562 159.785156 108.601562 160.601562 C 105.761719 160.601562 102.925781 160.601562 100 160.601562 C 100 157.367188 100 154.132812 100 150.800781 Z M 100 150.800781 "/>
<path style=" stroke:none;fill-rule:nonzero;fill:rgb(10.196079%,42.352942%,65.098041%);fill-opacity:1;" d="M 137.398438 150.800781 C 138.652344 150.800781 139.90625 150.800781 141.199219 150.800781 C 141.804688 152.398438 142.402344 154 143 155.601562 C 143.078125 155.8125 143.160156 156.027344 143.242188 156.25 C 143.46875 156.851562 143.691406 157.457031 143.914062 158.0625 C 143.980469 158.25 144.050781 158.433594 144.121094 158.625 C 144.183594 158.796875 144.25 158.96875 144.3125 159.148438 C 144.367188 159.296875 144.425781 159.449219 144.480469 159.605469 C 144.601562 160 144.601562 160 144.601562 160.601562 C 143.476562 160.601562 142.355469 160.601562 141.199219 160.601562 C 141.066406 160.136719 140.9375 159.675781 140.800781 159.199219 C 139.742188 159.199219 138.6875 159.199219 137.601562 159.199219 C 137.535156 159.660156 137.46875 160.125 137.398438 160.601562 C 136.277344 160.601562 135.15625 160.601562 134 160.601562 C 134.136719 159.921875 134.265625 159.359375 134.496094 158.722656 C 134.554688 158.554688 134.613281 158.386719 134.675781 158.214844 C 134.738281 158.039062 134.804688 157.863281 134.867188 157.679688 C 134.933594 157.496094 135 157.3125 135.066406 157.121094 C 135.207031 156.734375 135.347656 156.34375 135.484375 155.957031 C 135.699219 155.363281 135.914062 154.765625 136.125 154.171875 C 136.261719 153.796875 136.394531 153.417969 136.53125 153.042969 C 136.59375 152.863281 136.660156 152.683594 136.726562 152.5 C 136.785156 152.335938 136.84375 152.171875 136.90625 152 C 136.984375 151.78125 136.984375 151.78125 137.0625 151.558594 C 137.199219 151.199219 137.199219 151.199219 137.398438 150.800781 Z M 139.199219 154 C 139.066406 154.386719 138.933594 154.773438 138.800781 155.164062 C 138.726562 155.378906 138.652344 155.59375 138.574219 155.816406 C 138.371094 156.394531 138.371094 156.394531 138.398438 157 C 138.992188 157 139.589844 157 140.199219 157 C 139.9375 156.011719 139.671875 155.019531 139.398438 154 C 139.335938 154 139.269531 154 139.199219 154 Z M 139.199219 154 "/>
<path style=" stroke:none;fill-rule:nonzero;fill:rgb(10.980392%,21.568628%,39.215687%);fill-opacity:1;" d="M 85.199219 130.601562 C 86.585938 130.601562 87.972656 130.601562 89.398438 130.601562 C 89.398438 134.691406 89.398438 138.785156 89.398438 143 C 88.015625 143 86.628906 143 85.199219 143 C 85.199219 138.90625 85.199219 134.816406 85.199219 130.601562 Z M 85.199219 130.601562 "/>
<path style=" stroke:none;fill-rule:nonzero;fill:rgb(10.980392%,21.568628%,39.215687%);fill-opacity:1;" d="M 139.199219 130.601562 C 140.519531 130.601562 141.839844 130.601562 143.199219 130.601562 C 143.199219 134.691406 143.199219 138.785156 143.199219 143 C 141.8125 143 140.429688 143 139 143 C 138.996094 141.414062 138.992188 139.824219 138.988281 138.238281 C 138.988281 137.5 138.988281 136.765625 138.984375 136.027344 C 138.984375 135.316406 138.980469 134.605469 138.980469 133.894531 C 138.980469 133.625 138.980469 133.351562 138.980469 133.082031 C 138.976562 132.703125 138.976562 132.320312 138.976562 131.941406 C 138.976562 131.726562 138.976562 131.511719 138.976562 131.289062 C 139 130.800781 139 130.800781 139.199219 130.601562 Z M 139.199219 130.601562 "/>
<path style=" stroke:none;fill-rule:nonzero;fill:rgb(10.196079%,42.352942%,64.705884%);fill-opacity:1;" d="M 81.800781 150.800781 C 84.96875 150.800781 88.136719 150.800781 91.398438 150.800781 C 91.398438 151.65625 91.398438 152.515625 91.398438 153.398438 C 90.34375 153.398438 89.289062 153.398438 88.199219 153.398438 C 88.199219 155.777344 88.199219 158.152344 88.199219 160.601562 C 87.144531 160.601562 86.089844 160.601562 85 160.601562 C 85 158.222656 85 155.847656 85 153.398438 C 83.945312 153.398438 82.886719 153.398438 81.800781 153.398438 C 81.800781 152.542969 81.800781 151.683594 81.800781 150.800781 Z M 81.800781 150.800781 "/>
<path style=" stroke:none;fill-rule:nonzero;fill:rgb(10.196079%,42.352942%,64.705884%);fill-opacity:1;" d="M 93.800781 150.800781 C 94.855469 150.800781 95.910156 150.800781 97 150.800781 C 97 154.035156 97 157.269531 97 160.601562 C 95.945312 160.601562 94.886719 160.601562 93.800781 160.601562 C 93.800781 157.367188 93.800781 154.132812 93.800781 150.800781 Z M 93.800781 150.800781 "/>
<path style=" stroke:none;fill-rule:nonzero;fill:rgb(10.196079%,42.352942%,64.705884%);fill-opacity:1;" d="M 70.601562 150.800781 C 71.65625 150.800781 72.710938 150.800781 73.800781 150.800781 C 73.800781 154.035156 73.800781 157.269531 73.800781 160.601562 C 72.742188 160.601562 71.6875 160.601562 70.601562 160.601562 C 70.601562 157.367188 70.601562 154.132812 70.601562 150.800781 Z M 70.601562 150.800781 "/>
<path style=" stroke:none;fill-rule:nonzero;fill:rgb(98.823529%,99.215686%,99.607843%);fill-opacity:1;" d="M 92.199219 105.199219 C 92.265625 105.199219 92.332031 105.199219 92.398438 105.199219 C 92.429688 105.542969 92.429688 105.542969 92.460938 105.894531 C 92.488281 106.199219 92.519531 106.507812 92.550781 106.8125 C 92.5625 106.964844 92.574219 107.113281 92.585938 107.269531 C 92.703125 108.363281 92.949219 109.101562 93.601562 110 C 94.996094 110.910156 96.78125 110.949219 98.398438 111 C 98.398438 111.066406 98.398438 111.132812 98.398438 111.199219 C 98.15625 111.21875 97.914062 111.238281 97.660156 111.257812 C 97.335938 111.289062 97.011719 111.320312 96.6875 111.351562 C 96.527344 111.363281 96.367188 111.375 96.203125 111.386719 C 95.074219 111.496094 94.316406 111.71875 93.398438 112.398438 C 92.78125 113.304688 92.667969 114.210938 92.5625 115.273438 C 92.546875 115.421875 92.53125 115.570312 92.511719 115.722656 C 92.472656 116.082031 92.4375 116.441406 92.398438 116.800781 C 92.335938 116.800781 92.269531 116.800781 92.199219 116.800781 C 92.179688 116.597656 92.15625 116.394531 92.132812 116.1875 C 92.101562 115.914062 92.070312 115.644531 92.039062 115.375 C 92.023438 115.242188 92.007812 115.109375 91.996094 114.972656 C 91.855469 113.835938 91.566406 112.964844 90.75 112.148438 C 89.304688 111.230469 87.667969 111.289062 86 111.199219 C 86 111.132812 86 111.066406 86 111 C 86.246094 110.976562 86.492188 110.957031 86.746094 110.933594 C 87.070312 110.902344 87.398438 110.871094 87.726562 110.835938 C 87.886719 110.824219 88.046875 110.808594 88.214844 110.796875 C 89.421875 110.671875 90.351562 110.433594 91.25 109.5625 C 92.066406 108.246094 92.09375 106.710938 92.199219 105.199219 Z M 92.199219 105.199219 "/>
<path style=" stroke:none;fill-rule:nonzero;fill:rgb(10.980392%,21.568628%,39.215687%);fill-opacity:1;" d="M 92.375 136.574219 C 92.570312 136.574219 92.769531 136.574219 92.972656 136.574219 C 93.179688 136.574219 93.386719 136.574219 93.601562 136.574219 C 93.910156 136.574219 93.910156 136.574219 94.226562 136.574219 C 94.425781 136.574219 94.621094 136.574219 94.824219 136.574219 C 95.007812 136.574219 95.1875 136.574219 95.375 136.574219 C 95.800781 136.601562 95.800781 136.601562 96 136.800781 C 96.027344 137.734375 96.007812 138.664062 96 139.601562 C 94.414062 139.601562 92.832031 139.601562 91.199219 139.601562 C 91.179688 137.433594 91.179688 137.433594 91.199219 136.800781 C 91.53125 136.46875 91.921875 136.574219 92.375 136.574219 Z M 92.375 136.574219 "/>
<path style=" stroke:none;fill-rule:nonzero;fill:rgb(10.980392%,21.568628%,39.215687%);fill-opacity:1;" d="M 141.847656 127.140625 C 142.007812 127.144531 142.167969 127.144531 142.332031 127.148438 C 142.5 127.152344 142.664062 127.15625 142.835938 127.164062 C 143.089844 127.167969 143.089844 127.167969 143.347656 127.171875 C 143.765625 127.179688 144.183594 127.1875 144.601562 127.199219 C 142.820312 129.496094 142.820312 129.496094 141.304688 129.6875 C 140.664062 129.6875 140.039062 129.660156 139.398438 129.601562 C 139.554688 129.3125 139.707031 129.023438 139.863281 128.738281 C 139.949219 128.578125 140.035156 128.417969 140.121094 128.253906 C 140.601562 127.472656 140.902344 127.121094 141.847656 127.140625 Z M 141.847656 127.140625 "/>
<path style=" stroke:none;fill-rule:nonzero;fill:rgb(9.411765%,41.568628%,63.529414%);fill-opacity:1;" d="M 81.199219 125.398438 C 81.199219 125.53125 81.199219 125.664062 81.199219 125.800781 C 80.964844 125.808594 80.726562 125.820312 80.484375 125.828125 C 80.171875 125.84375 79.863281 125.859375 79.550781 125.875 C 79.394531 125.882812 79.238281 125.886719 79.078125 125.894531 C 78.929688 125.902344 78.777344 125.910156 78.621094 125.917969 C 78.484375 125.921875 78.34375 125.929688 78.203125 125.9375 C 77.789062 125.980469 77.789062 125.980469 77.402344 126.203125 C 76.683594 126.554688 75.914062 126.464844 75.125 126.460938 C 74.957031 126.464844 74.789062 126.46875 74.617188 126.472656 C 73.589844 126.472656 72.898438 126.355469 72 125.800781 C 72 125.734375 72 125.667969 72 125.601562 C 72.136719 125.589844 72.269531 125.578125 72.410156 125.566406 C 73.023438 125.515625 73.636719 125.464844 74.25 125.414062 C 74.570312 125.386719 74.570312 125.386719 74.894531 125.359375 C 75.097656 125.34375 75.304688 125.324219 75.515625 125.308594 C 75.796875 125.285156 75.796875 125.285156 76.085938 125.257812 C 77.917969 125.046875 79.367188 124.902344 81.199219 125.398438 Z M 81.199219 125.398438 "/>
<path style=" stroke:none;fill-rule:nonzero;fill:rgb(98.823529%,99.215686%,99.215686%);fill-opacity:1;" d="M 87.199219 101.800781 C 87.332031 101.867188 87.464844 101.933594 87.601562 102 C 87.710938 102.335938 87.710938 102.335938 87.824219 102.675781 C 88.019531 103.171875 88.125 103.359375 88.59375 103.625 C 88.988281 103.769531 89.394531 103.886719 89.800781 104 C 89.800781 104.066406 89.800781 104.132812 89.800781 104.199219 C 89.617188 104.242188 89.617188 104.242188 89.425781 104.28125 C 88.460938 104.511719 88.460938 104.511719 87.746094 105.152344 C 87.5625 105.578125 87.5625 105.578125 87.398438 106.199219 C 87.355469 106.089844 87.308594 105.976562 87.261719 105.863281 C 86.917969 105.253906 86.539062 104.851562 86 104.398438 C 85.363281 104.222656 85.363281 104.222656 84.800781 104.199219 C 85.273438 103.964844 85.730469 103.75 86.226562 103.5625 C 86.871094 103.234375 86.871094 103.234375 87.074219 102.460938 C 87.117188 102.242188 87.15625 102.023438 87.199219 101.800781 Z M 87.199219 101.800781 "/>
<path style=" stroke:none;fill-rule:nonzero;fill:rgb(97.254902%,98.039216%,98.823529%);fill-opacity:1;" d="M 96.199219 104.199219 C 96.265625 104.199219 96.332031 104.199219 96.398438 104.199219 C 96.457031 104.390625 96.515625 104.578125 96.574219 104.773438 C 96.753906 105.410156 96.753906 105.410156 97.199219 105.800781 C 97.003906 105.867188 96.804688 105.933594 96.601562 106 C 96.535156 106.394531 96.46875 106.792969 96.398438 107.199219 C 96.351562 107.085938 96.300781 106.96875 96.25 106.851562 C 95.964844 106.339844 95.625 105.996094 95.199219 105.601562 C 95.390625 105.53125 95.390625 105.53125 95.585938 105.460938 C 96.054688 105.230469 96.054688 105.230469 96.148438 104.675781 C 96.167969 104.519531 96.183594 104.363281 96.199219 104.199219 Z M 96.199219 104.199219 "/>
</g>
</svg>
